SplineFontDB: 3.2
FontName: SeriousShannsItalic
FullName: Serious Shanns Italic
FamilyName: Serious Shanns Italic
Weight: Book
Copyright: https://github.com/kaBeech/serious-shanns/blob/main/LICENSE
Version: 6.0.0
ItalicAngle: -12.7
UnderlinePosition: 0
UnderlineWidth: 0
Ascent: 800
Descent: 200
InvalidEm: 0
sfntRevision: 0x00003333
LayerCount: 2
Layer: 0 0 "Back" 1
Layer: 1 0 "Fore" 0
XUID: [1021 45 630387186 1984481]
StyleMap: 0x0040
FSType: 4
OS2Version: 3
OS2_WeightWidthSlopeOnly: 0
OS2_UseTypoMetrics: 0
CreationTime: 1532631502
ModificationTime: 315532800
PfmFamily: 81
TTFWeight: 400
TTFWidth: 5
LineGap: 0
VLineGap: 0
Panose: 0 0 0 0 0 0 0 0 0 0
OS2TypoAscent: 613
OS2TypoAOffset: 0
OS2TypoDescent: -188
OS2TypoDOffset: 0
OS2TypoLinegap: 98
OS2WinAscent: 778
OS2WinAOffset: 0
OS2WinDescent: 308
OS2WinDOffset: 0
HheadAscent: 796
HheadAOffset: 0
HheadDescent: -317
HheadDOffset: 0
OS2SubXSize: 317
OS2SubYSize: 293
OS2SubXOff: 0
OS2SubYOff: 37
OS2SupXSize: 317
OS2SupYSize: 293
OS2SupXOff: 0
OS2SupYOff: 171
OS2StrikeYSize: 0
OS2StrikeYPos: 132
OS2CapHeight: 576
OS2XHeight: 485
OS2Vendor: 'NONE'
OS2CodePages: 00000001.00000000
OS2UnicodeRanges: 00000001.00000000.00000000.00000000
MarkAttachClasses: 1
DEI: 91125
LangName: 1033 "" "" "Normal" "" "" "Version 0.2.0"
Encoding: UnicodeBmp
UnicodeInterp: none
NameList: AGL For New Fonts
DisplaySize: -48
AntiAlias: 1
FitToEm: 0
WinInfo: 16 16 14
BeginPrivate: 8
BlueValues 32 [-40 -6 497 511 708 718 765 769]
OtherBlues 11 [-298 -287]
BlueScale 9 0.0291667
BlueShift 1 2
StdHW 4 [86]
StdVW 4 [58]
StemSnapH 19 [82 85 86 89 90 94]
StemSnapV 7 [58 68]
EndPrivate
BeginChars: 65537 123

StartChar: .notdef
Encoding: 65536 -1 0
Width: 506
GlyphClass: 1
Flags: W
LayerCount: 2
Fore
SplineSet
-63 -268 m 1
 171 749 l 1
 570 749 l 1
 335 -268 l 1
 -63 -268 l 1
-1 -214 m 1
 297 -214 l 1
 507 695 l 1
 209 695 l 1
 -1 -214 l 1
EndSplineSet
Validated: 1
EndChar

StartChar: exclam
Encoding: 33 33 12
Width: 506
GlyphClass: 2
Flags: HMW
HStem: -24.001 152.997
VStem: 109.997 151
LayerCount: 2
Fore
SplineSet
397 738 m 0
 395.666992188 732 384.330078125 688.166015625 362.997070312 606.499023438 c 0
 341.6640625 524.83203125 325.6640625 458.33203125 314.997070312 406.999023438 c 0
 304.330078125 356.999023438 297.330078125 327.166015625 293.997070312 317.499023438 c 0
 290.6640625 307.83203125 286.6640625 292.33203125 281.997070312 270.999023438 c 0
 277.330078125 256.33203125 269.330078125 244.83203125 257.997070312 236.499023438 c 0
 247.503954463 228.783576859 236.439044992 224.925853569 224.8023419 224.925853569 c 0
 223.87091471 224.925853569 222.935824181 224.950569046 221.997070312 225 c 0
 209.330078125 225 199.997070312 229.333007812 193.997070312 238 c 0
 190.820637293 242.58835336 189.232493233 248.297787468 189.232493233 255.128302322 c 0
 189.232493233 261.20002368 190.487386184 268.15758176 192.997070312 276.000976562 c 0
 196.330078125 286.000976562 199.830078125 295.66796875 203.497070312 305.000976562 c 0
 207.1640625 314.333984375 209.997070312 322.166992188 211.997070312 328.5 c 0
 213.997070312 334.833007812 217.830078125 349.833007812 223.497070312 373.5 c 0
 229.1640625 397.166992188 235.6640625 427.666992188 242.997070312 465 c 0
 247.6640625 491 253.331054688 518.5 259.998046875 547.5 c 0
 266.665039062 576.5 272.498046875 600.666992188 277.498046875 620 c 0
 282.498046875 639.333007812 288.165039062 661.333007812 294.498046875 686 c 0
 300.831054688 710.666992188 304.998046875 727 306.998046875 735 c 0
 311.665039062 753 319.33203125 766.666992188 329.999023438 776 c 0
 340.666015625 785.333007812 352.333007812 790 365 790 c 0
 365.952756261 790.047662237 366.886792702 790.071493356 367.802108966 790.071493356 c 0
 379.695859835 790.071493356 388.428750785 786.047662237 394 778 c 0
 397.6 772.799804687 399.4 765.91984375 399.4 757.35990625 c 0
 399.4 751.65328125 398.6 745.2 397 738 c 0
168.99609375 -24.0009765625 m 0
 165.661411509 -24.3821349436 162.456122453 -24.5727241116 159.380215179 -24.5727241116 c 0
 140.933781408 -24.5727241116 127.140545105 -17.7182116605 117.998046875 -4.0048828125 c 0
 110.886501729 6.66210937583 107.330729156 18.810528785 107.330729156 32.4406647932 c 0
 107.330729156 39.2551088767 108.219509541 46.4399142873 109.997070312 53.9951171875 c 0
 114.6640625 73.9951171875 126.6640625 91.328125 145.997070312 105.995117188 c 0
 165.330078125 120.662109375 184.997070312 128.329101562 204.997070312 128.99609375 c 0
 205.975325521 129.025752322 206.941717301 129.040581608 207.896245653 129.040581608 c 0
 228.408123551 129.040581608 243.441731771 122.192744509 252.997070312 108.497070312 c 0
 259.815245252 98.7245748441 263.224487488 87.3250165431 263.224487488 74.2983954089 c 0
 263.224487488 68.2192862724 262.482025582 61.785836761 260.997070312 54.998046875 c 0
 256.330078125 33.6650390625 245.663085938 15.83203125 228.99609375 1.4990234375 c 0
 212.329101562 -12.833984375 192.329101562 -21.333984375 168.99609375 -24.0009765625 c 0
EndSplineSet
Validated: 1
EndChar

StartChar: quotedbl
Encoding: 34 34 13
Width: 506
GlyphClass: 2
Flags: HMW
VStem: 100.996 306.002
LayerCount: 2
Fore
SplineSet
258 738 m 0
 252 710.666992188 241.165039062 665.830078125 225.498046875 603.497070312 c 0
 209.831054688 541.1640625 197.998046875 498.331054688 189.998046875 474.998046875 c 0
 185.331054688 461.665039062 177.6640625 451.665039062 166.997070312 444.998046875 c 0
 157.300192061 438.937387 147.879311902 435.907057062 138.733696218 435.907057062 c 0
 137.818732763 435.907057062 136.906524373 435.937387 135.997070312 435.998046875 c 0
 123.330078125 436.665039062 113.163085938 440.83203125 105.49609375 448.499023438 c 0
 100.730174853 453.264942334 98.3472154051 459.254226952 98.3472154051 466.467111858 c 0
 98.3472154051 470.857683373 99.2301748534 475.701636265 100.99609375 480.999023438 c 0
 110.99609375 514.999023438 121.829101562 558.666015625 133.49609375 611.999023438 c 0
 145.163085938 665.33203125 154.330078125 709.33203125 160.997070312 743.999023438 c 0
 162.330078125 751.999023438 165.330078125 758.83203125 169.997070312 764.499023438 c 0
 174.6640625 770.166015625 179.997070312 774.333007812 185.997070312 777 c 0
 191.997070312 779.666992188 197.997070312 781.5 203.997070312 782.5 c 0
 209.997070312 783.5 215.997070312 783.666992188 221.997070312 783 c 0
 227.330078125 783 232.330078125 782.333007812 236.997070312 781 c 0
 241.6640625 779.666992188 245.831054688 777.5 249.498046875 774.5 c 0
 253.165039062 771.5 255.83203125 766.833007812 257.499023438 760.5 c 0
 259.166015625 754.166992188 259.333007812 746.666992188 258 738 c 0
406.998046875 737.99609375 m 0
 401.665039062 710.663085938 391.166992188 665.826171875 375.5 603.493164062 c 0
 359.833007812 541.16015625 347.666015625 498.327148438 338.999023438 474.994140625 c 0
 334.33203125 461.661132812 326.665039062 451.661132812 315.998046875 444.994140625 c 0
 306.301168624 438.93348075 296.880288465 435.903150812 287.734672781 435.903150812 c 0
 286.819709326 435.903150812 285.907500936 435.93348075 284.998046875 435.994140625 c 0
 272.998046875 436.661132812 262.998046875 440.828125 254.998046875 448.495117188 c 0
 250.198070313 453.095290037 247.7981875 458.835217381 247.7981875 465.715110154 c 0
 247.7981875 470.301761327 248.864828125 475.395076171 250.998046875 480.995117188 c 0
 260.998046875 514.995117188 271.665039062 558.662109375 282.998046875 611.995117188 c 0
 294.331054688 665.328125 303.331054688 709.328125 309.998046875 743.995117188 c 0
 311.331054688 751.995117188 314.331054688 758.828125 318.998046875 764.495117188 c 0
 323.665039062 770.162109375 329.165039062 774.329101562 335.498046875 776.99609375 c 0
 341.831054688 779.663085938 347.831054688 781.49609375 353.498046875 782.49609375 c 0
 359.165039062 783.49609375 364.998046875 783.663085938 370.998046875 782.99609375 c 0
 376.998046875 782.99609375 382.165039062 782.329101562 386.498046875 780.99609375 c 0
 390.831054688 779.663085938 394.998046875 777.49609375 398.998046875 774.49609375 c 0
 402.998046875 771.49609375 405.831054688 766.829101562 407.498046875 760.49609375 c 0
 409.165039062 754.163085938 408.998046875 746.663085938 406.998046875 737.99609375 c 0
EndSplineSet
Validated: 1
EndChar

StartChar: numbersign
Encoding: 35 35 14
Width: 506
GlyphClass: 2
Flags: HMW
HStem: 192 82<373.999 393 341 411.999> 445 84<240.993 380.998 274.998 347.993 274.998 473.999 274.998 439.999>
LayerCount: 2
Fore
SplineSet
72 42 m 0
 64 28 52.326171875 16.5 36.9931640625 7.5 c 0
 26.3780048077 1.26923076923 16.8810327293 -1.84615384615 8.50224782729 -1.84615384615 c 0
 4.77834342641 -1.84615384615 1.27531550481 -1.23076923077 -2.0068359375 0 c 0
 -12.673828125 2.6669921875 -19.173828125 11.1669921875 -21.5068359375 25.5 c 0
 -22.0016473423 28.5399108367 -22.2490530448 31.6472959558 -22.2490530448 34.8221553574 c 0
 -22.2490530448 46.6165786262 -18.8346551548 59.3422013196 -12.005859375 72.9990234375 c 0
 -2.6728515625 90.9990234375 14.994140625 129.666015625 40.994140625 188.999023438 c 1
 12.994140625 188.999023438 l 2
 -2.3388671875 188.999023438 -13.3388671875 192.33203125 -20.005859375 198.999023438 c 0
 -26.6728515625 205.666015625 -28.6728515625 214.666015625 -26.005859375 225.999023438 c 0
 -24.005859375 237.999023438 -18.3388671875 247.999023438 -9.005859375 255.999023438 c 0
 0.3271484375 263.999023438 12.994140625 268.666015625 28.994140625 269.999023438 c 0
 33.6611328125 269.999023438 41.1611328125 270.166015625 51.494140625 270.499023438 c 0
 61.8271484375 270.83203125 69.66015625 270.999023438 74.9931640625 270.999023438 c 1
 146.993164062 443.999023438 l 1
 141.66015625 443.999023438 134.66015625 443.83203125 125.993164062 443.499023438 c 0
 117.326171875 443.166015625 111.326171875 442.999023438 107.993164062 442.999023438 c 0
 106.766020361 442.945642179 105.567700289 442.918951549 104.398203844 442.918951549 c 0
 90.9549877663 442.918951549 81.3203000266 446.445642179 75.494140625 453.499023438 c 0
 69.1611328125 461.166015625 67.328125 470.666015625 69.9951171875 481.999023438 c 0
 71.9951171875 493.999023438 77.828125 504.166015625 87.4951171875 512.499023438 c 0
 97.162109375 520.83203125 110.329101562 525.33203125 126.99609375 525.999023438 c 0
 138.99609375 526.666015625 156.99609375 526.999023438 180.99609375 526.999023438 c 1
 222.329101562 627.666015625 243.329101562 679.666015625 243.99609375 682.999023438 c 0
 252.663085938 699.666015625 262.99609375 711.333007812 274.99609375 718 c 0
 282.996484374 722.444878483 290.700405076 724.667317724 298.10814525 724.667317724 c 0
 301.811472805 724.667317724 305.440776919 724.11187067 308.99609375 723.000976562 c 0
 321.663085938 720.333984375 330.330078125 713.666992188 334.997070312 703 c 0
 336.812138319 698.851435899 337.719672322 694.198735478 337.719672322 689.041898736 c 0
 337.719672322 680.939223053 335.479130507 671.591923474 330.998046875 661 c 2
 274.998046875 529 l 1
 380.998046875 529 l 1
 438.998046875 675 l 2
 447.665039062 692.333007812 457.998046875 704.333007812 469.998046875 711 c 0
 477.998437499 715.444878483 485.850810197 717.667317724 493.554875575 717.667317724 c 0
 497.40634403 717.667317724 501.220746516 717.11187067 504.998046875 716.000976562 c 0
 518.331054688 713.333984375 527.331054688 706.666992188 531.998046875 696 c 0
 533.631528321 692.266474611 534.448269044 688.124638677 534.448269044 683.574492199 c 0
 534.448269044 675.1244922 531.631528321 665.266328133 525.998046875 654 c 0
 512.665039062 626 495.665039062 585 474.998046875 531 c 1
 484.998046875 531 l 2
 499.665039062 531 511.165039062 526.5 519.498046875 517.5 c 0
 526.218286578 510.2418576 529.578662535 502.658526118 529.578662535 494.750005556 c 0
 529.578662535 492.852065852 529.385126342 490.935397333 528.998046875 489 c 0
 526.331054688 477 520.331054688 466.833007812 510.998046875 458.5 c 0
 501.665039062 450.166992188 489.33203125 445.666992188 473.999023438 445 c 2
 439.999023438 445 l 1
 373.999023438 274 l 1
 411.999023438 274 l 2
 426.666015625 274 435.833007812 270.5 439.5 263.5 c 0
 443.166992188 256.5 444 247.333007812 442 236 c 0
 435.333007812 206.666992188 419 192 393 192 c 2
 341 192 l 1
 311 116 290 64.6669921875 278 38 c 0
 269.333007812 24 258 13.1669921875 244 5.5 c 0
 234.800130102 0.461762097481 226.175885664 -2.05721829597 218.127543802 -2.05721829597 c 0
 213.928235717 -2.05721829597 209.885707996 -1.37146574338 206 0 c 0
 195.333007812 2.6669921875 188.5 10.5 185.5 23.5 c 0
 184.728544984 26.8429717354 184.342809173 30.3071547462 184.342809173 33.8925656384 c 0
 184.342809173 44.2499413707 187.561739344 55.61895272 194 68 c 0
 206.666992188 94.6669921875 224 135.666992188 246 191 c 1
 233.333007812 191 214.5 190.833007812 189.5 190.5 c 0
 164.5 190.166992188 146.333007812 190 135 190 c 1
 105 118 84 68.6669921875 72 42 c 0
240.993164062 445 m 1
 169.994140625 273.999023438 l 1
 195.327148438 274.666015625 231.66015625 274.999023438 278.993164062 274.999023438 c 1
 301.66015625 329.666015625 324.66015625 386.333007812 347.993164062 445 c 1
 240.993164062 445 l 1
EndSplineSet
Validated: 1
EndChar

StartChar: dollar
Encoding: 36 36 15
Width: 506
GlyphClass: 2
Flags: HMW
HStem: -28.9932 84.9932<123.001 160 134.001 160> 642.998 79.002
VStem: 119.001 82.999 378.502 93.998
LayerCount: 2
Fore
SplineSet
202 -99 m 0
 197.333007812 -113.666992188 189.333984375 -124.993164062 178.000976562 -132.993164062 c 0
 166.66796875 -140.993164062 154.66796875 -144.993164062 142.000976562 -144.993164062 c 0
 130.66796875 -144.993164062 123.000976562 -140.493164062 119.000976562 -131.493164062 c 0
 117.400976562 -127.893164062 116.600976562 -123.679882812 116.600976562 -118.853257812 c 0
 116.600976562 -111.613320312 118.400976562 -102.993359375 122.000976562 -92.9931640625 c 0
 126.66796875 -76.9931640625 132.000976562 -55.66015625 138.000976562 -28.9931640625 c 1
 134.000976562 -28.9931640625 l 2
 112.000976562 -28.9931640625 92.0009765625 -25.9931640625 74.0009765625 -19.9931640625 c 0
 56.0009765625 -13.9931640625 41.0009765625 -5.9931640625 29.0009765625 4.0068359375 c 0
 17.0009765625 14.0068359375 7.333984375 24.673828125 0.0009765625 36.0068359375 c 0
 -7.33203125 47.33984375 -12.9990234375 59.6728515625 -16.9990234375 73.005859375 c 0
 -18.2809206275 79.9287802675 -18.9218692225 86.3586748911 -18.9218692225 92.2954876874 c 0
 -18.9218692225 101.794736056 -17.2809206275 110.031602482 -13.9990234375 117.005859375 c 0
 -8.666015625 128.338867188 -0.3330078125 136.671875 11 142.004882812 c 0
 19 145.337890625 25.5 147.670898438 30.5 149.00390625 c 0
 35.5 150.336914062 40.5 150.669921875 45.5 150.002929688 c 0
 50.5 149.3359375 55 146.668945312 59 142.001953125 c 0
 63 137.334960938 67 130.66796875 71 122.000976562 c 0
 79 101.333984375 89.5 85.1669921875 102.5 73.5 c 0
 115.5 61.8330078125 134 56 158 56 c 2
 160 56 l 1
 187.333007812 167.333007812 210.666015625 266.666015625 229.999023438 353.999023438 c 1
 226.666015625 353.999023438 221.499023438 354.666015625 214.499023438 355.999023438 c 0
 207.499023438 357.33203125 201.999023438 357.999023438 197.999023438 357.999023438 c 0
 176.666015625 360.666015625 157.999023438 366.999023438 141.999023438 376.999023438 c 0
 125.999023438 386.999023438 113.999023438 399.166015625 105.999023438 413.499023438 c 0
 97.9990234375 427.83203125 92.666015625 442.83203125 89.9990234375 458.499023438 c 0
 88.9322421882 464.765728521 88.3988828122 471.058995326 88.3988828122 477.378886351 c 0
 88.3988828122 486.858954314 89.5990000018 496.398929695 91.9990234375 505.999023438 c 0
 97.33203125 529.999023438 105.999023438 552.999023438 117.999023438 574.999023438 c 0
 129.999023438 596.999023438 145.166015625 617.499023438 163.499023438 636.499023438 c 0
 181.83203125 655.499023438 203.999023438 671.83203125 229.999023438 685.499023438 c 0
 255.999023438 699.166015625 283.999023438 708.666015625 313.999023438 713.999023438 c 1
 318.666015625 729.999023438 323.999023438 749.33203125 329.999023438 771.999023438 c 0
 339.33203125 808.666015625 355.999023438 826.999023438 379.999023438 826.999023438 c 0
 380.517795139 827.011381176 381.030387971 827.017560045 381.536801934 827.017560045 c 0
 402.289394048 827.017560045 412.665690105 816.641263988 412.665690105 795.888671874 c 0
 412.665690105 789.814670138 411.776801216 782.851779513 409.999023438 775 c 2
 396.999023438 722 l 1
 410.999023438 721.333007812 429.499023438 718 452.499023438 712 c 0
 475.499023438 706 492.33203125 700.333007812 502.999023438 695 c 0
 513.666015625 690.333007812 520.499023438 683 523.499023438 673 c 0
 524.672977656 669.086819274 525.259984024 665.071502145 525.259984024 660.954107131 c 0
 525.259984024 654.549639491 523.839737237 647.898197038 520.999023438 641 c 0
 518.33203125 633 514.499023438 626.833007812 509.499023438 622.5 c 0
 504.499023438 618.166992188 498.999023438 615.5 492.999023438 614.5 c 0
 486.999023438 613.5 481.33203125 613.333007812 475.999023438 614 c 0
 470.666015625 614.666992188 465.666015625 615.666992188 460.999023438 617 c 0
 455.666015625 618.333007812 449.166015625 621.166015625 441.499023438 625.499023438 c 0
 433.83203125 629.83203125 424.999023438 633.665039062 414.999023438 636.998046875 c 0
 404.999023438 640.331054688 392.666015625 642.331054688 377.999023438 642.998046875 c 1
 364.666015625 589.665039062 347.333007812 518.998046875 326 430.998046875 c 1
 353.333007812 426.998046875 377 419.831054688 397 409.498046875 c 0
 417 399.165039062 432.166992188 387.33203125 442.5 373.999023438 c 0
 452.833007812 360.666015625 460.5 345.333007812 465.5 328 c 0
 470.18773251 311.749499157 472.531196373 295.791709997 472.531196373 280.126632521 c 0
 472.531196373 266.817943845 470.954955031 247.967510172 465 225 c 0
 457.666992188 194.333007812 446.166992188 165.333007812 430.5 138 c 0
 414.833007812 110.666992188 396 87 374 67 c 0
 352 47 327.833007812 29.6669921875 301.5 15 c 0
 275.166992188 0.3330078125 247.666992188 -10.6669921875 219 -18 c 1
 209.666992188 -58 204 -85 202 -99 c 0
184.000976562 531.006835938 m 0
 182.667510362 524.911508643 182.000777262 519.033828289 182.000777262 513.373817654 c 0
 182.000777262 499.224383241 186.167510362 486.43527071 194.500976562 475.006835938 c 0
 206.16796875 459.006835938 224.66796875 447.673828125 250.000976562 441.006835938 c 1
 261.333984375 487.006835938 276.666992188 551.006835938 296 633.006835938 c 1
 267.333007812 624.33984375 242.833007812 611.33984375 222.5 594.006835938 c 0
 202.166992188 576.673828125 189.333984375 555.673828125 184.000976562 531.006835938 c 0
375.000976562 208.006835938 m 0
 377.371925672 219.267759007 378.557400227 229.738365707 378.557400227 239.418656036 c 0
 378.557400227 252.064808706 376.291114892 263.998384855 372.001953125 276.508789062 c 0
 368.001953125 288.17578125 360.168945312 299.008789062 348.501953125 309.008789062 c 0
 336.834960938 319.008789062 321.66796875 327.67578125 303.000976562 335.008789062 c 1
 295.66796875 305.67578125 285.000976562 261.508789062 271.000976562 202.508789062 c 0
 257.000976562 143.508789062 246.66796875 100.67578125 240.000976562 74.0087890625 c 1
 273.333984375 87.341796875 302.500976562 105.674804688 327.500976562 129.0078125 c 0
 352.500976562 152.340820312 368.333984375 178.673828125 375.000976562 208.006835938 c 0
EndSplineSet
Validated: 1
EndChar

StartChar: percent
Encoding: 37 37 16
Width: 506
GlyphClass: 2
Flags: HMW
HStem: -28.001 76 170.999 74<357.667 370.667> 432 75<146 191.667> 632 73<215.333 219.333>
LayerCount: 2
Fore
SplineSet
157 432 m 0
 135 432 117.000976562 438.5 103.000976562 451.5 c 0
 89.0009765625 464.5 80.16796875 480.833007812 76.5009765625 500.5 c 0
 75.006884151 508.513189634 74.2598379453 516.77539467 74.2598379453 525.286615107 c 0
 74.2598379453 537.664717586 75.8398919635 550.569504737 79 564.000976562 c 0
 88.3330078125 605.333984375 106.833007812 639.166992188 134.5 665.5 c 0
 162.166992188 691.833007812 195.666992188 705 235 705 c 0
 250.333007812 705 264 702.166992188 276 696.5 c 0
 288 690.833007812 298 682.333007812 306 671 c 0
 314 659.666992188 318.5 644.166992188 319.5 624.5 c 0
 319.619992313 622.14011212 319.679987626 619.734639456 319.679987626 617.283580321 c 0
 319.679987626 599.307838133 316.453103244 578.880199865 310 556 c 0
 298.666992188 515.333007812 280.666992188 484.5 256 463.5 c 0
 231.333007812 442.5 198.333007812 432 157 432 c 0
-22.9990234375 19 m 0
 -3.666015625 47.6669921875 41 107.833984375 111 199.500976562 c 0
 181 291.16796875 251.166992188 383.66796875 321.5 477.000976562 c 0
 391.833007812 570.333984375 440 637.000976562 466 677.000976562 c 0
 476 689.000976562 487.333007812 696.500976562 500 699.500976562 c 0
 503.931277016 700.432044559 507.701987935 700.897593155 511.312132755 700.897593155 c 0
 519.334258071 700.897593155 526.563547152 698.598827728 533 694.000976562 c 0
 543 688.66796875 547.5 680.834960938 546.5 670.501953125 c 0
 545.5 660.168945312 539.333007812 647.668945312 528 633.001953125 c 0
 495.333007812 592.334960938 416.5 488.66796875 291.5 322.000976562 c 0
 166.5 155.333984375 83 42.6669921875 41 -16 c 0
 23.7694432748 -39.6308074654 7.62954096653 -51.4460145654 -7.41970692481 -51.4460145654 c 0
 -12.7496159128 -51.4460145654 -17.942721417 -49.9640038868 -22.9990234375 -47 c 0
 -33.9990234375 -40.6665039062 -39.4990234375 -31.9997558594 -39.4990234375 -20.9997558594 c 0
 -39.4990234375 -9.99975585938 -33.9990234375 3.33349609375 -22.9990234375 19 c 0
184 507 m 0
 199.333007812 507 212.333984375 512.33203125 223.000976562 522.999023438 c 0
 233.66796875 533.666015625 241.66796875 547.999023438 247.000976562 565.999023438 c 0
 249.84312411 576.736179483 251.264249783 586.12703508 251.264249783 594.17159023 c 0
 251.264249783 603.109732171 249.509872833 610.385868761 246.000976562 616 c 0
 239.333984375 626.666992188 227.666992188 632 211 632 c 0
 196.333007812 632 183.5 626.166992188 172.5 614.5 c 0
 161.5 602.833007812 153 587 147 567 c 0
 144.666503906 557.666503906 143.499755859 549.416503906 143.499755859 542.24987793 c 0
 143.499755859 535.083251953 144.666503906 529 147 524 c 0
 151.666992188 514 164 508.333007812 184 507 c 0
300.000976562 -28.0009765625 m 0
 278.000976562 -28.0009765625 260 -21.5009765625 246 -8.5009765625 c 0
 232 4.4990234375 223.166992188 20.83203125 219.5 40.4990234375 c 0
 218.005907588 48.5122130705 217.258861383 56.7744181054 217.258861383 65.2856385421 c 0
 217.258861383 77.6637410219 218.838915401 90.5685281746 221.999023438 104 c 0
 231.33203125 145.333007812 249.83203125 179.166015625 277.499023438 205.499023438 c 0
 305.166015625 231.83203125 338.333007812 244.999023438 377 244.999023438 c 0
 392.333007812 244.999023438 406.166015625 242.33203125 418.499023438 236.999023438 c 0
 430.83203125 231.666015625 440.999023438 223.166015625 448.999023438 211.499023438 c 0
 456.999023438 199.83203125 461.499023438 184.165039062 462.499023438 164.498046875 c 0
 462.610134549 162.312825521 462.665690105 160.088517554 462.665690105 157.825121635 c 0
 462.665690105 139.717954283 459.110134549 119.109157986 451.999023438 95.998046875 c 0
 440.666015625 55.3310546875 422.833007812 24.3310546875 398.5 2.998046875 c 0
 374.904716102 -17.6881905036 343.317022307 -28.0313091928 303.736918615 -28.0313091928 c 0
 302.499417547 -28.0313091928 301.254103529 -28.0211983161 300.000976562 -28.0009765625 c 0
327 47.9990234375 m 0
 327.838433511 47.9608950609 328.670331428 47.9418309638 329.495693749 47.9418309638 c 0
 343.108665006 47.9418309638 354.943759276 53.1278346147 365.000976562 63.4990234375 c 0
 375.66796875 74.4990234375 383.66796875 88.666015625 389.000976562 105.999023438 c 0
 391.753237803 116.522598453 393.129368424 125.768358462 393.129368424 133.736289477 c 0
 393.129368424 158.577970825 379.753237803 170.999023438 353.000976562 170.999023438 c 0
 338.333984375 170.999023438 325.666992188 165.166015625 315 153.499023438 c 0
 304.333007812 141.83203125 296 126.33203125 290 106.999023438 c 0
 287.747005727 98.3095088046 286.620563525 90.5132703076 286.620563525 83.6104178145 c 0
 286.620563525 76.2142731689 287.913754065 69.8437633283 290.5 64.4990234375 c 0
 295.5 54.166015625 307.666992188 48.666015625 327 47.9990234375 c 0
EndSplineSet
Validated: 1
EndChar

StartChar: ampersand
Encoding: 38 38 17
Width: 506
GlyphClass: 2
Flags: HMW
HStem: -41.998 93.998<123.668 167.332> 645.001 79<348.334 348.667>
VStem: 341.003 89.9971 428 83.5<297 297>
LayerCount: 2
Fore
SplineSet
406 -35 m 0xe0
 399.482363771 -38.5846283196 393.084440558 -40.3768284055 386.806002215 -40.3768284055 c 0
 380.240755435 -40.3768284055 373.80615936 -38.4171476073 367.501953125 -34.498046875 c 0
 355.168945312 -26.8310546875 346.3359375 -13.6640625 341.002929688 5.0029296875 c 0xe0
 340.3359375 8.3359375 338.8359375 18.3359375 336.502929688 35.0029296875 c 0
 334.169921875 51.669921875 332.002929688 63.669921875 330.002929688 71.0029296875 c 1
 328.002929688 68.3359375 323.002929688 62.6689453125 315.002929688 54.001953125 c 0
 307.002929688 45.3349609375 301.002929688 39.001953125 297.002929688 35.001953125 c 0
 293.002929688 31.001953125 286.502929688 25.001953125 277.502929688 17.001953125 c 0
 268.502929688 9.001953125 261.002929688 2.8349609375 255.002929688 -1.498046875 c 0
 249.002929688 -5.8310546875 241.169921875 -10.998046875 231.502929688 -16.998046875 c 0
 221.8359375 -22.998046875 212.668945312 -27.498046875 204.001953125 -30.498046875 c 0
 195.334960938 -33.498046875 185.501953125 -36.1650390625 174.501953125 -38.498046875 c 0
 163.501953125 -40.8310546875 152.334960938 -41.998046875 141.001953125 -41.998046875 c 0
 106.334960938 -41.998046875 76.66796875 -32.3310546875 52.0009765625 -12.998046875 c 0
 27.333984375 6.3349609375 10.6669921875 31.66796875 2 63.0009765625 c 0
 -2.50679043657 79.2939761295 -4.76011700069 96.3081158226 -4.76011700069 114.043395642 c 0
 -4.76011700069 130.414767507 -2.84004199928 147.400627814 1 165.000976562 c 0
 29.6669921875 291.000976562 98 376.66796875 206 422.000976562 c 1
 202.666992188 432.000976562 198.5 444.000976562 193.5 458.000976562 c 0
 188.5 472.000976562 185 481.833984375 183 487.500976562 c 0
 181 493.16796875 178.833007812 500.500976562 176.5 509.500976562 c 0
 174.166992188 518.500976562 173 526.333984375 173 533.000976562 c 0
 173 539.66796875 173.5 547.834960938 174.5 557.501953125 c 0
 175.5 567.168945312 177.333007812 577.668945312 180 589.001953125 c 0
 182.666992188 601.001953125 186.833984375 612.834960938 192.500976562 624.501953125 c 0
 198.16796875 636.168945312 206.000976562 648.168945312 216.000976562 660.501953125 c 0
 226.000976562 672.834960938 237.500976562 683.66796875 250.500976562 693.000976562 c 0
 263.500976562 702.333984375 279.500976562 709.833984375 298.500976562 715.500976562 c 0
 317.500976562 721.16796875 337.66796875 724.000976562 359.000976562 724.000976562 c 0
 377.000976562 724.000976562 394.000976562 721.000976562 410.000976562 715.000976562 c 0
 426.000976562 709.000976562 439.833984375 700.16796875 451.500976562 688.500976562 c 0
 463.16796875 676.833984375 471.000976562 661.500976562 475.000976562 642.500976562 c 0
 476.715219569 634.35832228 477.572302639 625.817668857 477.572302639 616.879093158 c 0
 477.572302639 604.960472615 476.048466538 592.334373008 473.000976562 579.000976562 c 0
 468.333984375 557.66796875 461.166992188 537.834960938 451.5 519.501953125 c 0
 441.833007812 501.168945312 431.833007812 485.8359375 421.5 473.502929688 c 0
 411.166992188 461.169921875 398.666992188 449.336914062 384 438.00390625 c 0
 369.333007812 426.670898438 356.333007812 417.670898438 345 411.00390625 c 0
 333.666992188 404.336914062 320.666992188 397.669921875 306 391.002929688 c 1
 312.666992188 370.3359375 324.666992188 339.668945312 342 299.001953125 c 0
 359.333007812 258.334960938 370.333007812 231.334960938 375 218.001953125 c 1
 381 227.334960938 388 238.16796875 396 250.500976562 c 0
 404 262.833984375 410.666992188 272.833984375 416 280.500976562 c 0
 421.333007812 288.16796875 425.333007812 293.66796875 428 297.000976562 c 0
 442.666992188 314.333984375 455.5 325.166992188 466.5 329.5 c 0
 470.833007813 331.206814246 475.140104294 332.060221368 479.421349133 332.060221368 c 0
 486.008696104 332.060221368 492.534840584 330.039822059 499 325.999023438 c 0
 507.42986215 321.18208536 511.64515303 312.693929057 511.64515303 300.534554527 c 0
 511.64515303 288.635517553 507.82855209 271.742828135 492 248 c 0
 487.333007812 242 475 228.666992188 455 208 c 0
 435 187.333007812 417.666992188 168.333007812 403 151 c 1
 407 138.333007812 412.666992188 120.166015625 420 96.4990234375 c 0
 427.333007812 72.83203125 431.333007812 58.9990234375 432 54.9990234375 c 0
 434.509684128 47.4695114886 435.764577079 39.5708288161 435.764577079 31.3030771949 c 0
 435.764577079 22.0020903855 434.176433019 12.2340241667 431 1.9990234375 c 0
 425 -17.333984375 416.666992188 -29.6669921875 406 -35 c 0xe0
264.000976562 572.000976562 m 0
 262.000488281 563.665445925 260.999999821 554.913207985 260.999999821 545.744140584 c 0
 260.999999821 536.579549171 261.999511719 526.998535157 263.999023438 517.000976562 c 0
 267.999023438 497.000976562 274.33203125 479.333984375 282.999023438 464.000976562 c 1
 297.666015625 468.66796875 310.333007812 473.500976562 321 478.500976562 c 0
 331.666992188 483.500976562 342.166992188 490.000976562 352.5 498.000976562 c 0
 362.833007812 506.000976562 371.333007812 515.833984375 378 527.500976562 c 0
 384.666992188 539.16796875 389.666992188 553.000976562 393 569.000976562 c 0
 395.076885572 577.539396593 396.115308107 585.378799364 396.115308107 592.519225377 c 0
 396.115308107 606.007069235 392.410114409 617.000895302 385 625.500976562 c 0
 373.666992188 638.500976562 358.333984375 645.000976562 339.000976562 645.000976562 c 0
 300.333984375 645.000976562 275.333984375 620.66796875 264.000976562 572.000976562 c 0
95.9990234375 174.000976562 m 0
 92.8513403678 160.360888514 91.2774690907 147.597962427 91.2774690907 135.712317271 c 0
 91.2774690907 117.389977969 95.0175890488 101.152393605 102.498046875 87 c 0
 114.831054688 63.6669921875 134.998046875 52 162.998046875 52 c 0
 171.665039062 52 180.33203125 53 188.999023438 55 c 0
 197.666015625 57 205.333007812 59 212 61 c 0
 218.666992188 63 225.666992188 66.3330078125 233 71 c 0
 240.333007812 75.6669921875 246.166015625 79.5 250.499023438 82.5 c 0
 254.83203125 85.5 260.33203125 90.1669921875 266.999023438 96.5 c 0
 273.666015625 102.833007812 278.333007812 107.333007812 281 110 c 0
 283.666992188 112.666992188 288 117.5 294 124.5 c 0
 300 131.5 303.666992188 135.666992188 305 137 c 0
 300.333007812 163 295.666015625 183.333007812 290.999023438 198 c 0
 286.999023438 213.333007812 277.83203125 238.333007812 263.499023438 273 c 0
 249.166015625 307.666992188 238.999023438 333.333984375 232.999023438 350.000976562 c 1
 212.33203125 341.333984375 193.999023438 330.500976562 177.999023438 317.500976562 c 0
 161.999023438 304.500976562 148.666015625 290.16796875 137.999023438 274.500976562 c 0
 127.33203125 258.833984375 118.83203125 243.000976562 112.499023438 227.000976562 c 0
 106.166015625 211.000976562 100.666015625 193.333984375 95.9990234375 174.000976562 c 0
EndSplineSet
Validated: 1
EndChar

StartChar: quotesingle
Encoding: 39 39 18
Width: 506
GlyphClass: 2
Flags: HMW
HStem: 446.001 325.499
VStem: 178 152
LayerCount: 2
Fore
SplineSet
330 728 m 0
 324.666992188 701.333007812 315.001953125 660.16796875 301.001953125 604.500976562 c 0
 287.001953125 548.833984375 275.668945312 509.333984375 267.001953125 486.000976562 c 0
 262.334960938 472.000976562 254.66796875 461.66796875 244.000976562 455.000976562 c 0
 234.304098311 448.940316687 224.883218152 445.909986749 215.737602468 445.909986749 c 0
 214.822639013 445.909986749 213.910430623 445.940316687 213.000976562 446.000976562 c 0
 200.333984375 446.66796875 190.166992188 451.000976562 182.5 459.000976562 c 0
 177.734081103 463.973898177 175.351121655 470.10603617 175.351121655 477.39739054 c 0
 175.351121655 481.835727381 176.234081103 486.703589388 178 492.000976562 c 0
 188 526.66796875 198 566.66796875 208 612.000976562 c 0
 218 657.333984375 226.333007812 697.666992188 233 733 c 0
 234.333007812 741 237.333007812 748 242 754 c 0
 246.666992188 760 252.166992188 764.166992188 258.5 766.5 c 0
 264.833007812 768.833007812 270.833007812 770.5 276.5 771.5 c 0
 282.166992188 772.5 288 772.666992188 294 772 c 0
 299.333007812 772 304.333007812 771.333007812 309 770 c 0
 313.666992188 768.666992188 318 766.5 322 763.5 c 0
 326 760.5 328.666992188 756 330 750 c 0
 331.333007812 744 331.333007812 736.666992188 330 728 c 0
EndSplineSet
Validated: 1
EndChar

StartChar: parenleft
Encoding: 40 40 19
Width: 506
GlyphClass: 2
Flags: HMW
HStem: -130.998 83.998<187.331 234> 733.002 81<399 439.666>
LayerCount: 2
Fore
SplineSet
254 -93 m 0
 251.333007812 -103.666992188 245.165039062 -112.665039062 235.498046875 -119.998046875 c 0
 225.831054688 -127.331054688 216.6640625 -130.998046875 207.997070312 -130.998046875 c 0
 166.6640625 -130.998046875 132.831054688 -114.998046875 106.498046875 -82.998046875 c 0
 80.1650390625 -50.998046875 62.998046875 -6.6650390625 54.998046875 50.001953125 c 0
 51.4424913194 75.1872829859 49.6647135417 102.084418403 49.6647135417 130.693445109 c 0
 49.6647135417 166.454728491 52.4424913194 204.890842014 57.998046875 246.001953125 c 0
 64.6650390625 294.668945312 80.33203125 358.001953125 104.999023438 436.001953125 c 0
 129.666015625 514.001953125 156.666015625 578.334960938 185.999023438 629.001953125 c 0
 199.33203125 651.001953125 214.999023438 672.834960938 232.999023438 694.501953125 c 0
 250.999023438 716.168945312 270.666015625 736.001953125 291.999023438 754.001953125 c 0
 313.33203125 772.001953125 335.999023438 786.501953125 359.999023438 797.501953125 c 0
 383.999023438 808.501953125 406.33203125 814.001953125 426.999023438 814.001953125 c 0
 447.481101596 814.001953125 457.722398742 805.067921816 457.722398742 787.200375329 c 0
 457.722398742 782.968665518 457.147942593 778.235855831 455.999023438 773.001953125 c 0
 452.666015625 759.001953125 446.333007812 748.834960938 437 742.501953125 c 0
 427.666992188 736.168945312 417.666992188 733.001953125 407 733.001953125 c 0
 391 733.001953125 374.833007812 728.001953125 358.5 718.001953125 c 0
 342.166992188 708.001953125 326.666992188 694.334960938 312 677.001953125 c 0
 297.333007812 659.668945312 283.833007812 640.668945312 271.5 620.001953125 c 0
 259.166992188 599.334960938 247.666992188 577.001953125 237 553.001953125 c 0
 221 518.334960938 204.5 470.66796875 187.5 410.000976562 c 0
 170.5 349.333984375 159 300.000976562 153 262.000976562 c 0
 148.090810028 228.72731152 145.636482494 196.234887654 145.636482494 164.523704963 c 0
 145.636482494 157.477557581 145.757656952 150.469981448 146 143.500976562 c 0
 147.333007812 105.16796875 151.5 72.16796875 158.5 44.5009765625 c 0
 165.5 16.833984375 175.166992188 -5.3330078125 187.5 -22 c 0
 199.833007812 -38.6669921875 213.333007812 -47 228 -47 c 0
 240 -47 248.333007812 -50.3330078125 253 -57 c 0
 255.512946008 -60.589847749 256.769342784 -65.7258909346 256.769342784 -72.4081295569 c 0
 256.769342784 -78.1360085233 255.846196517 -84.9999653377 254 -93 c 0
EndSplineSet
Validated: 1
EndChar

StartChar: parenright
Encoding: 41 41 20
Width: 506
GlyphClass: 2
Flags: HMW
HStem: -131.005 84<93.6636 100.665> 732.998 81.002<275.333 307.666>
VStem: 367.999 86.001
LayerCount: 2
Fore
SplineSet
404 246 m 0
 380 172 350.997070312 106.662109375 316.997070312 49.9951171875 c 0
 282.997070312 -6.671875 245.330078125 -51.0048828125 203.997070312 -83.0048828125 c 0
 162.6640625 -115.004882812 121.331054688 -131.004882812 79.998046875 -131.004882812 c 0
 71.3310546875 -131.004882812 63.6640625 -127.337890625 56.9970703125 -120.004882812 c 0
 50.330078125 -112.671875 48.330078125 -103.671875 50.9970703125 -93.0048828125 c 0
 54.9970703125 -75.671875 60.9970703125 -63.671875 68.9970703125 -57.0048828125 c 0
 76.9970703125 -50.337890625 87.330078125 -47.0048828125 99.9970703125 -47.0048828125 c 0
 114.6640625 -47.0048828125 131.831054688 -38.671875 151.498046875 -22.0048828125 c 0
 171.165039062 -5.337890625 190.998046875 16.8291015625 210.998046875 44.49609375 c 0
 230.998046875 72.1630859375 250.665039062 105.330078125 269.998046875 143.997070312 c 0
 289.331054688 182.6640625 304.998046875 221.997070312 316.998046875 261.997070312 c 0
 328.998046875 299.997070312 340.331054688 349.330078125 350.998046875 409.997070312 c 0
 361.665039062 470.6640625 367.33203125 518.331054688 367.999023438 552.998046875 c 0
 367.999023438 576.998046875 366.499023438 599.331054688 363.499023438 619.998046875 c 0
 360.499023438 640.665039062 355.83203125 659.665039062 349.499023438 676.998046875 c 0
 343.166015625 694.331054688 334.166015625 707.998046875 322.499023438 717.998046875 c 0
 310.83203125 727.998046875 296.999023438 732.998046875 280.999023438 732.998046875 c 0
 269.666015625 732.998046875 260.999023438 736.165039062 254.999023438 742.498046875 c 0
 250.845189285 746.882424233 248.76811019 753.104381117 248.76811019 761.163593491 c 0
 248.76811019 764.745499289 249.178405123 768.690326566 249.999023438 772.998046875 c 0
 251.999023438 781.665039062 254.999023438 788.83203125 258.999023438 794.499023438 c 0
 262.999023438 800.166015625 267.33203125 804.333007812 271.999023438 807 c 0
 276.666015625 809.666992188 280.999023438 811.5 284.999023438 812.5 c 0
 288.999023438 813.5 292.999023438 814 296.999023438 814 c 0
 318.33203125 814 338.33203125 808.5 356.999023438 797.5 c 0
 375.666015625 786.5 391.499023438 772 404.499023438 754 c 0
 417.499023438 736 428.33203125 716.166992188 436.999023438 694.5 c 0
 445.666015625 672.833007812 451.333007812 651 454 629 c 0
 456.037772687 611.792031195 457.05667816 593.007718795 457.05667816 572.647024545 c 0
 457.05667816 533.057869501 453.204545851 487.508955064 445.5 436 c 0
 433.833007812 358 420 294.666992188 404 246 c 0
EndSplineSet
Validated: 1
EndChar

StartChar: asterisk
Encoding: 42 42 21
Width: 506
GlyphClass: 2
Flags: HMW
HStem: 292.998 103.999 305.999 77<310.998 354.998>
VStem: 159.997 86.001 259.998 86
LayerCount: 2
Fore
SplineSet
156 139 m 0x70
 152 131 146.498046875 124.999023438 139.498046875 120.999023438 c 0
 132.498046875 116.999023438 125.331054688 114.666015625 117.998046875 113.999023438 c 0
 110.665039062 113.33203125 103.998046875 113.83203125 97.998046875 115.499023438 c 0
 91.998046875 117.166015625 86.998046875 119.333007812 82.998046875 122 c 0
 78.3310546875 125.333007812 74.6640625 130.166015625 71.9970703125 136.499023438 c 0
 69.330078125 142.83203125 68.4970703125 150.665039062 69.4970703125 159.998046875 c 0
 70.4970703125 169.331054688 74.6640625 178.998046875 81.9970703125 188.998046875 c 2
 168.997070312 297.998046875 l 1
 116.997070312 294.665039062 78.9970703125 292.998046875 54.9970703125 292.998046875 c 0
 40.330078125 292.998046875 29.9970703125 298.331054688 23.9970703125 308.998046875 c 0
 19.8432361591 316.382866285 17.7661570643 324.086898441 17.7661570643 332.110467378 c 0
 17.7661570643 335.676531499 18.1764519975 339.305715182 18.9970703125 342.998046875 c 0
 19.6640625 348.998046875 21.4970703125 355.165039062 24.4970703125 361.498046875 c 0
 27.4970703125 367.831054688 31.330078125 373.831054688 35.9970703125 379.498046875 c 0
 40.6640625 385.165039062 46.6640625 389.665039062 53.9970703125 392.998046875 c 0
 61.330078125 396.331054688 68.6630859375 397.6640625 75.99609375 396.997070312 c 0xb0
 103.99609375 394.330078125 145.329101562 390.997070312 199.99609375 386.997070312 c 1
 184.663085938 435.6640625 171.330078125 472.997070312 159.997070312 498.997070312 c 0
 157.330566406 506.663574219 155.997314453 514.246826172 155.997314453 521.746826172 c 0
 155.997314453 529.246826172 157.330566406 536.663574218 159.997070312 543.997070312 c 0
 165.330078125 558.6640625 173.330078125 568.331054688 183.997070312 572.998046875 c 0
 190.6640625 576.998046875 198.1640625 579.165039062 206.497070312 579.498046875 c 0
 214.830078125 579.831054688 222.830078125 577.331054688 230.497070312 571.998046875 c 0
 238.1640625 566.665039062 243.331054688 558.665039062 245.998046875 547.998046875 c 0
 249.331054688 531.998046875 258.6640625 493.665039062 273.997070312 432.998046875 c 1
 309.330078125 478.331054688 336.663085938 516.331054688 355.99609375 546.998046875 c 0
 362.663085938 557.665039062 370.830078125 565.665039062 380.497070312 570.998046875 c 0
 390.1640625 576.331054688 398.831054688 578.831054688 406.498046875 578.498046875 c 0
 414.165039062 578.165039062 420.33203125 575.665039062 424.999023438 570.998046875 c 0
 430.33203125 567.665039062 434.165039062 562.33203125 436.498046875 554.999023438 c 0
 438.831054688 547.666015625 438.831054688 538.999023438 436.498046875 528.999023438 c 0
 434.165039062 518.999023438 428.998046875 509.33203125 420.998046875 499.999023438 c 0
 393.665039062 468.666015625 362.665039062 429.666015625 327.998046875 382.999023438 c 1
 381.998046875 382.999023438 421.331054688 386.666015625 445.998046875 393.999023438 c 0
 450.664827205 395.483978708 454.977267159 396.226440613 458.935366739 396.226440613 c 0
 467.416981805 396.226440613 474.271534038 392.817198378 479.499023438 385.999023438 c 0
 485.579667699 378.068085056 488.619746248 369.717610031 488.619746248 360.948085527 c 0
 488.619746248 358.660249499 488.412835762 356.343892586 487.999023438 353.999023438 c 0
 486.666015625 347.999023438 484.666015625 341.999023438 481.999023438 335.999023438 c 0
 479.33203125 329.999023438 475.83203125 323.999023438 471.499023438 317.999023438 c 0
 467.166015625 311.999023438 461.666015625 307.33203125 454.999023438 303.999023438 c 0
 448.33203125 300.666015625 441.665039062 299.999023438 434.998046875 301.999023438 c 0
 419.997817958 304.999069221 392.997405881 306.49888611 353.99639864 306.49888611 c 0
 340.99685648 306.49888611 326.664077644 306.332260134 310.998046875 305.999023438 c 1
 346.998046875 189.999023438 l 2
 348.513079773 183.029339426 349.270642082 176.438390708 349.270642082 170.226177286 c 0
 349.270642082 162.771785913 348.179829837 155.862734631 345.998046875 149.499023438 c 0
 341.998046875 137.83203125 335.331054688 129.33203125 325.998046875 123.999023438 c 0
 319.331054688 119.999023438 310.998046875 117.666015625 300.998046875 116.999023438 c 0
 290.998046875 116.33203125 281.831054688 118.33203125 273.498046875 122.999023438 c 0
 265.165039062 127.666015625 260.665039062 135.333007812 259.998046875 146 c 0
 258.665039062 172.666992188 251.33203125 211 237.999023438 261 c 1
 194.666015625 199.666992188 167.333007812 159 156 139 c 0x70
EndSplineSet
Validated: 1
EndChar

StartChar: plus
Encoding: 43 43 22
Width: 506
GlyphClass: 2
Flags: HMW
HStem: 356.998 84.001<197.666 223.998>
LayerCount: 2
Fore
SplineSet
255 250 m 0
 251.666992188 234.666992188 245.999023438 223.831054688 237.999023438 217.498046875 c 0
 229.999023438 211.165039062 220.666015625 207.998046875 209.999023438 207.998046875 c 0
 188.447849973 207.998046875 177.67226324 216.701568842 177.67226324 234.108612776 c 0
 177.67226324 238.778643607 178.447849973 244.07512164 179.999023438 249.998046875 c 2
 203.999023438 356.998046875 l 1
 191.33203125 356.998046875 174.499023438 356.831054688 153.499023438 356.498046875 c 0
 132.499023438 356.165039062 118.33203125 355.998046875 110.999023438 355.998046875 c 0
 95.666015625 355.998046875 85.166015625 360.165039062 79.4990234375 368.498046875 c 0
 75.6455484359 374.164375014 73.718810935 380.678702456 73.718810935 388.040722157 c 0
 73.718810935 391.505425898 74.1455484359 395.157878138 74.9990234375 398.998046875 c 0
 76.9990234375 411.665039062 82.666015625 422.33203125 91.9990234375 430.999023438 c 0
 100.665108847 439.046685675 112.20572019 443.070516794 126.620075653 443.070516794 c 0
 127.729371966 443.070516794 128.855688013 443.046685675 129.999023438 442.999023438 c 0
 173.33203125 441.666015625 204.665039062 440.999023438 223.998046875 440.999023438 c 1
 231.998046875 474.33203125 239.331054688 510.33203125 245.998046875 548.999023438 c 0
 251.331054688 577.666015625 267.998046875 591.999023438 295.998046875 591.999023438 c 0
 308.665039062 592.666015625 318.33203125 589.999023438 324.999023438 583.999023438 c 0
 328.920749757 580.469642083 330.881612917 575.094961105 330.881612917 567.874781737 c 0
 330.881612917 562.820550421 329.920749757 556.861987048 327.999023438 549.999023438 c 0
 316.666015625 511.33203125 306.999023438 474.33203125 298.999023438 438.999023438 c 1
 400.999023438 438.999023438 l 2
 415.666015625 438.999023438 424.999023438 435.666015625 428.999023438 428.999023438 c 0
 432.999023438 422.33203125 434.33203125 413.33203125 432.999023438 401.999023438 c 0
 431.666015625 395.999023438 429.833007812 390.499023438 427.5 385.499023438 c 0
 425.166992188 380.499023438 422 375.666015625 418 370.999023438 c 0
 414 366.33203125 409 362.83203125 403 360.499023438 c 0
 397 358.166015625 390.333007812 357.333007812 383 358 c 0
 373.40018753 359.199976559 357.200750093 359.799859375 334.401476765 359.799859375 c 0
 319.201218917 359.799859375 301.067414164 359.533218748 280 359 c 1
 276 341 271.166992188 319.666992188 265.5 295 c 0
 259.833007812 270.333007812 256.333007812 255.333007812 255 250 c 0
EndSplineSet
Validated: 1
EndChar

StartChar: comma
Encoding: 44 44 23
Width: 506
GlyphClass: 2
Flags: HMW
VStem: 124.501 254.999
LayerCount: 2
Fore
SplineSet
378 96 m 0
 364 63.3330078125 339.001953125 12.9990234375 303.001953125 -55.0009765625 c 0
 267.001953125 -123.000976562 241.668945312 -165.000976562 227.001953125 -181.000976562 c 0
 213.668945312 -195.000976562 198.668945312 -205.000976562 182.001953125 -211.000976562 c 0
 172.001757813 -214.600976562 163.4415625 -216.400976562 156.321367187 -216.400976562 c 0
 151.574570312 -216.400976562 147.467773437 -215.600976562 144.000976562 -214.000976562 c 0
 138.000976562 -212.000976562 133.000976562 -208.000976562 129.000976562 -202.000976562 c 0
 125.000976562 -196.000976562 123.500976562 -188.66796875 124.500976562 -180.000976562 c 0
 125.500976562 -171.333984375 130.000976562 -162.333984375 138.000976562 -153.000976562 c 0
 155.333984375 -133.000976562 183.166992188 -89.0009765625 221.5 -21.0009765625 c 0
 259.833007812 46.9990234375 284.666015625 94.33203125 295.999023438 120.999023438 c 0
 299.999023438 130.33203125 306.166015625 137.665039062 314.499023438 142.998046875 c 0
 322.83203125 148.331054688 330.83203125 150.998046875 338.499023438 150.998046875 c 0
 346.166015625 150.998046875 353.333007812 150.331054688 360 148.998046875 c 0
 368.666992188 145.665039062 375.166992188 139.33203125 379.5 129.999023438 c 0
 381.442367717 125.815293829 382.413551575 121.229667971 382.413551575 116.242145862 c 0
 382.413551575 110.103570645 380.942367717 103.35618869 378 96 c 0
EndSplineSet
Validated: 1
EndChar

StartChar: hyphen
Encoding: 45 45 24
Width: 506
GlyphClass: 2
Flags: HMW
HStem: 243 87<144.333 150.001> 251 82<345.001 375.335>
VStem: 109.001 290.001
LayerCount: 2
Fore
SplineSet
158 330 m 0xa0
 193.333007812 330 235.501953125 330.5 284.501953125 331.5 c 0
 333.501953125 332.5 361.334960938 333 368.001953125 333 c 0
 382.668945312 333 392.001953125 329.5 396.001953125 322.5 c 0
 400.001953125 315.5 401.001953125 306.333007812 399.001953125 295 c 0
 392.334960938 265.666992188 375.66796875 251 349.000976562 251 c 0x60
 341.000976562 251 309.500976562 249.666992188 254.500976562 247 c 0
 199.500976562 244.333007812 161.000976562 243 139.000976562 243 c 0
 117.667539061 243 107.000820311 252.172990631 107.000820311 270.519471883 c 0
 107.000820311 275.106260161 107.667539061 280.266433595 109.000976562 286 c 0
 114.333984375 315.333007812 130.666992188 330 158 330 c 0xa0
EndSplineSet
Validated: 1
EndChar

StartChar: period
Encoding: 46 46 25
Width: 506
GlyphClass: 2
Flags: HMW
HStem: -14 153.998
VStem: 178.001 151
LayerCount: 2
Fore
SplineSet
237 -14 m 0
 233.723923678 -14.3744596508 230.572732422 -14.5616975852 227.546415422 -14.5616975852 c 0
 209.018570895 -14.5616975852 195.171243823 -7.54367434842 186.001953125 6.49609375 c 0
 178.890407979 17.3850979217 175.334635406 29.5337275827 175.334635406 42.9416933546 c 0
 175.334635406 49.6450624897 176.223415791 56.663208009 178.000976562 63.99609375 c 0
 182.66796875 84.6630859375 194.66796875 102.330078125 214.000976562 116.997070312 c 0
 233.333984375 131.6640625 253.000976562 139.331054688 273.000976562 139.998046875 c 0
 273.97923177 140.027705447 274.945953732 140.042534733 275.901142363 140.042534733 c 0
 296.427209049 140.042534733 311.627437782 133.194697635 321.500976562 119.499023438 c 0
 328.316433218 110.045242384 331.724161545 98.9234970598 331.724161545 86.1340676887 c 0
 331.724161545 79.5332668382 330.816433218 72.4882392462 329.000976562 64.9990234375 c 0
 324.333984375 43.666015625 313.666992188 25.8330078125 297 11.5 c 0
 280.333007812 -2.8330078125 260.333007812 -11.3330078125 237 -14 c 0
EndSplineSet
Validated: 1
EndChar

StartChar: slash
Encoding: 47 47 26
Width: 506
GlyphClass: 2
Flags: HMW
VStem: -63 95
LayerCount: 2
Fore
SplineSet
554 676 m 0
 530 642 465.501953125 558.498046875 360.501953125 425.498046875 c 0
 255.501953125 292.498046875 191.334960938 209.998046875 168.001953125 177.998046875 c 0
 153.334960938 157.331054688 129.16796875 122.331054688 95.5009765625 72.998046875 c 0
 61.833984375 23.6650390625 40.6669921875 -6.3349609375 32 -17.001953125 c 0
 18 -35.6689453125 2.5 -48.6689453125 -14.5 -56.001953125 c 0
 -23 -59.6684570312 -30.625 -61.5017089844 -37.375 -61.5017089844 c 0
 -44.125 -61.5017089844 -50 -59.6684570312 -55 -56.001953125 c 0
 -60.9999542271 -52.002227779 -64.0001373296 -44.0650625097 -64.0001373296 -32.190457317 c 0
 -64.0001373296 -28.2321347997 -63.6667633064 -23.8362922565 -63 -19.0029296875 c 0
 -60.3330078125 0.330078125 -52.3330078125 17.9970703125 -39 33.9970703125 c 0
 89 193.997070312 199.333007812 336.330078125 292 460.997070312 c 0
 350 537.6640625 412.666992188 624.331054688 480 720.998046875 c 0
 487.333007812 731.665039062 496 739.83203125 506 745.499023438 c 0
 516 751.166015625 525 753.833007812 533 753.5 c 0
 541 753.166992188 548.666992188 751.333984375 556 748.000976562 c 0
 566 742.000976562 571 732.66796875 571 720.000976562 c 0
 571 707.333984375 565.333007812 692.666992188 554 676 c 0
EndSplineSet
Validated: 1
EndChar

StartChar: zero
Encoding: 48 48 27
Width: 506
GlyphClass: 2
Flags: HMW
HStem: -24 83.999<149.001 160.333> 636.999 81.001<335.333 336.667>
LayerCount: 2
Fore
SplineSet
151 -24 m 0
 122.333007812 -24 96.833984375 -18.333984375 74.5009765625 -7.0009765625 c 0
 52.16796875 4.33203125 34.66796875 19.9990234375 22.0009765625 39.9990234375 c 0
 9.333984375 59.9990234375 1.5009765625 84.9990234375 -1.4990234375 114.999023438 c 0
 -2.22872870194 122.296076082 -2.59357430751 129.770618651 -2.59357430751 137.422651144 c 0
 -2.59357430751 161.23002918 0.938083727959 186.755486611 8.0009765625 213.999023438 c 0
 9.333984375 220.666015625 12.833984375 237.166015625 18.5009765625 263.499023438 c 0
 24.16796875 289.83203125 28.8349609375 310.83203125 32.501953125 326.499023438 c 0
 36.1689453125 342.166015625 41.6689453125 363.833007812 49.001953125 391.5 c 0
 56.3349609375 419.166992188 63.3349609375 443 70.001953125 463 c 0
 76.6689453125 483 85.001953125 504.5 95.001953125 527.5 c 0
 105.001953125 550.5 115.001953125 570.666992188 125.001953125 588 c 0
 150.334960938 630 183.16796875 662.166992188 223.500976562 684.5 c 0
 263.833984375 706.833007812 309.666992188 718 361 718 c 0
 386.333007812 718 408.833007812 713.333007812 428.5 704 c 0
 448.166992188 694.666992188 464.833984375 681 478.500976562 663 c 0
 492.16796875 645 501.334960938 621.666992188 506.001953125 593 c 0
 508.180034733 579.621137141 509.269075537 565.298509819 509.269075537 550.032118035 c 0
 509.269075537 532.587094909 507.847026921 513.909722231 505.002929688 494 c 0
 499.669921875 460.666992188 492.336914062 422.833984375 483.00390625 380.500976562 c 0
 473.670898438 338.16796875 462.670898438 295.500976562 450.00390625 252.500976562 c 0
 437.336914062 209.500976562 425.669921875 176.66796875 415.002929688 154.000976562 c 0
 404.3359375 131.333984375 393.668945312 111.333984375 383.001953125 94.0009765625 c 0
 372.334960938 76.66796875 361.66796875 61.66796875 351.000976562 49.0009765625 c 0
 340.333984375 36.333984375 328.833984375 25.6669921875 316.500976562 17 c 0
 304.16796875 8.3330078125 292.16796875 1.3330078125 280.500976562 -4 c 0
 268.833984375 -9.3330078125 255.833984375 -13.5 241.500976562 -16.5 c 0
 227.16796875 -19.5 213.16796875 -21.5 199.500976562 -22.5 c 0
 185.833984375 -23.5 169.666992188 -24 151 -24 c 0
102.000976562 229.999023438 m 0
 101.333984375 227.33203125 100.500976562 223.333007812 99.5009765625 218 c 0
 98.5009765625 212.666992188 97.66796875 209 97.0009765625 207 c 1
 208.333984375 329 312.333984375 454.333007812 409.000976562 583 c 1
 401.66796875 600.333007812 391.000976562 613.666015625 377.000976562 622.999023438 c 0
 363.000976562 632.33203125 346.333984375 636.999023438 327.000976562 636.999023438 c 0
 292.333984375 636.999023438 263.000976562 626.666015625 239.000976562 605.999023438 c 0
 215.000976562 585.33203125 193.000976562 551.999023438 173.000976562 505.999023438 c 0
 165.000976562 489.33203125 157.500976562 469.83203125 150.500976562 447.499023438 c 0
 143.500976562 425.166015625 136.500976562 398.166015625 129.500976562 366.499023438 c 0
 122.500976562 334.83203125 117.833984375 312.499023438 115.500976562 299.499023438 c 0
 113.16796875 286.499023438 108.66796875 263.33203125 102.000976562 229.999023438 c 0
331.000976562 168 m 0
 335.000976562 176 342.66796875 197.999023438 354.000976562 233.999023438 c 0
 365.333984375 269.999023438 377.000976562 311.166015625 389.000976562 357.499023438 c 0
 401.000976562 403.83203125 410.333984375 448.33203125 417.000976562 490.999023438 c 1
 316.333984375 344.33203125 209.333984375 221.33203125 96.0009765625 121.999023438 c 1
 103.333984375 80.666015625 128.000976562 59.9990234375 170.000976562 59.9990234375 c 0
 186.66796875 59.9990234375 202.000976562 61.4990234375 216.000976562 64.4990234375 c 0
 230.000976562 67.4990234375 243.833984375 72.83203125 257.500976562 80.4990234375 c 0
 271.16796875 88.166015625 284.000976562 99.3330078125 296.000976562 114 c 0
 308.000976562 128.666992188 319.66796875 146.666992188 331.000976562 168 c 0
EndSplineSet
Validated: 1
EndChar

StartChar: one
Encoding: 49 49 28
Width: 506
GlyphClass: 2
Flags: HMW
HStem: -9 85.5 -5 89<71.6665 72.3306>
LayerCount: 2
Fore
SplineSet
480 38 m 0x80
 477.333007812 24.6669921875 471.497070312 13.5 462.497070312 4.5 c 0
 453.497070312 -4.5 439.6640625 -9 420.997070312 -9 c 0x80
 412.997070312 -9 357.997070312 -8.3330078125 255.997070312 -7 c 0
 153.997070312 -5.6669921875 87.6640625 -5 56.9970703125 -5 c 0
 42.9970703125 -5 33.830078125 -1 29.4970703125 7 c 0
 26.8149336406 11.9520089286 25.4738653047 17.7979386871 25.4738653047 24.5380208947 c 0
 25.4738653047 28.6865817486 25.9819258281 33.1738901138 26.998046875 38 c 0
 29.6650390625 51.3330078125 35.33203125 62.3330078125 43.9990234375 71 c 0
 52.666015625 79.6669921875 64.3330078125 84 79 84 c 0x40
 107 84 154.666992188 83.6669921875 222 83 c 1
 228 109.666992188 232.666992188 131 236 147 c 0
 236.666992188 152.333007812 240.5 170 247.5 200 c 0
 254.5 230 259.666992188 251.666992188 263 265 c 0
 266.333007812 278.333007812 272.833007812 303 282.5 339 c 0
 292.166992188 375 299.166992188 401.833007812 303.5 419.5 c 0
 307.833007812 437.166992188 315.166015625 465.166992188 325.499023438 503.5 c 0
 335.83203125 541.833007812 343.665039062 570 348.998046875 588 c 1
 293.665039062 546.666992188 254.33203125 522 230.999023438 514 c 0
 226.896572831 512.359079853 222.951850488 511.538605556 219.164884858 511.538605556 c 0
 210.644172183 511.538605556 202.922110363 515.69229569 195.999023438 524 c 0
 188.498977659 533.000054935 184.749160766 542.00010987 184.749160766 551.000164805 c 0
 184.749160766 554.00010987 185.165786743 557.000054935 185.999023438 560 c 0
 187.999023438 570.666992188 192.33203125 580.166992188 198.999023438 588.5 c 0
 205.666015625 596.833007812 215.666015625 605.333007812 228.999023438 614 c 0
 250.33203125 628.666992188 272.83203125 644.833984375 296.499023438 662.500976562 c 0
 320.166015625 680.16796875 337.499023438 693.000976562 348.499023438 701.000976562 c 0
 359.499023438 709.000976562 370.166015625 715.833984375 380.499023438 721.500976562 c 0
 390.83203125 727.16796875 399.665039062 730.000976562 406.998046875 730.000976562 c 0
 420.331054688 730.000976562 432.498046875 724.000976562 443.498046875 712.000976562 c 0
 452.805739183 701.847130408 457.459585337 693.125236917 457.459585337 685.835296089 c 0
 457.459585337 683.210779748 457.459585337 683.210779748 413.498046875 518.500976562 c 0
 388.498046875 424.833984375 374.331054688 370.000976562 370.998046875 354.000976562 c 0
 355.665039062 287.333984375 342.998046875 231.666992188 332.998046875 187 c 0
 326.998046875 162.333007812 319.665039062 126.333007812 310.998046875 79 c 1
 328.998046875 79 347.831054688 78.6669921875 367.498046875 78 c 0
 387.165039062 77.3330078125 403.33203125 76.8330078125 415.999023438 76.5 c 0
 428.666015625 76.1669921875 437.333007812 76 442 76 c 0
 459.333007812 76 470.5 72.5 475.5 65.5 c 0
 480.5 58.5 482 49.3330078125 480 38 c 0x80
EndSplineSet
Validated: 1
EndChar

StartChar: two
Encoding: 50 50 29
Width: 506
GlyphClass: 2
Flags: HMW
HStem: -18.0049 84.0049 -12 89<361 397.501> 637.997 83.999<345.334 358.336>
LayerCount: 2
Fore
SplineSet
374 -12 m 0x60
 348 -12 315.501953125 -12.6728515625 276.501953125 -14.005859375 c 0
 237.501953125 -15.3388671875 202.834960938 -16.671875 172.501953125 -18.0048828125 c 0
 142.168945312 -19.337890625 111.501953125 -20.0048828125 80.501953125 -20.0048828125 c 0
 49.501953125 -20.0048828125 25.3349609375 -18.671875 8.001953125 -16.0048828125 c 0
 -5.3310546875 -14.671875 -13.1640625 -5.671875 -15.4970703125 10.9951171875 c 0
 -16.0238601722 14.7585004171 -16.2872607233 18.8957570528 -16.2872607233 23.4068870946 c 0
 -16.2872607233 38.8743147962 -13.1906816433 58.7370581605 -6.9970703125 82.9951171875 c 0
 -0.330078125 111.662109375 12.169921875 141.829101562 30.5029296875 173.49609375 c 0
 48.8359375 205.163085938 72.6689453125 235.49609375 102.001953125 264.49609375 c 0
 131.334960938 293.49609375 163.001953125 316.99609375 197.001953125 334.99609375 c 0
 273.001953125 374.99609375 322.334960938 402.99609375 345.001953125 418.99609375 c 0
 375.001953125 440.329101562 396.334960938 462.99609375 409.001953125 486.99609375 c 0
 415.668945312 500.99609375 421.3359375 518.329101562 426.002929688 538.99609375 c 0
 428.785538384 551.054177989 430.176842731 561.962923854 430.176842731 571.722331345 c 0
 430.176842731 590.021220389 425.285538384 604.279466711 415.502929688 614.497070312 c 0
 400.502929688 630.1640625 375.669921875 637.997070312 341.002929688 637.997070312 c 0
 317.002929688 637.997070312 292.002929688 629.997070312 266.002929688 613.997070312 c 0
 240.002929688 597.997070312 218.669921875 580.330078125 202.002929688 560.997070312 c 0
 194.002929688 552.330078125 187.169921875 545.497070312 181.502929688 540.497070312 c 0
 175.8359375 535.497070312 170.168945312 532.6640625 164.501953125 531.997070312 c 0
 158.834960938 531.330078125 153.834960938 531.663085938 149.501953125 532.99609375 c 0
 145.168945312 534.329101562 140.001953125 536.662109375 134.001953125 539.995117188 c 0
 124.668945312 545.995117188 120.001953125 554.662109375 120.001953125 565.995117188 c 0
 120.001953125 577.328125 126.001953125 591.995117188 138.001953125 609.995117188 c 0
 147.334960938 622.662109375 159.501953125 635.329101562 174.501953125 647.99609375 c 0
 189.501953125 660.663085938 206.501953125 672.663085938 225.501953125 683.99609375 c 0
 244.501953125 695.329101562 265.668945312 704.49609375 289.001953125 711.49609375 c 0
 312.334960938 718.49609375 334.66796875 721.99609375 356.000976562 721.99609375 c 0
 423.333984375 721.99609375 470.500976562 705.329101562 497.500976562 671.99609375 c 0
 514.721437534 650.736473006 523.331541338 622.697015317 523.331541338 587.877720683 c 0
 523.331541338 568.103763913 520.554670945 546.143221602 515.000976562 521.99609375 c 0
 502.333984375 466.663085938 479.000976562 422.330078125 445.000976562 388.997070312 c 0
 419.66796875 364.330078125 378.66796875 336.997070312 322.000976562 306.997070312 c 0
 308.000976562 298.997070312 283.66796875 286.6640625 249.000976562 269.997070312 c 0
 219.000976562 254.6640625 192.500976562 235.831054688 169.500976562 213.498046875 c 0
 146.500976562 191.165039062 128.333984375 168.33203125 115.000976562 144.999023438 c 0
 101.66796875 121.666015625 91.0009765625 96.3330078125 83.0009765625 69 c 1
 117.000976562 67 150.000976562 66 182.000976562 66 c 0xa0
 214.000976562 66 239.16796875 66.5 257.500976562 67.5 c 0
 275.833984375 68.5 297.000976562 70 321.000976562 72 c 2
 369.000976562 76 l 2
 369.66796875 76 372.66796875 76.1669921875 378.000976562 76.5 c 0
 383.333984375 76.8330078125 386.833984375 77 388.500976562 77 c 2
 397.500976562 77 l 2
 401.833984375 77 405.000976562 76.3330078125 407.000976562 75 c 0
 409.000976562 73.6669921875 411.16796875 72 413.500976562 70 c 0
 415.833984375 68 417.500976562 65.3330078125 418.500976562 62 c 0
 419.500976562 58.6669921875 419.66796875 54.6669921875 419.000976562 50 c 0
 418.333984375 42 416.166992188 33.5 412.5 24.5 c 0
 408.833007812 15.5 403.5 7.1669921875 396.5 -0.5 c 0
 389.5 -8.1669921875 382 -12 374 -12 c 0x60
EndSplineSet
Validated: 1
EndChar

StartChar: three
Encoding: 51 51 30
Width: 506
GlyphClass: 2
Flags: HMW
HStem: -23.9941 84<179.666 203.333> 318.006 100<208.666 215.333> 638.006 83.998<319.001 333.999>
VStem: 350.5 100
LayerCount: 2
Fore
SplineSet
443 199 m 0
 427.666992188 130.333007812 395.666992188 76.005859375 347 36.005859375 c 0
 298.333007812 -3.994140625 238.666015625 -23.994140625 167.999023438 -23.994140625 c 0
 145.999023438 -23.994140625 125.166015625 -20.494140625 105.499023438 -13.494140625 c 0
 85.83203125 -6.494140625 68.9990234375 2.505859375 54.9990234375 13.505859375 c 0
 40.9990234375 24.505859375 29.33203125 36.505859375 19.9990234375 49.505859375 c 0
 10.666015625 62.505859375 4.666015625 75.3388671875 1.9990234375 88.005859375 c 0
 0.665804688049 94.1391343782 -0.000835937774675 100.059123132 -0.000835937774675 105.765825637 c 0
 -0.000835937774675 114.325712197 1.49904687646 122.405723443 4.4990234375 130.005859375 c 0
 9.4990234375 142.672851562 17.666015625 151.672851562 28.9990234375 157.005859375 c 0
 38.6540394503 161.603710541 47.2784148051 163.902475967 54.8724698153 163.902475967 c 0
 58.2899729426 163.902475967 61.498814419 163.436927372 64.4990234375 162.505859375 c 0
 74.166015625 159.505859375 82.3330078125 151.005859375 89 137.005859375 c 0
 98.3330078125 117.005859375 111.666015625 99.1728515625 128.999023438 83.505859375 c 0
 146.33203125 67.8388671875 167.33203125 60.005859375 191.999023438 60.005859375 c 0
 228.666015625 60.005859375 261.666015625 71.3388671875 290.999023438 94.005859375 c 0
 320.33203125 116.672851562 338.999023438 146.005859375 346.999023438 182.005859375 c 0
 350.110568591 196.673549106 351.666341168 210.007719485 351.666341168 222.008370512 c 0
 351.666341168 228.007440467 351.277560778 233.673270088 350.5 239.005859375 c 0
 348.166992188 255.005859375 341.666992188 269.005859375 331 281.005859375 c 0
 320.333007812 293.005859375 303.833007812 302.172851562 281.5 308.505859375 c 0
 259.166992188 314.838867188 231.666992188 318.005859375 199 318.005859375 c 0
 186.333007812 318.005859375 176.666015625 323.505859375 169.999023438 334.505859375 c 0
 165.554144955 341.839550782 163.331705713 349.691956035 163.331705713 358.06278574 c 0
 163.331705713 362.247587524 163.887152767 366.561957455 164.998046875 371.005859375 c 0
 168.331054688 385.005859375 174.331054688 396.338867188 182.998046875 405.005859375 c 0
 191.665039062 413.672851562 202.33203125 418.005859375 214.999023438 418.005859375 c 0
 266.999023438 418.005859375 310.499023438 429.172851562 345.499023438 451.505859375 c 0
 380.499023438 473.838867188 402.33203125 506.338867188 410.999023438 549.005859375 c 0
 413.559023438 558.605859375 414.839023438 567.420759375 414.839023438 575.450591375 c 0
 414.839023438 592.513984375 409.059023438 606.032304688 397.499023438 616.005859375 c 0
 380.499023438 630.672851562 352.999023438 638.005859375 314.999023438 638.005859375 c 0
 307.666015625 638.005859375 300.499023438 637.172851562 293.499023438 635.505859375 c 0
 286.499023438 633.838867188 280.499023438 632.171875 275.499023438 630.504882812 c 0
 270.499023438 628.837890625 264.999023438 626.004882812 258.999023438 622.004882812 c 0
 252.999023438 618.004882812 248.166015625 614.671875 244.499023438 612.004882812 c 0
 240.83203125 609.337890625 235.999023438 605.004882812 229.999023438 599.004882812 c 2
 217.499023438 586.504882812 l 2
 215.166015625 584.171875 210.999023438 579.338867188 204.999023438 572.005859375 c 0
 191.666015625 557.338867188 179.499023438 548.671875 168.499023438 546.004882812 c 0
 165.356001886 545.242845183 162.25380093 544.861826368 159.192420572 544.861826368 c 0
 151.539530162 544.861826368 144.141731118 547.242845183 136.999023438 552.004882812 c 0
 128.288519954 556.982183171 123.933268212 565.008159748 123.933268212 576.082812546 c 0
 123.933268212 588.150370177 128.974302643 603.212434695 141.000976562 622.00390625 c 0
 150.333984375 635.336914062 161.000976562 647.50390625 173.000976562 658.50390625 c 0
 185.000976562 669.50390625 198.66796875 680.00390625 214.000976562 690.00390625 c 0
 229.333984375 700.00390625 247.000976562 707.836914062 267.000976562 713.50390625 c 0
 287.000976562 719.170898438 308.000976562 722.00390625 330.000976562 722.00390625 c 0
 401.333984375 722.00390625 451.333984375 706.00390625 480.000976562 674.00390625 c 0
 498.399126177 653.466670121 507.598071908 626.613880857 507.598071908 593.445280308 c 0
 507.598071908 574.932378492 504.732358497 554.451935435 499.000976562 532.00390625 c 0
 495.000976562 512.670898438 488.833984375 495.170898438 480.500976562 479.50390625 c 0
 472.16796875 463.836914062 462.66796875 450.50390625 452.000976562 439.50390625 c 0
 441.333984375 428.50390625 429.166992188 418.836914062 415.5 410.50390625 c 0
 401.833007812 402.170898438 388.5 395.670898438 375.5 391.00390625 c 0
 362.5 386.336914062 348.666992188 382.669921875 334 380.002929688 c 1
 358 374.002929688 378 366.669921875 394 358.002929688 c 0
 410 349.3359375 423 338.168945312 433 324.501953125 c 0
 443 310.834960938 448.833007812 293.66796875 450.5 273.000976562 c 0
 450.833437505 268.867093779 451.000156257 264.573173497 451.000156257 260.119215715 c 0
 451.000156257 242.305993824 448.333437505 221.932921919 443 199 c 0
EndSplineSet
Validated: 1
EndChar

StartChar: four
Encoding: 52 52 31
Width: 506
GlyphClass: 2
Flags: HMW
HStem: -23.001 21G<298.334 311.001> 223.999 79.999
LayerCount: 2
Fore
SplineSet
359 55 m 0
 358.333007812 33.6669921875 352.500976562 15.33203125 341.500976562 -0.0009765625 c 0
 330.500976562 -15.333984375 318.000976562 -23.0009765625 304.000976562 -23.0009765625 c 0
 292.66796875 -23.0009765625 282.66796875 -18.16796875 274.000976562 -8.5009765625 c 0
 266.489301205 -0.122601986415 262.733463527 8.38047813759 262.733463527 17.0088995872 c 0
 262.733463527 23.4919500693 268.610888292 48.0012530954 271.499023438 59.9990234375 c 0
 275.83203125 77.9990234375 281.999023438 103.83203125 289.999023438 137.499023438 c 0
 297.999023438 171.166015625 304.666015625 199.999023438 309.999023438 223.999023438 c 1
 296.745930941 224.155826025 283.954079848 224.234228113 271.623468568 224.234228113 c 0
 179.129271221 224.234228113 112.588013141 219.822716852 71.9990234375 210.999023438 c 0
 61.9990234375 208.999023438 53.166015625 209.33203125 45.4990234375 211.999023438 c 0
 37.83203125 214.666015625 32.4990234375 219.333007812 29.4990234375 226 c 0
 26.4990234375 232.666992188 24.666015625 240.333984375 23.9990234375 249.000976562 c 0
 23.33203125 257.66796875 24.1650390625 266.66796875 26.498046875 276.000976562 c 0
 28.8310546875 285.333984375 32.3310546875 294.333984375 36.998046875 303.000976562 c 0
 47.6650390625 321.66796875 71.498046875 352.16796875 108.498046875 394.500976562 c 0
 145.498046875 436.833984375 192.665039062 489.166992188 249.998046875 551.5 c 0
 307.331054688 613.833007812 348.331054688 659 372.998046875 687 c 0
 384.331054688 699.666992188 395.831054688 709.166992188 407.498046875 715.5 c 0
 419.165039062 721.833007812 429.33203125 725 437.999023438 725 c 0
 440.301903788 725.242343048 442.544167565 725.363517506 444.725820639 725.363517506 c 0
 454.544349181 725.363517506 463.13523848 722.909189972 470.499023438 718 c 0
 478.87811002 712.413942278 483.068047344 703.072124755 483.068047344 689.973759363 c 0
 483.068047344 684.974403895 481.942436052 656.917369543 467 579 c 0
 457.666992188 530.333007812 449.333984375 489.166015625 442.000976562 455.499023438 c 0
 434.66796875 421.83203125 423.66796875 370.999023438 409.000976562 302.999023438 c 1
 419.66796875 302.33203125 431.66796875 301.999023438 445.000976562 301.999023438 c 0
 459.66796875 301.999023438 469.000976562 298.499023438 473.000976562 291.499023438 c 0
 477.000976562 284.499023438 478.000976562 275.33203125 476.000976562 263.999023438 c 0
 469.333984375 234.666015625 452.666992188 219.999023438 426 219.999023438 c 0
 413.333007812 219.999023438 402 220.33203125 392 220.999023438 c 1
 370 123.666015625 359 68.3330078125 359 55 c 0
390.000976562 601.998046875 m 1
 268.000976562 472.665039062 182.666992188 372.331054688 134 300.998046875 c 1
 169.239337725 303.378866395 212.302791837 304.569276155 263.190006399 304.569276155 c 0
 283.541910264 304.569276155 305.145249055 304.378866395 328 303.998046875 c 1
 356.666992188 428.665039062 377.333984375 527.998046875 390.000976562 601.998046875 c 1
EndSplineSet
Validated: 1
EndChar

StartChar: five
Encoding: 53 53 32
Width: 506
GlyphClass: 2
Flags: HMW
HStem: -18.001 83.998<159.998 166.331> 419.997 89.0029<284.332 347> 619 88.998<484.667 516.001> 630 79.998
LayerCount: 2
Fore
SplineSet
458 296 m 0xd0
 446.666992188 246.666992188 430.6640625 202.166015625 409.997070312 162.499023438 c 0
 389.330078125 122.83203125 365.497070312 89.83203125 338.497070312 63.4990234375 c 0
 311.497070312 37.166015625 281.830078125 16.9990234375 249.497070312 2.9990234375 c 0
 217.1640625 -11.0009765625 183.6640625 -18.0009765625 148.997070312 -18.0009765625 c 0
 121.6640625 -18.0009765625 97.1640625 -15.0009765625 75.4970703125 -9.0009765625 c 0
 53.830078125 -3.0009765625 36.4970703125 5.33203125 23.4970703125 15.9990234375 c 0
 10.4970703125 26.666015625 0.1640625 37.8330078125 -7.5029296875 49.5 c 0
 -15.169921875 61.1669921875 -21.0029296875 73.333984375 -25.0029296875 86.0009765625 c 0
 -26.336148437 93.2010609426 -27.0027890628 99.8678515732 -27.0027890628 106.001285952 c 0
 -27.0027890628 115.201257821 -25.5029062485 123.201225002 -22.5029296875 130.000976562 c 0
 -17.5029296875 141.333984375 -8.669921875 150.000976562 3.9970703125 156.000976562 c 0
 11.9970703125 159.333984375 18.1640625 161.666992188 22.4970703125 163 c 0
 26.830078125 164.333007812 31.830078125 164.666015625 37.4970703125 163.999023438 c 0
 43.1640625 163.33203125 47.8310546875 160.665039062 51.498046875 155.998046875 c 0
 55.1650390625 151.331054688 58.6650390625 144.6640625 61.998046875 135.997070312 c 0
 79.3310546875 89.9970703125 111.998046875 66.6640625 159.998046875 65.9970703125 c 0
 206.665039062 65.9970703125 248.165039062 85.830078125 284.498046875 125.497070312 c 0
 320.831054688 165.1640625 346.6640625 218.331054688 361.997070312 284.998046875 c 0
 366.21196284 303.664503527 368.319409103 320.59736106 368.319409103 335.796619473 c 0
 368.319409103 354.252975431 365.21196284 370.15312571 358.997070312 383.497070312 c 0
 347.6640625 407.830078125 324.331054688 419.997070312 288.998046875 419.997070312 c 0
 279.665039062 419.997070312 270.498046875 419.497070312 261.498046875 418.497070312 c 0
 252.498046875 417.497070312 244.831054688 416.1640625 238.498046875 414.497070312 c 0
 232.165039062 412.830078125 224.998046875 410.330078125 216.998046875 406.997070312 c 0
 208.998046875 403.6640625 202.998046875 400.997070312 198.998046875 398.997070312 c 0
 194.998046875 396.997070312 189.331054688 393.330078125 181.998046875 387.997070312 c 0
 174.665039062 382.6640625 169.83203125 378.997070312 167.499023438 376.997070312 c 0
 165.166015625 374.997070312 160.166015625 370.830078125 152.499023438 364.497070312 c 0
 144.83203125 358.1640625 139.999023438 354.331054688 137.999023438 352.998046875 c 0
 131.999023438 348.331054688 125.166015625 344.331054688 117.499023438 340.998046875 c 0
 109.83203125 337.665039062 101.499023438 335.498046875 92.4990234375 334.498046875 c 0
 83.4990234375 333.498046875 75.33203125 334.998046875 67.9990234375 338.998046875 c 0
 58.666015625 343.665039062 53.166015625 353.998046875 51.4990234375 369.998046875 c 0
 51.0603007018 374.208962694 50.8409393339 378.673872326 50.8409393339 383.392757969 c 0
 50.8409393339 396.60397911 52.5603007018 411.805872293 55.9990234375 428.998046875 c 0
 60.666015625 452.331054688 65.9990234375 474.831054688 71.9990234375 496.498046875 c 0
 77.9990234375 518.165039062 84.666015625 541.498046875 91.9990234375 566.498046875 c 0
 99.33203125 591.498046875 103.999023438 608.665039062 105.999023438 617.998046875 c 1
 102.666015625 626.665039062 101.666015625 636.498046875 102.999023438 647.498046875 c 0
 104.33203125 658.498046875 107.33203125 668.665039062 111.999023438 677.998046875 c 0
 116.666015625 687.331054688 122.833007812 695.331054688 130.5 701.998046875 c 0
 138.166992188 708.665039062 146.333984375 711.998046875 155.000976562 711.998046875 c 0
 178.333984375 711.998046875 232.500976562 711.331054688 317.500976562 709.998046875 c 0xd0
 402.500976562 708.665039062 467.333984375 707.998046875 512.000976562 707.998046875 c 0
 520.000976562 707.998046875 525.66796875 704.331054688 529.000976562 696.998046875 c 0
 532.333984375 689.665039062 533.666992188 681.33203125 533 671.999023438 c 0
 532.333007812 662.666015625 530.666015625 653.999023438 527.999023438 645.999023438 c 0
 526.666015625 641.33203125 524.833007812 637.33203125 522.5 633.999023438 c 0
 520.166992188 630.666015625 517.333984375 628.166015625 514.000976562 626.499023438 c 0
 510.66796875 624.83203125 507.834960938 623.33203125 505.501953125 621.999023438 c 0
 503.168945312 620.666015625 499.668945312 619.833007812 495.001953125 619.5 c 0
 490.334960938 619.166992188 487.16796875 619 485.500976562 619 c 0xe0
 483.833984375 619 480.333984375 619.333007812 475.000976562 620 c 0
 469.66796875 620.666992188 466.66796875 621 466.000976562 621 c 0
 457.333984375 621 442.166992188 622 420.5 624 c 0
 398.833007812 626 379.333007812 627.5 362 628.5 c 0
 344.666992188 629.5 320.5 630 289.5 630 c 0
 258.5 630 226 629 192 627 c 1
 190 620.333007812 184.833007812 601 176.5 569 c 0
 168.166992188 537 162.166992188 513.833007812 158.5 499.5 c 0
 154.833007812 485.166992188 150.333007812 464.666992188 145 438 c 1
 167 458.666992188 194.333007812 475.666992188 227 489 c 0
 259.666992188 502.333007812 295 509 333 509 c 0
 361 509 384.666992188 503.5 404 492.5 c 0
 423.333007812 481.5 438 466.333007812 448 447 c 0
 458 427.666992188 463.833007812 405.166992188 465.5 379.5 c 0
 465.833437505 374.366000038 466.000156257 369.145339146 466.000156257 363.838009507 c 0
 466.000156257 342.611800112 463.333437505 319.999296929 458 296 c 0xd0
EndSplineSet
Validated: 1
EndChar

StartChar: six
Encoding: 54 54 33
Width: 506
GlyphClass: 2
Flags: HMW
HStem: -21.9971 84.0049<194.665 198.333> 393.004 87.9961<276.333 351.333> 657 80.002
VStem: 16.999 82.9971 384.499 95
LayerCount: 2
Fore
SplineSet
468 246 m 0
 459.333007812 208.666992188 445.33203125 173.502929688 425.999023438 140.502929688 c 0
 406.666015625 107.502929688 384.499023438 79.169921875 359.499023438 55.5029296875 c 0
 334.499023438 31.8359375 306.499023438 13.0029296875 275.499023438 -0.9970703125 c 0
 244.499023438 -14.9970703125 213.666015625 -21.9970703125 182.999023438 -21.9970703125 c 0
 144.999023438 -21.9970703125 113.499023438 -14.1640625 88.4990234375 1.5029296875 c 0
 63.4990234375 17.169921875 45.166015625 39.8369140625 33.4990234375 69.50390625 c 0
 22.4629541054 97.5665789075 16.9449194394 130.848447299 16.9449194394 169.349511426 c 0
 16.9449194394 171.550585068 16.9629541054 173.768716676 16.9990234375 176.00390625 c 0
 17.666015625 217.336914062 24.3330078125 263.669921875 37 315.002929688 c 0
 51 372.3359375 68.3330078125 424.002929688 89 470.002929688 c 0
 109.666992188 516.002929688 132.5 554.669921875 157.5 586.002929688 c 0
 182.5 617.3359375 210.333007812 643.8359375 241 665.502929688 c 0
 271.666992188 687.169921875 303.333984375 703.669921875 336.000976562 715.002929688 c 0
 368.66796875 726.3359375 404.000976562 733.668945312 442.000976562 737.001953125 c 0
 444.794007301 737.255797386 447.484267945 737.382719517 450.071765236 737.382719517 c 0
 461.071946028 737.382719517 470.21484375 735.088805198 477.500976562 730.500976562 c 0
 485.880063144 725.224952318 490.070000468 716.915201879 490.070000468 705.571725246 c 0
 490.070000468 701.477130191 490.070000468 691.969736761 473 676.5 c 0
 462.333007812 666.833007812 451.666015625 660.333007812 440.999023438 657 c 0
 433.666015625 655 422.499023438 652.333007812 407.499023438 649 c 0
 392.499023438 645.666992188 379.83203125 642.5 369.499023438 639.5 c 0
 359.166015625 636.5 346.499023438 632 331.499023438 626 c 0
 316.499023438 620 300.999023438 611.333007812 284.999023438 600 c 0
 268.999023438 588.666992188 252.666015625 575 235.999023438 559 c 0
 218.666015625 541.666992188 200.833007812 518 182.5 488 c 0
 164.166992188 458 150.666992188 431.333007812 142 408 c 1
 167.333007812 432.666992188 196.666015625 451 229.999023438 463 c 0
 263.33203125 475 298.999023438 481 336.999023438 481 c 0
 365.666015625 481 390.166015625 476.666992188 410.499023438 468 c 0
 430.83203125 459.333007812 446.999023438 445.666015625 458.999023438 426.999023438 c 0
 470.999023438 408.33203125 477.83203125 383.83203125 479.499023438 353.499023438 c 0
 479.751647343 348.902215526 479.877959295 344.179095662 479.877959295 339.329663845 c 0
 479.877959295 312.179095662 475.91863953 281.069207713 468 246 c 0
101.999023438 230.002929688 m 0
 100.498246331 218.996986639 99.7464135798 207.89976256 99.7464135798 196.7075438 c 0
 99.7464135798 192.984531363 99.8296048651 189.251007639 99.99609375 185.506835938 c 0
 100.663085938 170.506835938 103.330078125 155.33984375 107.997070312 140.006835938 c 0
 112.6640625 124.673828125 118.831054688 111.340820312 126.498046875 100.0078125 c 0
 134.165039062 88.6748046875 144.665039062 79.5078125 157.998046875 72.5078125 c 0
 171.331054688 65.5078125 186.331054688 62.0078125 202.998046875 62.0078125 c 0
 225.665039062 62.0078125 249.33203125 70.6748046875 273.999023438 88.0078125 c 0
 298.666015625 105.340820312 319.999023438 127.173828125 337.999023438 153.506835938 c 0
 355.999023438 179.83984375 367.999023438 206.672851562 373.999023438 234.005859375 c 0
 381.013489128 263.977777296 384.520721972 289.374655174 384.520721972 310.196493008 c 0
 384.520721972 333.043092318 380.297438051 350.248156546 371.999023438 362.00390625 c 0
 363.999023438 373.336914062 353.666015625 381.336914062 340.999023438 386.00390625 c 0
 328.33203125 390.670898438 311.999023438 393.00390625 291.999023438 393.00390625 c 0
 260.666015625 393.00390625 229.499023438 384.336914062 198.499023438 367.00390625 c 0
 167.499023438 349.670898438 140.33203125 327.670898438 116.999023438 301.00390625 c 1
 109.666015625 272.336914062 104.666015625 248.669921875 101.999023438 230.002929688 c 0
EndSplineSet
Validated: 1
EndChar

StartChar: seven
Encoding: 55 55 34
Width: 506
GlyphClass: 2
Flags: HMW
HStem: 622.497 90.5
LayerCount: 2
Fore
SplineSet
70 26 m 0
 58.6669921875 8.6669921875 46.162109375 -4.3359375 32.4951171875 -13.0029296875 c 0
 22.0440956759 -19.630497813 12.2754749836 -22.9442818757 3.18925511078 -22.9442818757 c 0
 0.393258888499 -22.9442818757 -2.33812041926 -22.630497813 -5.0048828125 -22.0029296875 c 0
 -17.671875 -18.669921875 -25.171875 -10.669921875 -27.5048828125 1.9970703125 c 0
 -27.9462410773 4.39341106292 -28.1669235156 6.83745889335 -28.1669235156 9.32921380377 c 0
 -28.1669235156 20.0088077418 -24.113083469 31.5647599113 -16.0048828125 43.9970703125 c 0
 31.328125 112.6640625 80.9951171875 180.997070312 132.995117188 248.997070312 c 0
 184.995117188 316.997070312 227.495117188 371.1640625 260.495117188 411.497070312 c 0
 293.495117188 451.830078125 324.495117188 490.997070312 353.495117188 528.997070312 c 0
 382.495117188 566.997070312 403.328125 597.997070312 415.995117188 621.997070312 c 1
 386.903446621 623.088014617 356.621616577 623.633566017 325.149627057 623.633566017 c 0
 298.924831544 623.633566017 271.873653775 623.254764683 243.99609375 622.497070312 c 0
 182.663085938 620.830078125 141.99609375 617.330078125 121.99609375 611.997070312 c 0
 113.99609375 609.997070312 107.49609375 610.330078125 102.49609375 612.997070312 c 0
 97.49609375 615.6640625 93.8291015625 619.6640625 91.49609375 624.997070312 c 0
 89.1630859375 630.330078125 87.830078125 635.997070312 87.4970703125 641.997070312 c 0
 87.1640625 647.997070312 87.3310546875 653.997070312 87.998046875 659.997070312 c 0
 90.6650390625 671.997070312 95.6650390625 681.497070312 102.998046875 688.497070312 c 0
 110.331054688 695.497070312 121.998046875 700.6640625 137.998046875 703.997070312 c 0
 161.998046875 708.6640625 194.331054688 711.6640625 234.998046875 712.997070312 c 0
 255.331542969 713.663574219 274.831542969 713.996826172 293.498168945 713.996826172 c 0
 312.164794922 713.996826172 329.998046875 713.663574218 346.998046875 712.997070312 c 0
 380.998046875 711.6640625 414.165039062 710.331054688 446.498046875 708.998046875 c 0
 478.831054688 707.665039062 496.331054688 706.998046875 498.998046875 706.998046875 c 0
 505.665039062 706.998046875 511.665039062 705.498046875 516.998046875 702.498046875 c 0
 522.331054688 699.498046875 526.998046875 694.665039062 530.998046875 687.998046875 c 0
 534.998046875 681.331054688 535.831054688 672.6640625 533.498046875 661.997070312 c 0
 531.165039062 651.330078125 525.33203125 638.997070312 515.999023438 624.997070312 c 0
 502.666015625 604.997070312 479.999023438 574.830078125 447.999023438 534.497070312 c 0
 415.999023438 494.1640625 382.83203125 452.831054688 348.499023438 410.498046875 c 0
 314.166015625 368.165039062 271.333007812 311.83203125 220 241.499023438 c 0
 168.666992188 171.166015625 118.666992188 99.3330078125 70 26 c 0
EndSplineSet
Validated: 1
EndChar

StartChar: eight
Encoding: 56 56 35
Width: 506
GlyphClass: 2
Flags: HMW
HStem: -27.9922 85.9971<183.667 188.333> 646.004 72.001<336.333 341.333>
VStem: 381.5 90.501
LayerCount: 2
Fore
SplineSet
467 204 m 0
 462.333007812 182.666992188 454.83203125 161.338867188 444.499023438 140.005859375 c 0
 434.166015625 118.672851562 420.499023438 97.83984375 403.499023438 77.5068359375 c 0
 386.499023438 57.173828125 367.166015625 39.3408203125 345.499023438 24.0078125 c 0
 323.83203125 8.6748046875 297.999023438 -3.8251953125 267.999023438 -13.4921875 c 0
 237.999023438 -23.1591796875 205.666015625 -27.9921875 170.999023438 -27.9921875 c 0
 139.666015625 -27.9921875 112.499023438 -23.3251953125 89.4990234375 -13.9921875 c 0
 66.4990234375 -4.6591796875 48.83203125 7.173828125 36.4990234375 21.5068359375 c 0
 24.166015625 35.83984375 14.8330078125 53.0068359375 8.5 73.0068359375 c 0
 2.48336424494 92.0077149296 -0.524953632595 111.159318316 -0.524953632595 130.4608087 c 0
 -0.524953632595 141.574933772 0.303936069608 165.39788353 7 196.005859375 c 0
 12.3330078125 218.672851562 23.3330078125 243.005859375 40 269.005859375 c 0
 56.6669921875 295.005859375 77.6669921875 319.005859375 103 341.005859375 c 0
 128.333007812 363.005859375 154.333007812 378.338867188 181 387.005859375 c 1
 151.666992188 403.672851562 131 425.505859375 119 452.505859375 c 0
 111.285704677 469.863023852 107.428427293 487.426821496 107.428427293 505.197252309 c 0
 107.428427293 515.06967944 108.6189367 525.005881795 111 535.005859375 c 0
 113 543.005859375 115.5 551.505859375 118.5 560.505859375 c 0
 121.5 569.505859375 126.333007812 580.172851562 133 592.505859375 c 0
 139.666992188 604.838867188 147.166992188 616.671875 155.5 628.004882812 c 0
 163.833007812 639.337890625 174.333007812 650.504882812 187 661.504882812 c 0
 199.666992188 672.504882812 213.5 682.171875 228.5 690.504882812 c 0
 243.5 698.837890625 261.333007812 705.504882812 282 710.504882812 c 0
 302.666992188 715.504882812 324.666992188 718.004882812 348 718.004882812 c 0
 372 718.004882812 393.166992188 715.504882812 411.5 710.504882812 c 0
 429.833007812 705.504882812 444.833007812 698.837890625 456.5 690.504882812 c 0
 468.166992188 682.171875 477.666992188 672.504882812 485 661.504882812 c 0
 492.333007812 650.504882812 497.666015625 639.337890625 500.999023438 628.004882812 c 0
 504.33203125 616.671875 506.33203125 604.671875 506.999023438 592.004882812 c 0
 507.265804685 586.938382727 507.399164064 582.111854526 507.399164064 577.52529821 c 0
 507.399164064 570.644792048 507.099046868 564.304328062 506.499023438 558.50390625 c 0
 505.499023438 548.836914062 503.999023438 539.669921875 501.999023438 531.002929688 c 0
 499.999023438 523.002929688 497.166015625 515.002929688 493.499023438 507.002929688 c 0
 489.83203125 499.002929688 485.83203125 492.002929688 481.499023438 486.002929688 c 0
 477.166015625 480.002929688 471.666015625 473.669921875 464.999023438 467.002929688 c 0
 458.33203125 460.3359375 452.33203125 454.668945312 446.999023438 450.001953125 c 0
 441.666015625 445.334960938 434.833007812 440.001953125 426.5 434.001953125 c 0
 418.166992188 428.001953125 411.5 423.501953125 406.5 420.501953125 c 0
 401.5 417.501953125 394.833007812 413.334960938 386.5 408.001953125 c 0
 378.166992188 402.668945312 372.333984375 399.001953125 369.000976562 397.001953125 c 1
 389.66796875 386.334960938 407.16796875 374.334960938 421.500976562 361.001953125 c 0
 435.833984375 347.668945312 446.500976562 334.501953125 453.500976562 321.501953125 c 0
 460.500976562 308.501953125 465.500976562 294.668945312 468.500976562 280.001953125 c 0
 470.955422992 268.002170923 472.18291361 257.006439932 472.18291361 247.014760154 c 0
 472.18291361 244.793894173 472.122269885 242.622632976 472.000976562 240.500976562 c 0
 471.333984375 228.833984375 469.666992188 216.666992188 467 204 c 0
198.999023438 538.004882812 m 0
 197.60041337 532.235264134 196.901134758 526.637590186 196.901134758 521.211860967 c 0
 196.901134758 505.948867158 202.434807479 492.046541106 213.500976562 479.504882812 c 0
 228.500976562 462.504882812 256.000976562 445.337890625 296.000976562 428.004882812 c 1
 324.66796875 439.337890625 351.16796875 454.670898438 375.500976562 474.00390625 c 0
 399.833984375 493.336914062 413.666992188 511.336914062 417 528.00390625 c 0
 418.714243007 536.003846453 419.571326077 543.942445643 419.571326077 551.819780688 c 0
 419.571326077 562.323352001 418.047489976 572.717999779 415 583.00390625 c 0
 409.666992188 601.00390625 399.5 616.00390625 384.5 628.00390625 c 0
 369.5 640.00390625 351.666992188 646.00390625 331 646.00390625 c 0
 302.333007812 646.00390625 274.666015625 634.836914062 247.999023438 612.50390625 c 0
 221.33203125 590.170898438 204.999023438 565.337890625 198.999023438 538.004882812 c 0
195.000976562 58.0048828125 m 0
 213.000976562 58.0048828125 231.666992188 60.8330078125 251 66.5 c 0
 270.333007812 72.1669921875 288.5 80.333984375 305.5 91.0009765625 c 0
 322.5 101.66796875 337.5 115.66796875 350.5 133.000976562 c 0
 363.5 150.333984375 372.333007812 168.666992188 377 188 c 0
 378.750669523 195.002037055 381.549920917 208.24479048 381.549920917 221.444234011 c 0
 381.549920917 230.414974208 380.200184632 240.60088058 377.5 252.001953125 c 0
 374.5 264.668945312 369.333007812 276.3359375 362 287.002929688 c 0
 354.666992188 297.669921875 343.666992188 308.836914062 329 320.50390625 c 0
 314.333007812 332.170898438 296 342.670898438 274 352.00390625 c 1
 226 339.336914062 184.666992188 317.336914062 150 286.00390625 c 0
 115.333007812 254.670898438 93.666015625 221.337890625 84.9990234375 186.004882812 c 0
 82.7011104633 176.557782582 81.5521265467 167.453026254 81.5521265467 158.690558972 c 0
 81.5521265467 144.573655152 84.5343490449 131.345172898 90.4990234375 119.004882812 c 0
 100.166015625 99.0048828125 114.333007812 83.837890625 133 73.5048828125 c 0
 151.666992188 63.171875 172.333984375 58.0048828125 195.000976562 58.0048828125 c 0
EndSplineSet
Validated: 1
EndChar

StartChar: nine
Encoding: 57 57 36
Width: 506
GlyphClass: 2
Flags: HMW
HStem: -22 79.9961<55 55> 234.998 89<181.333 252.667> 654.995 84.0049<320.667 324.331>
LayerCount: 2
Fore
SplineSet
55 -22 m 0
 52.2038120222 -22.2541312064 49.504450719 -22.3812306431 46.9019566903 -22.3812306431 c 0
 35.8534516123 -22.3812306431 26.5507873264 -20.0905150009 18.9970703125 -15.50390625 c 0
 10.8304748479 -10.5451583709 6.74717711564 -2.90658279121 6.74717711564 7.41182048896 c 0
 6.74717711564 14.4513115565 7.54578836595 24.6022854941 23.998046875 38.9970703125 c 0
 34.6650390625 48.330078125 45.33203125 54.6630859375 55.9990234375 57.99609375 c 0
 63.33203125 59.99609375 74.9990234375 62.6630859375 90.9990234375 65.99609375 c 0
 106.999023438 69.3291015625 121.499023438 72.8291015625 134.499023438 76.49609375 c 0
 147.499023438 80.1630859375 162.33203125 84.99609375 178.999023438 90.99609375 c 0
 195.666015625 96.99609375 212.166015625 105.329101562 228.499023438 115.99609375 c 0
 244.83203125 126.663085938 260.999023438 139.330078125 276.999023438 153.997070312 c 0
 296.999023438 173.330078125 315.999023438 195.830078125 333.999023438 221.497070312 c 0
 351.999023438 247.1640625 365.33203125 270.331054688 373.999023438 290.998046875 c 1
 351.999023438 269.665039062 326.666015625 254.998046875 297.999023438 246.998046875 c 0
 269.33203125 238.998046875 234.999023438 234.998046875 194.999023438 234.998046875 c 0
 167.666015625 234.998046875 143.166015625 241.831054688 121.499023438 255.498046875 c 0
 99.83203125 269.165039062 82.9990234375 287.33203125 70.9990234375 309.999023438 c 0
 58.9990234375 332.666015625 51.33203125 358.833007812 47.9990234375 388.5 c 0
 46.8881293297 398.388031674 46.3326822758 408.331608052 46.3326822758 418.330729137 c 0
 46.3326822758 438.331901021 48.5551215172 458.555316829 53 479.000976562 c 0
 61.6669921875 516.333984375 75.5 551.166992188 94.5 583.5 c 0
 113.5 615.833007812 135.5 643.333007812 160.5 666 c 0
 185.5 688.666992188 213.333007812 706.5 244 719.5 c 0
 274.666992188 732.5 305.333984375 739 336.000976562 739 c 0
 412.000976562 739 461.500976562 708 484.500976562 646 c 0
 494.873525582 618.039215686 500.059800091 584.587081892 500.059800091 545.643598616 c 0
 500.059800091 498.234140715 492.373525582 442.68627451 477.000976562 379 c 0
 464.333984375 325.666992188 447.166992188 277.5 425.5 234.5 c 0
 403.833007812 191.5 379.666015625 155 352.999023438 125 c 0
 326.33203125 95 296.499023438 69.3330078125 263.499023438 48 c 0
 230.499023438 26.6669921875 196.83203125 10.5 162.499023438 -0.5 c 0
 128.166015625 -11.5 92.3330078125 -18.6669921875 55 -22 c 0
146.997070312 490.995117188 m 0
 141.267711484 466.268898867 138.403483892 444.23699474 138.403483892 424.89886262 c 0
 138.403483892 401.482477903 142.603182917 382.015860202 151.000976562 366.498046875 c 0
 166.333984375 338.165039062 195.666992188 323.998046875 239 323.998046875 c 0
 266.333007812 323.998046875 294.666015625 330.665039062 323.999023438 343.998046875 c 0
 353.33203125 357.331054688 378.33203125 375.6640625 398.999023438 398.997070312 c 1
 404.33203125 418.330078125 410.33203125 447.663085938 416.999023438 486.99609375 c 0
 418.498977676 497.996002293 419.249160769 509.089288927 419.249160769 520.276365602 c 0
 419.249160769 524.005846237 419.165786746 527.745750533 418.999023438 531.49609375 c 0
 418.33203125 546.49609375 415.665039062 561.663085938 410.998046875 576.99609375 c 0
 406.331054688 592.329101562 400.1640625 605.662109375 392.497070312 616.995117188 c 0
 384.830078125 628.328125 374.330078125 637.495117188 360.997070312 644.495117188 c 0
 347.6640625 651.495117188 332.6640625 654.995117188 315.997070312 654.995117188 c 0
 292.6640625 654.995117188 269.1640625 646.995117188 245.497070312 630.995117188 c 0
 221.830078125 614.995117188 200.997070312 594.495117188 182.997070312 569.495117188 c 0
 164.997070312 544.495117188 152.997070312 518.328125 146.997070312 490.995117188 c 0
EndSplineSet
Validated: 1
EndChar

StartChar: colon
Encoding: 58 58 37
Width: 506
GlyphClass: 2
Flags: HMW
VStem: 157.004 192.996
LayerCount: 2
Fore
SplineSet
350 417 m 0
 346.666992188 395 339.00390625 371.6640625 327.00390625 346.997070312 c 0
 321.00390625 333.6640625 312.00390625 323.497070312 300.00390625 316.497070312 c 0
 289.047728307 310.105966512 278.925146442 306.910042989 269.636160653 306.910042989 c 0
 268.751176099 306.910042989 267.873757964 306.939051882 267.00390625 306.997070312 c 0
 233.943552678 308.800346316 217.413733797 321.442705507 217.413733797 344.924863693 c 0
 217.413733797 347.486592451 217.610458258 350.177327681 218.00390625 352.997070312 c 0
 220.670898438 370.997070312 225.337890625 393.997070312 232.004882812 421.997070312 c 0
 234.004882812 430.6640625 238.004882812 437.831054688 244.004882812 443.498046875 c 0
 250.004882812 449.165039062 256.671875 453.33203125 264.004882812 455.999023438 c 0
 271.337890625 458.666015625 278.170898438 460.333007812 284.50390625 461 c 0
 290.836914062 461.666992188 297.336914062 462 304.00390625 462 c 0
 309.336914062 462 314.669921875 461.333007812 320.002929688 460 c 0
 325.3359375 458.666992188 330.668945312 456.5 336.001953125 453.5 c 0
 341.334960938 450.5 345.16796875 445.833007812 347.500976562 439.5 c 0
 349.833984375 433.166992188 350.666992188 425.666992188 350 417 c 0
289.00390625 149.997070312 m 0
 287.670898438 126.6640625 281.004882812 102.66015625 269.004882812 77.9931640625 c 0
 263.004882812 64.66015625 253.004882812 54.8271484375 239.004882812 48.494140625 c 0
 226.338867187 42.7645709174 215.037301268 39.8997860636 205.099461892 39.8997860636 c 0
 204.052808955 39.8997860636 203.021282877 39.9315631049 202.004882812 39.9951171875 c 0
 189.337890625 40.662109375 178.170898438 44.8291015625 168.50390625 52.49609375 c 0
 160.494181422 58.8486899333 156.489596756 67.3748154769 156.489596756 78.0750258742 c 0
 156.489596756 80.2889732722 156.661034894 82.5959942574 157.00390625 84.99609375 c 0
 159.670898438 98.99609375 161.337890625 107.829101562 162.004882812 111.49609375 c 0
 162.671875 115.163085938 164.504882812 121.99609375 167.504882812 131.99609375 c 0
 170.504882812 141.99609375 172.671875 149.663085938 174.004882812 154.99609375 c 0
 176.004882812 162.99609375 179.837890625 169.99609375 185.504882812 175.99609375 c 0
 191.171875 181.99609375 197.504882812 186.163085938 204.504882812 188.49609375 c 0
 211.504882812 190.829101562 218.171875 192.49609375 224.504882812 193.49609375 c 0
 230.837890625 194.49609375 237.004882812 194.99609375 243.004882812 194.99609375 c 0
 250.337890625 194.99609375 257.337890625 193.829101562 264.004882812 191.49609375 c 0
 270.671875 189.163085938 276.671875 184.330078125 282.004882812 176.997070312 c 0
 287.337890625 169.6640625 289.670898438 160.6640625 289.00390625 149.997070312 c 0
EndSplineSet
Validated: 1
EndChar

StartChar: semicolon
Encoding: 59 59 38
Width: 506
GlyphClass: 2
Flags: HMW
VStem: 104.006 300.994
LayerCount: 2
Fore
SplineSet
405 375 m 0
 401.666992188 353 393.671875 329.666015625 381.004882812 304.999023438 c 0
 375.004882812 291.666015625 366.004882812 281.499023438 354.004882812 274.499023438 c 0
 343.04870487 268.107919639 333.203717012 264.911996115 324.470662484 264.911996115 c 0
 323.638642869 264.911996115 322.816716097 264.941005008 322.004882812 264.999023438 c 0
 314.004882812 265.666015625 306.171875 267.499023438 298.504882812 270.499023438 c 0
 290.837890625 273.499023438 284.170898438 278.666015625 278.50390625 285.999023438 c 0
 272.836914062 293.33203125 270.669921875 301.999023438 272.002929688 311.999023438 c 0
 274.669921875 329.999023438 280.002929688 352.999023438 288.002929688 380.999023438 c 0
 290.002929688 388.999023438 293.8359375 395.999023438 299.502929688 401.999023438 c 0
 305.169921875 407.999023438 311.669921875 412.166015625 319.002929688 414.499023438 c 0
 326.3359375 416.83203125 333.3359375 418.499023438 340.002929688 419.499023438 c 0
 346.669921875 420.499023438 352.669921875 420.666015625 358.002929688 419.999023438 c 0
 364.002929688 419.999023438 369.669921875 419.499023438 375.002929688 418.499023438 c 0
 380.3359375 417.499023438 385.668945312 415.33203125 391.001953125 411.999023438 c 0
 396.334960938 408.666015625 400.16796875 403.833007812 402.500976562 397.5 c 0
 404.833984375 391.166992188 405.666992188 383.666992188 405 375 c 0
317.004882812 73.9990234375 m 0
 310.337890625 52.666015625 270.005859375 -34.3349609375 196.005859375 -187.001953125 c 0
 189.338867188 -201.001953125 180.838867188 -211.168945312 170.505859375 -217.501953125 c 0
 161.157428062 -223.231522832 151.944882192 -226.096307685 142.868944926 -226.096307685 c 0
 141.913067491 -226.096307685 140.958705359 -226.064530644 140.005859375 -226.000976562 c 0
 127.338867188 -225.333984375 117.005859375 -221.000976562 109.005859375 -213.000976562 c 0
 103.953214129 -207.948331316 101.426768491 -201.699003695 101.426768491 -194.252993699 c 0
 101.426768491 -189.90951976 102.286449174 -185.158847381 104.005859375 -180.000976562 c 0
 108.672851562 -164.000976562 124.172851562 -125.000976562 150.505859375 -63.0009765625 c 0
 176.838867188 -1.0009765625 197.338867188 46.33203125 212.005859375 78.9990234375 c 0
 216.672851562 88.9990234375 221.505859375 96.9990234375 226.505859375 102.999023438 c 0
 231.505859375 108.999023438 236.338867188 112.999023438 241.005859375 114.999023438 c 0
 245.672851562 116.999023438 250.672851562 118.33203125 256.005859375 118.999023438 c 0
 261.338867188 119.666015625 266.005859375 119.666015625 270.005859375 118.999023438 c 0
 276.005859375 118.999023438 282.005859375 118.166015625 288.005859375 116.499023438 c 0
 294.005859375 114.83203125 299.838867188 112.499023438 305.505859375 109.499023438 c 0
 311.172851562 106.499023438 315.172851562 101.999023438 317.505859375 95.9990234375 c 0
 319.838867188 89.9990234375 319.671875 82.666015625 317.004882812 73.9990234375 c 0
EndSplineSet
Validated: 1
EndChar

StartChar: less
Encoding: 60 60 39
Width: 506
GlyphClass: 2
Flags: W
HStem: -12.3989 21G<314.175 319.908>
LayerCount: 2
Fore
SplineSet
370 14 m 0
 365.333007812 7.3330078125 359.500976562 1.66796875 352.500976562 -2.9990234375 c 0
 345.500976562 -7.666015625 336.500976562 -10.666015625 325.500976562 -11.9990234375 c 0
 323.301298859 -12.2655859432 321.054955145 -12.3988671961 318.761953228 -12.3988671961 c 0
 309.588265706 -12.3988671961 299.667773466 -10.2655859432 289.000976562 -5.9990234375 c 0
 275.000976562 -0.666015625 258.66796875 11.0009765625 240.000976562 29.0009765625 c 0
 221.333984375 47.0009765625 201.666992188 68.5009765625 181 93.5009765625 c 0
 160.333007812 118.500976562 140 144.000976562 120 170.000976562 c 0
 100 196.000976562 78.8330078125 222.833984375 56.5 250.500976562 c 0
 34.1669921875 278.16796875 14.6669921875 299.66796875 -2 315.000976562 c 0
 -8.6669921875 321.000976562 -12 330.000976562 -12 342.000976562 c 0
 -12 354.000976562 -9.1669921875 365.500976562 -3.5 376.500976562 c 0
 2.1669921875 387.500976562 9.333984375 395.333984375 18.0009765625 400.000976562 c 0
 59.333984375 428.000976562 108.833984375 463.16796875 166.500976562 505.500976562 c 0
 224.16796875 547.833984375 276.66796875 586.166992188 324.000976562 620.5 c 0
 371.333984375 654.833007812 412.666992188 682 448 702 c 0
 459.333007812 708.666992188 469.333007812 712.166992188 478 712.5 c 0
 486.666992188 712.833007812 493.666992188 711.166015625 499 707.499023438 c 0
 504.333007812 703.83203125 508.5 699.33203125 511.5 693.999023438 c 0
 514.5 688.666015625 516.666992188 682.999023438 518 676.999023438 c 0
 518.592737277 674.48026983 518.889105916 671.95326768 518.889105916 669.41801699 c 0
 518.889105916 660.546032058 515.259729464 651.573034207 508.000976562 642.499023438 c 0
 498.66796875 630.83203125 481.66796875 616.999023438 457.000976562 600.999023438 c 0
 416.333984375 574.999023438 353.666992188 532.33203125 269 472.999023438 c 0
 184.333007812 413.666015625 130.666015625 375.999023438 107.999023438 359.999023438 c 1
 127.33203125 339.999023438 148.499023438 315.83203125 171.499023438 287.499023438 c 0
 194.499023438 259.166015625 214.499023438 233.499023438 231.499023438 210.499023438 c 0
 248.499023438 187.499023438 267.33203125 163.999023438 287.999023438 139.999023438 c 0
 308.666015625 115.999023438 327.333007812 96.9990234375 344 82.9990234375 c 0
 360.666992188 68.9990234375 371 56.83203125 375 46.4990234375 c 0
 376.411726542 42.8521780915 377.117568347 39.1430523759 377.117568347 35.3716462907 c 0
 377.117568347 28.457112928 374.744957372 21.3332308311 370 14 c 0
EndSplineSet
Validated: 1
EndChar

StartChar: equal
Encoding: 61 61 40
Width: 506
GlyphClass: 2
Flags: HMW
HStem: 246.996 83<80.3325 108.999> 442.999 85.001
LayerCount: 2
Fore
SplineSet
152 528 m 0
 187.333007812 526.666992188 223.499023438 525.99609375 260.499023438 525.99609375 c 0
 297.499023438 525.99609375 332.33203125 526.329101562 364.999023438 526.99609375 c 0
 397.666015625 527.663085938 417.333007812 527.99609375 424 527.99609375 c 0
 438.666992188 527.99609375 448 524.663085938 452 517.99609375 c 0
 456 511.329101562 457 502.329101562 455 490.99609375 c 0
 453.666992188 484.99609375 452 479.49609375 450 474.49609375 c 0
 448 469.49609375 445 464.663085938 441 459.99609375 c 0
 437 455.329101562 432 451.829101562 426 449.49609375 c 0
 420 447.163085938 413.333007812 446.330078125 406 446.997070312 c 0
 391.326171864 447.441948891 375.98502586 447.66438818 359.976561987 447.66438818 c 0
 351.984049296 447.66438818 343.8251953 447.608941079 335.5 447.498046875 c 0
 310.5 447.165039062 276.166992188 446.33203125 232.5 444.999023438 c 0
 188.833007812 443.666015625 157 442.999023438 137 442.999023438 c 0
 121.666992188 442.999023438 110.5 446.999023438 103.5 454.999023438 c 0
 96.5 462.999023438 94.3330078125 472.666015625 97 483.999023438 c 0
 99 496.666015625 104.833007812 507.333007812 114.5 516 c 0
 123.476203773 524.047662237 134.894996806 528.071493356 148.756379099 528.071493356 c 0
 149.823119844 528.071493356 150.904326811 528.047662237 152 528 c 0
108.999023438 329.99609375 m 0
 125.250416942 329.773364709 142.430911795 329.661927461 160.540580725 329.661927461 c 0
 196.662760658 329.661927461 236.481723658 330.105288228 279.998046875 330.993164062 c 0
 345.331054688 332.326171875 378.331054688 332.993164062 378.998046875 332.993164062 c 0
 393.665039062 332.993164062 402.998046875 329.493164062 406.998046875 322.493164062 c 0
 410.998046875 315.493164062 411.998046875 306.326171875 409.998046875 294.993164062 c 0
 408.665039062 288.993164062 406.83203125 283.493164062 404.499023438 278.493164062 c 0
 402.166015625 273.493164062 399.166015625 268.66015625 395.499023438 263.993164062 c 0
 391.83203125 259.326171875 386.999023438 255.826171875 380.999023438 253.493164062 c 0
 374.999023438 251.16015625 368.33203125 250.327148438 360.999023438 250.994140625 c 0
 346.325195295 251.439019203 330.83590124 251.661458493 314.530851497 251.661458493 c 0
 306.390263004 251.661458493 298.046332338 251.606011391 289.499023438 251.495117188 c 0
 263.83203125 251.162109375 228.83203125 250.329101562 184.499023438 248.99609375 c 0
 140.166015625 247.663085938 107.999023438 246.99609375 87.9990234375 246.99609375 c 0
 72.666015625 246.99609375 62.166015625 251.163085938 56.4990234375 259.49609375 c 0
 52.6455484359 265.162421888 50.718810935 271.67674933 50.718810935 279.038769032 c 0
 50.718810935 282.503472772 51.1455484359 286.155925013 51.9990234375 289.99609375 c 0
 53.9990234375 301.329101562 59.9990234375 310.829101562 69.9990234375 318.49609375 c 0
 79.9990234375 326.163085938 92.9990234375 329.99609375 108.999023438 329.99609375 c 0
EndSplineSet
Validated: 1
EndChar

StartChar: greater
Encoding: 62 62 41
Width: 506
GlyphClass: 2
Flags: W
LayerCount: 2
Fore
SplineSet
59 5 m 0
 48.3330078125 -1 38.4990234375 -4.333984375 29.4990234375 -5.0009765625 c 0
 20.4990234375 -5.66796875 13.33203125 -4.16796875 7.9990234375 -0.5009765625 c 0
 2.666015625 3.166015625 -1.5009765625 7.666015625 -4.5009765625 12.9990234375 c 0
 -7.5009765625 18.33203125 -9.66796875 23.9990234375 -11.0009765625 29.9990234375 c 0
 -11.5937138398 32.5177770456 -11.8900824785 35.0447791948 -11.8900824785 37.5800298853 c 0
 -11.8900824785 46.4520148173 -8.26070602735 55.425012668 -1.001953125 64.4990234375 c 0
 8.3310546875 76.166015625 25.6640625 89.9990234375 50.9970703125 105.999023438 c 0
 91.6640625 131.999023438 154.1640625 174.666015625 238.497070312 233.999023438 c 0
 322.830078125 293.33203125 376.663085938 330.999023438 399.99609375 346.999023438 c 1
 380.663085938 366.999023438 359.330078125 391.166015625 335.997070312 419.499023438 c 0
 312.6640625 447.83203125 292.331054688 473.499023438 274.998046875 496.499023438 c 0
 257.665039062 519.499023438 238.83203125 542.999023438 218.499023438 566.999023438 c 0
 198.166015625 590.999023438 179.666015625 609.999023438 162.999023438 623.999023438 c 0
 146.33203125 637.999023438 135.999023438 650.166015625 131.999023438 660.499023438 c 0
 130.587296896 664.145868784 129.881455091 667.8549945 129.881455091 671.626400585 c 0
 129.881455091 678.540933947 132.254066065 685.664816044 136.999023438 692.998046875 c 0
 141.666015625 699.665039062 147.499023438 705.33203125 154.499023438 709.999023438 c 0
 161.499023438 714.666015625 170.499023438 717.666015625 181.499023438 718.999023438 c 0
 183.69870114 719.265585944 185.945044854 719.398867196 188.23804677 719.398867196 c 0
 197.411734293 719.398867196 207.332226533 717.265585944 217.999023438 712.999023438 c 0
 231.999023438 707.666015625 248.499023438 696.166015625 267.499023438 678.499023438 c 0
 286.499023438 660.83203125 306.166015625 639.33203125 326.499023438 613.999023438 c 0
 346.83203125 588.666015625 366.999023438 562.999023438 386.999023438 536.999023438 c 0
 406.999023438 510.999023438 428.166015625 484.33203125 450.499023438 456.999023438 c 0
 472.83203125 429.666015625 492.665039062 407.999023438 509.998046875 391.999023438 c 0
 515.998046875 385.999023438 518.831054688 376.999023438 518.498046875 364.999023438 c 0
 518.165039062 352.999023438 515.33203125 341.499023438 509.999023438 330.499023438 c 0
 504.666015625 319.499023438 497.666015625 311.666015625 488.999023438 306.999023438 c 0
 447.666015625 278.999023438 398.166015625 243.83203125 340.499023438 201.499023438 c 0
 282.83203125 159.166015625 230.33203125 120.833007812 182.999023438 86.5 c 0
 135.666015625 52.1669921875 94.3330078125 25 59 5 c 0
EndSplineSet
Validated: 1
EndChar

StartChar: question
Encoding: 63 63 42
Width: 506
GlyphClass: 2
Flags: HMW
HStem: -14.0039 153.998 637.999 84.001<278.667 291.331>
VStem: 53.001 151 128.999 95.001
LayerCount: 2
Fore
SplineSet
224 262 m 0xd0
 217.333007812 244.666992188 208.499023438 231.330078125 197.499023438 221.997070312 c 0
 190.165945871 215.775282111 181.721834697 212.66438801 172.166689916 212.66438801 c 0
 167.388617622 212.66438801 162.332728796 213.442274299 156.999023438 214.998046875 c 0
 140.999023438 219.665039062 131.666015625 228.33203125 128.999023438 240.999023438 c 0
 128.437531465 243.665853312 128.156790034 246.52474149 128.156790034 249.575687972 c 0
 128.156790034 261.016222791 132.104361339 275.157334613 139.999023438 291.999023438 c 0
 148.666015625 309.999023438 158.999023438 326.999023438 170.999023438 342.999023438 c 0
 182.999023438 358.999023438 195.166015625 372.666015625 207.499023438 383.999023438 c 0
 219.83203125 395.33203125 232.665039062 406.165039062 245.998046875 416.498046875 c 0
 259.331054688 426.831054688 271.998046875 436.498046875 283.998046875 445.498046875 c 0
 295.998046875 454.498046875 307.165039062 463.665039062 317.498046875 472.998046875 c 0
 327.831054688 482.331054688 336.6640625 492.498046875 343.997070312 503.498046875 c 0
 351.330078125 514.498046875 356.330078125 526.331054688 358.997070312 538.998046875 c 0
 361.779679008 551.056131114 363.170983355 561.964876979 363.170983355 571.724284469 c 0
 363.170983355 590.023173514 358.279679008 604.281419837 348.497070312 614.499023438 c 0
 333.497070312 630.166015625 308.6640625 637.999023438 273.997070312 637.999023438 c 0
 265.330078125 637.999023438 255.997070312 635.83203125 245.997070312 631.499023438 c 0
 235.997070312 627.166015625 227.330078125 622.333007812 219.997070312 617 c 0
 212.6640625 611.666992188 204.1640625 604.5 194.497070312 595.5 c 0
 184.830078125 586.5 177.330078125 578.833007812 171.997070312 572.5 c 0
 166.6640625 566.166992188 160.331054688 558.666992188 152.998046875 550 c 0
 145.665039062 541.333007812 138.83203125 534.5 132.499023438 529.5 c 0
 126.166015625 524.5 120.333007812 521.833007812 115 521.5 c 0
 109.666992188 521.166992188 104.833984375 521.5 100.500976562 522.5 c 0
 96.16796875 523.5 90.66796875 525.666992188 84.0009765625 529 c 0
 74.66796875 535 70.16796875 543.666992188 70.5009765625 555 c 0
 70.833984375 566.333007812 77.0009765625 581 89.0009765625 599 c 0
 99.0009765625 613 110.333984375 626.5 123.000976562 639.5 c 0
 135.66796875 652.5 150.66796875 665.5 168.000976562 678.5 c 0
 185.333984375 691.5 204.666992188 702 226 710 c 0
 247.333007812 718 268.333007812 722 289 722 c 0
 356.333007812 722 403.5 705.333007812 430.5 672 c 0
 447.720460972 650.740379256 456.330564776 622.700921567 456.330564776 587.881626933 c 0
 456.330564776 568.107670163 453.553694382 546.147127852 448 522 c 0
 444 504 437.5 487.666992188 428.5 473 c 0
 419.5 458.333007812 409.5 445.666015625 398.5 434.999023438 c 0
 387.5 424.33203125 375.5 414.33203125 362.5 404.999023438 c 0
 349.5 395.666015625 336.333007812 386.333007812 323 377 c 0
 309.666992188 367.666992188 296.833984375 358 284.500976562 348 c 0
 272.16796875 338 260.66796875 325.5 250.000976562 310.5 c 0
 239.333984375 295.5 230.666992188 279.333007812 224 262 c 0xd0
112.999023438 -14.00390625 m 0
 109.629297924 -14.3783659008 106.391060773 -14.5656038352 103.284293063 -14.5656038352 c 0
 84.2639098378 -14.5656038352 70.1712438239 -7.54758059842 61.001953125 6.4921875 c 0
 53.8904079795 17.3811916709 50.3346354067 29.5298213308 50.3346354067 42.9377871014 c 0
 50.3346354067 49.6411562375 51.223415792 56.6593017578 53.0009765625 63.9921875 c 0
 57.66796875 84.6591796875 69.66796875 102.326171875 89.0009765625 116.993164062 c 0
 108.333984375 131.66015625 128.000976562 139.327148438 148.000976562 139.994140625 c 0
 148.97923177 140.023799197 149.945953732 140.038628483 150.901142363 140.038628483 c 0
 171.427209049 140.038628483 186.627437782 133.190791385 196.500976562 119.495117188 c 0
 203.316433218 110.041336134 206.724161545 98.9195908098 206.724161545 86.1301614387 c 0
 206.724161545 79.5293605882 205.816433218 72.4843329962 204.000976562 64.9951171875 c 0xe0
 199.333984375 43.662109375 188.666992188 25.8291015625 172 11.49609375 c 0
 155.333007812 -2.8369140625 135.666015625 -11.3369140625 112.999023438 -14.00390625 c 0
EndSplineSet
Validated: 1
EndChar

StartChar: at
Encoding: 64 64 43
Width: 506
GlyphClass: 2
Flags: HMW
HStem: -129 84.9961<132.673 181.004> 102.002 77.9951<333.673 376.671> 118.002 79.9941<214.671 223.006> 612.994 90.0078<346.337 350.006>
VStem: -17.4961 85.501 299.005 81 449.506 75.499
LayerCount: 2
Fore
SplineSet
380 5 m 0xde
 374.666992188 -4.3330078125 369.340820312 -12.5009765625 364.0078125 -19.5009765625 c 0
 358.674804688 -26.5009765625 352.0078125 -35.16796875 344.0078125 -45.5009765625 c 0
 336.0078125 -55.833984375 327.674804688 -64.6669921875 319.0078125 -72 c 0
 310.340820312 -79.3330078125 300.0078125 -86.8330078125 288.0078125 -94.5 c 0
 276.0078125 -102.166992188 263.340820312 -108.5 250.0078125 -113.5 c 0
 236.674804688 -118.5 221.174804688 -122.5 203.5078125 -125.5 c 0
 189.053583867 -127.95444643 174.264671497 -129.181937048 159.14107539 -129.181937048 c 0
 155.779530501 -129.181937048 152.401450684 -129.121293323 149.006835938 -129 c 0
 116.33984375 -129 87.6728515625 -120.333007812 63.005859375 -103 c 0
 38.3388671875 -85.6669921875 19.171875 -61.5 5.5048828125 -30.5 c 0
 -8.162109375 0.5 -15.8291015625 38.1669921875 -17.49609375 82.5 c 0
 -17.6994075869 87.9070522866 -17.8010636195 93.3760899763 -17.8010636195 98.9071130692 c 0
 -17.8010636195 138.725547867 -12.5325199786 181.756510177 -1.99609375 228 c 0
 12.00390625 286.666992188 29.00390625 341.333984375 49.00390625 392.000976562 c 0
 69.00390625 442.66796875 91.1708984375 486.834960938 115.50390625 524.501953125 c 0
 139.836914062 562.168945312 165.50390625 594.501953125 192.50390625 621.501953125 c 0
 219.50390625 648.501953125 247.336914062 668.834960938 276.00390625 682.501953125 c 0
 304.670898438 696.168945312 332.670898438 703.001953125 360.00390625 703.001953125 c 0
 380.670898438 703.001953125 399.170898438 701.168945312 415.50390625 697.501953125 c 0
 431.836914062 693.834960938 447.00390625 687.834960938 461.00390625 679.501953125 c 0
 475.00390625 671.168945312 486.336914062 660.001953125 495.00390625 646.001953125 c 0
 503.670898438 632.001953125 510.837890625 614.501953125 516.504882812 593.501953125 c 0
 522.171875 572.501953125 525.004882812 548.001953125 525.004882812 520.001953125 c 0
 525.004882812 492.001953125 522.337890625 459.001953125 517.004882812 421.001953125 c 0
 511.671875 383.001953125 503.671875 340.334960938 493.004882812 293.001953125 c 0
 487.671875 269.001953125 480.838867188 246.168945312 472.505859375 224.501953125 c 0
 464.172851562 202.834960938 454.33984375 182.501953125 443.006835938 163.501953125 c 0
 431.673828125 144.501953125 418.506835938 129.501953125 403.506835938 118.501953125 c 0
 388.506835938 107.501953125 372.673828125 102.001953125 356.006835938 102.001953125 c 0xde
 317.638755339 102.001953125 298.45471504 122.661688832 298.45471504 163.981160246 c 0
 298.45471504 170.764603496 298.971763151 178.104867789 300.005859375 186.001953125 c 1
 275.338867188 140.668945312 243.005859375 118.001953125 203.005859375 118.001953125 c 0
 166.338867188 118.001953125 140.671875 130.334960938 126.004882812 155.001953125 c 0
 117.938089478 168.568710754 113.904774047 186.067917325 113.904774047 207.499572838 c 0
 113.904774047 225.034816679 116.604839966 245.202602296 122.004882812 268.002929688 c 0
 128.004882812 293.3359375 136.004882812 316.668945312 146.004882812 338.001953125 c 0
 156.004882812 359.334960938 167.171875 377.501953125 179.504882812 392.501953125 c 0
 191.837890625 407.501953125 205.337890625 420.168945312 220.004882812 430.501953125 c 0
 234.671875 440.834960938 249.504882812 448.16796875 264.504882812 452.500976562 c 0
 277.503906251 456.255967904 290.50292969 458.133463574 303.501953129 458.133463574 c 0
 309.504882812 458 l 0
 324.504882812 457.333007812 338.671875 453.666015625 352.004882812 446.999023438 c 0
 365.337890625 440.999023438 375.004882812 432.999023438 381.004882812 422.999023438 c 0
 387.004882812 412.999023438 387.004882812 403.999023438 381.004882812 395.999023438 c 0
 377.671875 390.666015625 374.004882812 386.333007812 370.004882812 383 c 0
 366.004882812 379.666992188 361.671875 377.333984375 357.004882812 376.000976562 c 0
 352.337890625 374.66796875 348.170898438 373.66796875 344.50390625 373.000976562 c 0
 340.836914062 372.333984375 336.169921875 372.500976562 330.502929688 373.500976562 c 0
 324.8359375 374.500976562 320.502929688 375.333984375 317.502929688 376.000976562 c 0
 314.502929688 376.66796875 310.3359375 378.000976562 305.002929688 380.000976562 c 0
 297.669921875 381.333984375 289.836914062 381.666992188 281.50390625 381 c 0
 273.170898438 380.333007812 264.837890625 377.5 256.504882812 372.5 c 0
 248.171875 367.5 240.171875 361.166992188 232.504882812 353.5 c 0
 224.837890625 345.833007812 217.837890625 335.666015625 211.504882812 322.999023438 c 0
 205.171875 310.33203125 200.004882812 295.999023438 196.004882812 279.999023438 c 0
 194.004882812 271.33203125 192.671875 263.165039062 192.004882812 255.498046875 c 0
 191.337890625 247.831054688 191.170898438 239.1640625 191.50390625 229.497070312 c 0
 191.836914062 219.830078125 194.336914062 212.163085938 199.00390625 206.49609375 c 0
 203.670898438 200.829101562 210.337890625 197.99609375 219.004882812 197.99609375 c 0xbe
 238.337890625 197.99609375 254.004882812 206.163085938 266.004882812 222.49609375 c 0
 278.004882812 238.829101562 289.004882812 265.99609375 299.004882812 303.99609375 c 0
 301.671875 314.663085938 311.671875 323.330078125 329.004882812 329.997070312 c 0
 339.812164565 334.242525645 349.278707302 336.365253311 357.404511022 336.365253311 c 0
 363.314088079 336.365253311 368.51453753 335.242525645 373.005859375 332.997070312 c 0
 380.338867188 329.6640625 382.671875 322.997070312 380.004882812 312.997070312 c 0
 368.004882812 277.6640625 360.671875 250.1640625 358.004882812 230.497070312 c 0
 356.671386719 220.663574219 356.004638672 212.413574219 356.004638672 205.746948242 c 0
 356.004638672 199.080322265 356.671386719 193.997070312 358.004882812 190.497070312 c 0
 360.671875 183.497070312 366.004882812 179.997070312 374.004882812 179.997070312 c 0
 379.337890625 179.997070312 384.837890625 184.330078125 390.504882812 192.997070312 c 0
 396.171875 201.6640625 401.338867188 212.997070312 406.005859375 226.997070312 c 0
 410.672851562 240.997070312 414.505859375 253.330078125 417.505859375 263.997070312 c 0
 420.505859375 274.6640625 423.005859375 284.997070312 425.005859375 294.997070312 c 0
 433.005859375 328.997070312 439.005859375 360.330078125 443.005859375 388.997070312 c 0
 447.005859375 417.6640625 449.172851562 442.1640625 449.505859375 462.497070312 c 0
 449.539139662 464.529119723 449.555780292 466.541193744 449.555780292 468.533292375 c 0
 449.555780292 486.474447732 448.206044006 502.795381524 445.505859375 517.49609375 c 0
 442.505859375 533.829101562 439.172851562 547.162109375 435.505859375 557.495117188 c 0
 431.838867188 567.828125 426.505859375 576.661132812 419.505859375 583.994140625 c 0
 412.505859375 591.327148438 406.172851562 596.827148438 400.505859375 600.494140625 c 0
 394.838867188 604.161132812 388.005859375 606.994140625 380.005859375 608.994140625 c 0
 372.005859375 610.994140625 366.005859375 612.161132812 362.005859375 612.494140625 c 0
 358.005859375 612.827148438 353.005859375 612.994140625 347.005859375 612.994140625 c 0
 322.338867188 612.994140625 297.171875 604.661132812 271.504882812 587.994140625 c 0
 245.837890625 571.327148438 221.504882812 548.16015625 198.504882812 518.493164062 c 0
 175.504882812 488.826171875 154.171875 451.993164062 134.504882812 407.993164062 c 0
 114.837890625 363.993164062 99.0048828125 315.993164062 87.0048828125 263.993164062 c 0
 76.337890625 218.66015625 70.0048828125 177.827148438 68.0048828125 141.494140625 c 0
 67.4594568811 131.585658312 67.1867538189 122.19778253 67.1867538189 113.33051328 c 0
 67.1867538189 89.6827562374 69.1262553766 69.737624207 73.0048828125 53.4951171875 c 0
 78.337890625 31.162109375 86.1708984375 12.3291015625 96.50390625 -3.00390625 c 0
 106.836914062 -18.3369140625 118.336914062 -29.00390625 131.00390625 -35.00390625 c 0
 143.670898438 -41.00390625 157.670898438 -44.00390625 173.00390625 -44.00390625 c 0
 189.00390625 -44.00390625 204.170898438 -42.3369140625 218.50390625 -39.00390625 c 0
 232.836914062 -35.6708984375 245.00390625 -31.6708984375 255.00390625 -27.00390625 c 0
 265.00390625 -22.3369140625 274.836914062 -16.00390625 284.50390625 -8.00390625 c 0
 294.170898438 -0.00390625 302.170898438 7.3291015625 308.50390625 13.99609375 c 0
 314.836914062 20.6630859375 322.00390625 29.330078125 330.00390625 39.9970703125 c 0
 333.336914062 44.6640625 336.169921875 48.3310546875 338.502929688 50.998046875 c 0
 340.8359375 53.6650390625 343.668945312 56.83203125 347.001953125 60.4990234375 c 0
 350.334960938 64.166015625 353.16796875 66.8330078125 355.500976562 68.5 c 0
 357.833984375 70.1669921875 360.500976562 71.6669921875 363.500976562 73 c 0
 366.500976562 74.3330078125 369.500976562 75 372.500976562 75 c 0
 375.500976562 75 378.333984375 74.3330078125 381.000976562 73 c 0
 385.66796875 71 389.16796875 68.5 391.500976562 65.5 c 0
 393.833984375 62.5 395.500976562 58.5 396.500976562 53.5 c 0
 397.500976562 48.5 396.66796875 41.8330078125 394.000976562 33.5 c 0
 391.333984375 25.1669921875 386.666992188 15.6669921875 380 5 c 0xde
EndSplineSet
Validated: 1
EndChar

StartChar: A
Encoding: 65 65 44
Width: 506
GlyphClass: 2
Flags: HMW
HStem: 251 81.0059
VStem: 404 91.501
LayerCount: 2
Fore
SplineSet
85 41 m 2
 74.3330078125 20.3330078125 62.3330078125 6.671875 49 0.0048828125 c 0
 41.5924117565 -3.69918258985 34.6990760827 -5.55121529102 28.3201604521 -5.55121529102 c 0
 23.2175885672 -5.55121529102 18.4441731771 -4.36617477735 14 -1.99609375 c 0
 3.80622288222 3.62832547804 -1.29066567667 13.3301469528 -1.29066567667 27.1095138294 c 0
 -1.29066567667 39.4634049591 2.80622288222 55.0948347111 11 74.00390625 c 0
 19.6669921875 95.3369140625 49.6669921875 147.336914062 101 230.00390625 c 1
 93.7412470977 236.225911458 90.1118706465 243.456273699 90.1118706465 251.694533538 c 0
 90.1118706465 254.048691498 90.4082392852 256.485152642 91.0009765625 259.00390625 c 0
 92.333984375 268.336914062 98.333984375 277.169921875 109.000976562 285.502929688 c 0
 119.66796875 293.8359375 132.000976562 300.3359375 146.000976562 305.002929688 c 1
 266.000976562 495.669921875 354.000976562 623.002929688 410.000976562 687.002929688 c 0
 422.000976562 700.3359375 432.333984375 710.002929688 441.000976562 716.002929688 c 0
 449.66796875 722.002929688 458.334960938 725.002929688 467.001953125 725.002929688 c 0
 469.18357318 725.245272736 471.304608941 725.366447194 473.365054538 725.366447194 c 0
 482.638088896 725.366447194 490.683900059 722.91211966 497.501953125 718.002929688 c 0
 504.685783764 712.830369575 508.277699084 704.437496617 508.277699084 692.823685118 c 0
 508.277699084 690.965856371 508.185783764 689.025605414 508.001953125 687.002929688 c 0
 501.334960938 604.3359375 496.001953125 487.168945312 492.001953125 335.501953125 c 0
 490.501913071 278.625312339 489.751867293 230.819468462 489.751867293 192.084421494 c 0
 489.751867293 127.528768014 491.835149768 88.1676197035 496.001953125 74.0009765625 c 0
 497.588944708 67.9696645745 498.382440499 62.2029249833 498.382440499 56.700757789 c 0
 498.382440499 50.6472453894 497.42195252 44.9139849806 495.500976562 39.5009765625 c 0
 491.833984375 29.16796875 486.666992188 20.5009765625 480 13.5009765625 c 0
 473.333007812 6.5009765625 466 1.333984375 458 -1.9990234375 c 0
 452.209405296 -4.43695711104 446.66268559 -5.6559239478 441.359840885 -5.6559239478 c 0
 435.062652106 -5.6559239478 429.109371812 -3.93695711104 423.5 -0.4990234375 c 0
 413.166992188 5.833984375 406.666992188 19.6669921875 404 41 c 0
 402.933218751 49.2666757886 402.399859374 65.4264015982 402.399859374 89.4791774289 c 0
 402.399859374 125.559221959 403.599976564 179.39949615 406 251 c 1
 326 247.666992188 253.666992188 240.666992188 189 230 c 1
 85 41 l 2
421 602.005859375 m 1
 383.666992188 557.338867188 323 462.672851562 239 318.005859375 c 1
 303.666992188 326.005859375 360.666992188 330.672851562 410 332.005859375 c 1
 421 602.005859375 l 1
EndSplineSet
Validated: 1
EndChar

StartChar: B
Encoding: 66 66 45
Width: 506
GlyphClass: 2
Flags: HMW
HStem: -22.9961 21G<38.3364 44.6694> 297.005 72<227.003 231.002> 630.005 78.998<311 325.336>
LayerCount: 2
Fore
SplineSet
157 -14 m 0
 146.333007812 -14.6669921875 134.502929688 -15.662109375 121.502929688 -16.9951171875 c 0
 108.502929688 -18.328125 97.8359375 -19.328125 89.5029296875 -19.9951171875 c 0
 81.169921875 -20.662109375 72.669921875 -21.3291015625 64.0029296875 -21.99609375 c 0
 55.3359375 -22.6630859375 47.8359375 -22.99609375 41.5029296875 -22.99609375 c 0
 35.169921875 -22.99609375 29.669921875 -22.3291015625 25.0029296875 -20.99609375 c 2
 21.0029296875 -20.99609375 l 2
 8.3359375 -20.99609375 -0.8310546875 -16.49609375 -6.498046875 -7.49609375 c 0
 -9.60573499294 -2.56063731454 -11.1595790519 3.42735684674 -11.1595790519 10.4678887339 c 0
 -11.1595790519 16.2660451854 -10.1057349929 22.7780510241 -7.998046875 30.00390625 c 0
 0.6689453125 58.00390625 13.6689453125 111.336914062 31.001953125 190.00390625 c 0
 48.3349609375 268.670898438 65.3349609375 349.670898438 82.001953125 433.00390625 c 0
 91.3349609375 477.670898438 97.66796875 507.670898438 101.000976562 523.00390625 c 0
 104.333984375 538.336914062 109.500976562 559.00390625 116.500976562 585.00390625 c 0
 123.500976562 611.00390625 128.333984375 629.00390625 131.000976562 639.00390625 c 0
 135.66796875 657.00390625 143.500976562 670.50390625 154.500976562 679.50390625 c 0
 165.500976562 688.50390625 177.333984375 693.00390625 190.000976562 693.00390625 c 2
 193.000976562 693.00390625 l 2
 203.66796875 696.336914062 214.834960938 699.169921875 226.501953125 701.502929688 c 0
 238.168945312 703.8359375 248.668945312 705.502929688 258.001953125 706.502929688 c 0
 267.334960938 707.502929688 277.16796875 708.169921875 287.500976562 708.502929688 c 0
 297.833984375 708.8359375 305.666992188 709.002929688 311 709.002929688 c 2
 329.5 709.002929688 l 1
 340 709.002929688 l 2
 382 709.002929688 417.5 700.669921875 446.5 684.002929688 c 0
 475.5 667.3359375 496 643.168945312 508 611.501953125 c 0
 514.749967813 593.689354959 518.124864817 574.24221275 518.124864817 553.160352694 c 0
 518.124864817 536.76317171 516.083215951 519.37706578 512 501.001953125 c 0
 503.333007812 462.334960938 487.333007812 429.16796875 464 401.500976562 c 0
 440.666992188 373.833984375 413 353.666992188 381 341 c 1
 400.333007812 333.666992188 418.5 322.833984375 435.5 308.500976562 c 0
 452.5 294.16796875 465.666992188 278.16796875 475 260.500976562 c 0
 481.877066743 247.48297777 485.315600115 235.09860232 485.315600115 223.347850214 c 0
 485.315600115 219.151416507 484.877066743 215.035791956 484 211.000976562 c 0
 478.666992188 185.66796875 467 160.500976562 449 135.500976562 c 0
 431 110.500976562 408.166992188 87.66796875 380.5 67.0009765625 c 0
 352.833007812 46.333984375 319.5 28.6669921875 280.5 14 c 0
 241.5 -0.6669921875 200.333007812 -10 157 -14 c 0
320.002929688 630.004882812 m 0
 286.669921875 630.004882812 253.001953125 625.671875 219.001953125 617.004882812 c 1
 215.668945312 604.337890625 210.3359375 584.004882812 203.002929688 556.004882812 c 0
 195.669921875 528.004882812 188.169921875 498.337890625 180.502929688 467.004882812 c 0
 172.8359375 435.671875 165.3359375 403.671875 158.002929688 371.004882812 c 1
 186.669921875 369.671875 214.002929688 369.004882812 240.002929688 369.004882812 c 0
 258.669921875 369.004882812 276.169921875 370.671875 292.502929688 374.004882812 c 0
 308.8359375 377.337890625 322.8359375 381.670898438 334.502929688 387.00390625 c 0
 346.169921875 392.336914062 357.002929688 398.836914062 367.002929688 406.50390625 c 0
 377.002929688 414.170898438 385.3359375 422.00390625 392.002929688 430.00390625 c 0
 398.669921875 438.00390625 404.502929688 446.836914062 409.502929688 456.50390625 c 0
 414.502929688 466.170898438 418.3359375 474.837890625 421.002929688 482.504882812 c 0
 423.669921875 490.171875 426.002929688 498.338867188 428.002929688 507.005859375 c 0
 430.288643974 516.910435268 431.431501117 526.379743304 431.431501117 535.413783483 c 0
 431.431501117 542.189313616 430.788643974 548.720005581 429.502929688 555.005859375 c 0
 426.502929688 569.672851562 421.169921875 581.505859375 413.502929688 590.505859375 c 0
 405.8359375 599.505859375 396.502929688 607.172851562 385.502929688 613.505859375 c 0
 374.502929688 619.838867188 363.502929688 624.171875 352.502929688 626.504882812 c 0
 341.502929688 628.837890625 330.669921875 630.004882812 320.002929688 630.004882812 c 0
231.001953125 297.004882812 m 1
 185.668945312 297.004882812 156 296.670898438 142 296.00390625 c 1
 120 188.670898438 104.666992188 112.337890625 96 67.0048828125 c 1
 102.666992188 67.0048828125 113.833984375 67.337890625 129.500976562 68.0048828125 c 0
 145.16796875 68.671875 157.334960938 69.0048828125 166.001953125 69.0048828125 c 0
 194.668945312 70.337890625 222.668945312 75.6708984375 250.001953125 85.00390625 c 0
 277.334960938 94.3369140625 300.334960938 105.50390625 319.001953125 118.50390625 c 0
 337.668945312 131.50390625 353.168945312 145.170898438 365.501953125 159.50390625 c 0
 377.834960938 173.836914062 385.66796875 187.00390625 389.000976562 199.00390625 c 0
 391.000976562 207.670898438 389.500976562 216.337890625 384.500976562 225.004882812 c 0
 379.500976562 233.671875 371.333984375 242.671875 360.000976562 252.004882812 c 0
 348.66796875 261.337890625 331.834960938 270.004882812 309.501953125 278.004882812 c 0
 287.168945312 286.004882812 261.001953125 292.337890625 231.001953125 297.004882812 c 1
EndSplineSet
Validated: 1
EndChar

StartChar: C
Encoding: 67 67 46
Width: 506
GlyphClass: 2
Flags: HMW
HStem: -31.002 90.0029<104.333 158.999> 632.001 80.9961<389.333 391.333>
VStem: 428.999 77
LayerCount: 2
Fore
SplineSet
385 64 m 0
 319.019669634 0.607449422292 232.953817466 -31.0910561331 126.803335603 -31.0910561331 c 0
 123.554050495 -31.0910561331 120.285946432 -31.0613551731 116.999023438 -31.001953125 c 0
 91.666015625 -31.001953125 68.8330078125 -26.3349609375 48.5 -17.001953125 c 0
 28.1669921875 -7.6689453125 11.6669921875 4.6640625 -1 19.9970703125 c 0
 -13.6669921875 35.330078125 -23.6669921875 53.1630859375 -31 73.49609375 c 0
 -38.3330078125 93.8291015625 -42.3330078125 115.49609375 -43 138.49609375 c 0
 -43.0667197332 140.796801152 -43.100079111 143.099179503 -43.100079111 145.403227827 c 0
 -43.100079111 166.132578442 -40.3998154603 186.997104363 -35 207.99609375 c 0
 -23.6669921875 256.663085938 -8.1669921875 303.663085938 11.5 348.99609375 c 0
 31.1669921875 394.329101562 53.1669921875 435.329101562 77.5 471.99609375 c 0
 101.833007812 508.663085938 128.166015625 542.330078125 156.499023438 572.997070312 c 0
 184.83203125 603.6640625 212.999023438 629.1640625 240.999023438 649.497070312 c 0
 268.999023438 669.830078125 296.83203125 685.497070312 324.499023438 696.497070312 c 0
 352.166015625 707.497070312 377.666015625 712.997070312 400.999023438 712.997070312 c 0
 423.666015625 712.997070312 443.999023438 710.330078125 461.999023438 704.997070312 c 1
 466.666015625 714.997070312 473.166015625 723.1640625 481.499023438 729.497070312 c 0
 489.83203125 735.830078125 498.665039062 739.330078125 507.998046875 739.997070312 c 0
 518.665039062 741.997070312 528.33203125 739.497070312 536.999023438 732.497070312 c 0
 545.666015625 725.497070312 549.999023438 715.330078125 549.999023438 701.997070312 c 0
 549.999023438 691.997070312 549.33203125 682.1640625 547.999023438 672.497070312 c 0
 546.666015625 662.830078125 545.166015625 653.330078125 543.499023438 643.997070312 c 0
 541.83203125 634.6640625 540.33203125 626.997070312 538.999023438 620.997070312 c 0
 537.666015625 614.997070312 535.999023438 607.997070312 533.999023438 599.997070312 c 0
 531.999023438 591.997070312 530.666015625 586.997070312 529.999023438 584.997070312 c 0
 526.666015625 570.997070312 518.666015625 556.830078125 505.999023438 542.497070312 c 0
 493.33203125 528.1640625 481.665039062 520.331054688 470.998046875 518.998046875 c 0
 468.675570075 518.610967408 466.403024587 518.417431215 464.18041749 518.417431215 c 0
 454.91904112 518.417431215 446.524746845 521.777807172 438.998046875 528.498046875 c 0
 431.739293973 534.979049126 428.109917522 543.174317402 428.109917522 553.08339227 c 0
 428.109917522 555.91500088 428.406286161 558.886555988 428.999023438 561.998046875 c 0
 430.33203125 567.331054688 434.33203125 581.331054688 440.999023438 603.998046875 c 0
 440.33203125 604.665039062 437.83203125 606.83203125 433.499023438 610.499023438 c 0
 429.166015625 614.166015625 425.999023438 616.833007812 423.999023438 618.5 c 0
 421.999023438 620.166992188 418.83203125 622.333984375 414.499023438 625.000976562 c 0
 410.166015625 627.66796875 405.999023438 629.500976562 401.999023438 630.500976562 c 0
 397.999023438 631.500976562 393.666015625 632.000976562 388.999023438 632.000976562 c 0
 369.666015625 632.000976562 347.499023438 625.333984375 322.499023438 612.000976562 c 0
 297.499023438 598.66796875 271.999023438 579.66796875 245.999023438 555.000976562 c 0
 219.999023438 530.333984375 195.166015625 502.000976562 171.499023438 470.000976562 c 0
 147.83203125 438.000976562 126.33203125 401.833984375 106.999023438 361.500976562 c 0
 87.666015625 321.16796875 73.666015625 280.66796875 64.9990234375 240.000976562 c 0
 60.9582248168 222.222528024 58.9378255064 204.688737215 58.9378255064 187.39982156 c 0
 58.9378255064 176.163419223 59.7912326293 165.030450994 61.498046875 154.000976562 c 0
 65.8310546875 126.000976562 75.8310546875 103.16796875 91.498046875 85.5009765625 c 0
 107.165039062 67.833984375 126.33203125 59.0009765625 148.999023438 59.0009765625 c 0
 168.999023438 59.0009765625 188.999023438 61.16796875 208.999023438 65.5009765625 c 0
 228.999023438 69.833984375 247.33203125 75.5009765625 263.999023438 82.5009765625 c 0
 280.666015625 89.5009765625 295.333007812 96.5009765625 308 103.500976562 c 0
 320.666992188 110.500976562 332.666992188 118.000976562 344 126.000976562 c 0
 353.333007812 132.000976562 361.333007812 136.66796875 368 140.000976562 c 0
 374.666992188 143.333984375 381.5 145.000976562 388.5 145.000976562 c 0
 395.5 145.000976562 401.333007812 142.66796875 406 138.000976562 c 0
 412.788029443 131.21294712 416.182044164 123.631521701 416.182044164 115.256700306 c 0
 416.182044164 100.600872397 405.788029443 83.5153056282 385 64 c 0
EndSplineSet
Validated: 1
EndChar

StartChar: D
Encoding: 68 68 47
Width: 506
GlyphClass: 2
Flags: HMW
HStem: -31 85.998<238.997 250.667> 694.001 20G<176.665 186.998>
LayerCount: 2
Fore
SplineSet
238 -31 m 0
 207.333007812 -31 177.49609375 -29.5 148.49609375 -26.5 c 0
 119.49609375 -23.5 96.6630859375 -20 79.99609375 -16 c 0
 63.3291015625 -12 48.8291015625 -8.3330078125 36.49609375 -5 c 0
 24.1630859375 -1.6669921875 16.99609375 0 14.99609375 0 c 0
 2.3291015625 0 -6.837890625 4.5 -12.5048828125 13.5 c 0
 -15.6125709304 18.4354564355 -17.1664149894 24.4234505967 -17.1664149894 31.4639824839 c 0
 -17.1664149894 37.2621389354 -16.1125709304 43.7741447741 -14.0048828125 51 c 0
 -4.671875 83 8.9951171875 139.833007812 26.9951171875 221.5 c 0
 44.9951171875 303.166992188 63.662109375 391.666992188 82.9951171875 487 c 0
 90.9951171875 524.333007812 96.328125 548.833007812 98.9951171875 560.5 c 0
 101.662109375 572.166992188 106.329101562 590.333984375 112.99609375 615.000976562 c 0
 119.663085938 639.66796875 123.663085938 654.66796875 124.99609375 660.000976562 c 0
 129.663085938 678.000976562 137.330078125 691.500976562 147.997070312 700.500976562 c 0
 158.6640625 709.500976562 170.331054688 714.000976562 182.998046875 714.000976562 c 0
 190.998046875 714.000976562 200.998046875 713.333984375 212.998046875 712.000976562 c 0
 224.998046875 710.66796875 240.498046875 708.000976562 259.498046875 704.000976562 c 0
 278.498046875 700.000976562 297.498046875 694.500976562 316.498046875 687.500976562 c 0
 335.498046875 680.500976562 355.331054688 670.66796875 375.998046875 658.000976562 c 0
 396.665039062 645.333984375 415.665039062 630.666992188 432.998046875 614 c 0
 450.331054688 597.333007812 466.1640625 576.5 480.497070312 551.5 c 0
 494.830078125 526.5 505.830078125 499.166992188 513.497070312 469.5 c 0
 520.550451571 442.207340561 524.077142201 410.119307551 524.077142201 373.235140612 c 0
 524.077142201 370.026391913 524.050451571 366.781345209 523.997070312 363.5 c 0
 523.330078125 322.5 517.330078125 278.333007812 505.997070312 231 c 0
 500.6640625 207.666992188 492.331054688 184 480.998046875 160 c 0
 469.665039062 136 455.33203125 112.5 437.999023438 89.5 c 0
 420.666015625 66.5 401.833007812 46 381.5 28 c 0
 361.166992188 10 338.5 -4.3330078125 313.5 -15 c 0
 288.5 -25.6669921875 263.333007812 -31 238 -31 c 0
141.99609375 348 m 0
 135.99609375 319.333007812 127.1640625 276.165039062 115.497070312 218.498046875 c 0
 103.830078125 160.831054688 95.330078125 117.331054688 89.9970703125 87.998046875 c 1
 112.6640625 75.998046875 137.1640625 67.498046875 163.497070312 62.498046875 c 0
 189.830078125 57.498046875 220.997070312 54.998046875 256.997070312 54.998046875 c 0
 274.330078125 54.998046875 291.997070312 61.1650390625 309.997070312 73.498046875 c 0
 327.997070312 85.8310546875 344.330078125 101.831054688 358.997070312 121.498046875 c 0
 373.6640625 141.165039062 386.6640625 162.83203125 397.997070312 186.499023438 c 0
 409.330078125 210.166015625 417.663085938 233.333007812 422.99609375 256 c 0
 430.558564999 289.063366463 434.339791659 320.062197032 434.339791659 348.996473778 c 0
 434.339791659 429.743101346 404.891762471 494.411073305 345.99609375 543 c 0
 317.329101562 566.333007812 273.99609375 590.333007812 215.99609375 615 c 1
 215.99609375 616 l 1
 214.99609375 616 l 1
 213.99609375 616 l 1
 212.99609375 617 l 1
 211.99609375 617 l 1
 210.99609375 618 l 1
 209.99609375 618 l 1
 208.99609375 618 l 1
 208.99609375 619 l 1
 207.99609375 619 l 1
 206.99609375 619 l 1
 205.99609375 620 l 1
 204.99609375 620 l 1
 203.99609375 620 l 1
 203.99609375 621 l 1
 181.99609375 534.333007812 161.329101562 443.333007812 141.99609375 348 c 0
EndSplineSet
Validated: 1
EndChar

StartChar: E
Encoding: 69 69 48
Width: 506
GlyphClass: 2
Flags: HMW
HStem: -17.498 87.4961 -6 90.4971 312.001 85.999<102.001 143.672> 332.001 80.999<416.335 448.337> 614.501 82.5
LayerCount: 2
Fore
SplineSet
351 -6 m 0x48
 349.058503318 -5.87860091242 346.564999382 -5.8178925363 343.519446973 -5.8178925363 c 0
 329.832092211 -5.8178925363 304.994500274 -7.04407615326 269.002929688 -9.498046875 c 0
 225.002929688 -12.498046875 177.002929688 -15.1650390625 125.002929688 -17.498046875 c 0
 97.0018201562 -18.7543316307 72.4802763123 -19.382550249 51.4382981565 -19.382550249 c 0
 33.4038653269 -19.382550249 17.9254091708 -18.9210811238 5.0029296875 -17.998046875 c 0
 -8.9970703125 -17.3310546875 -21.330078125 -9.8310546875 -31.9970703125 4.501953125 c 0
 -40.979734509 16.5717656685 -45.470775026 30.8873900517 -45.470775026 47.4488262747 c 0
 -45.470775026 50.5542402132 -45.3128721733 53.73861583 -44.9970703125 57.001953125 c 0
 -42.9970703125 74.3349609375 -36.830078125 105.501953125 -26.4970703125 150.501953125 c 0
 -16.1640625 195.501953125 -4.8310546875 243.334960938 7.501953125 294.001953125 c 0
 19.8349609375 344.668945312 32.3349609375 401.668945312 45.001953125 465.001953125 c 0
 53.6689453125 505.001953125 59.501953125 531.501953125 62.501953125 544.501953125 c 0
 65.501953125 557.501953125 70.3349609375 576.668945312 77.001953125 602.001953125 c 0
 83.6689453125 627.334960938 88.001953125 643.001953125 90.001953125 649.001953125 c 0
 94.6689453125 667.001953125 102.3359375 680.668945312 113.002929688 690.001953125 c 0
 123.669921875 699.334960938 135.336914062 704.001953125 148.00390625 704.001953125 c 0
 148.881458043 704.03707165 149.744222744 704.054630842 150.592200495 704.054630842 c 0
 165.849526903 704.054630842 176.319818725 698.370128174 182.00390625 687.001953125 c 1
 218.670898438 692.334960938 260.837890625 695.66796875 308.504882812 697.000976562 c 0
 332.338378906 697.667480469 354.755126953 698.000732422 375.755126953 698.000732422 c 0
 396.755126953 698.000732422 416.338378906 697.667480468 434.504882812 697.000976562 c 0
 470.837890625 695.66796875 499.337890625 693.66796875 520.004882812 691.000976562 c 0
 534.004882812 689.000976562 543.337890625 685.000976562 548.004882812 679.000976562 c 0
 552.671875 673.000976562 553.671875 664.66796875 551.004882812 654.000976562 c 0
 549.671875 648.000976562 547.838867188 642.333984375 545.505859375 637.000976562 c 0
 543.172851562 631.66796875 540.172851562 626.834960938 536.505859375 622.501953125 c 0
 532.838867188 618.168945312 528.005859375 614.668945312 522.005859375 612.001953125 c 0
 516.005859375 609.334960938 509.005859375 608.66796875 501.005859375 610.000976562 c 0
 458.76188091 613.439699298 415.975002032 615.159060666 372.645222741 615.159060666 c 0
 357.168358698 615.159060666 341.622229764 614.939699298 326.006835938 614.500976562 c 0
 266.673828125 612.833984375 215.006835938 608.666992188 171.006835938 602 c 1
 152.33984375 532.666992188 135.672851562 464.666992188 121.005859375 398 c 1xa8
 166.338867188 398 228.671875 400.5 308.004882812 405.5 c 0
 387.337890625 410.5 431.670898438 413 441.00390625 413 c 0
 455.670898438 413 465.170898438 409.666992188 469.50390625 403 c 0
 473.836914062 396.333007812 474.669921875 387 472.002929688 375 c 0
 465.484165223 346.319155088 449.40511912 331.978732632 423.76579138 331.978732632 c 0
 423.18278839 331.978732632 422.594842304 331.986147275 422.001953125 332.000976562 c 0x18
 410.668945312 332.000976562 362.168945312 328.66796875 276.501953125 322.000976562 c 0
 190.834960938 315.333984375 132.66796875 312.000976562 102.000976562 312.000976562 c 1
 98.66796875 297.333984375 94.3349609375 278.166992188 89.001953125 254.5 c 0
 83.6689453125 230.833007812 79.1689453125 210.5 75.501953125 193.5 c 0
 71.8349609375 176.5 68.16796875 159 64.5009765625 141 c 0
 60.833984375 123 58.1669921875 108.166992188 56.5 96.5 c 0
 54.8330078125 84.8330078125 54.3330078125 76.666015625 55 71.9990234375 c 1
 63.5563422441 69.2764214277 83.5135804042 67.9151204228 114.87171448 67.9151204228 c 0
 137.266632162 67.9151204228 165.476386189 68.6094292402 199.500976562 69.998046875 c 0xa8
 281.16796875 73.3310546875 334.000976562 77.6640625 358.000976562 82.9970703125 c 0
 367.333984375 84.330078125 375.166992188 84.830078125 381.5 84.4970703125 c 0
 387.833007812 84.1640625 393 82.8310546875 397 80.498046875 c 0
 401 78.1650390625 404 75.6650390625 406 72.998046875 c 0
 408 70.3310546875 409.333007812 66.8310546875 410 62.498046875 c 0
 410.666992188 58.1650390625 411 54.33203125 411 50.9990234375 c 0
 411 47.666015625 410.666992188 44.3330078125 410 41 c 0
 407.333007812 28.3330078125 400.833007812 17 390.5 7 c 0
 381.382470703 -1.82369341345 370.058470165 -6.23520467522 356.528669278 -6.23520467522 c 0
 354.724980828 -6.23520467522 352.882090538 -6.15680258698 351 -6 c 0x48
EndSplineSet
Validated: 1
EndChar

StartChar: F
Encoding: 70 70 49
Width: 506
GlyphClass: 2
Flags: HMW
HStem: 316 86.002 619.002 86.999
LayerCount: 2
Fore
SplineSet
47 24 m 0
 42.3330078125 10 33.5 -1.166015625 20.5 -9.4990234375 c 0
 8.46343315972 -17.2144700156 -3.71629138074 -21.0721933047 -16.0383984854 -21.0721933047 c 0
 -17.024686913 -21.0721933047 -18.0118875504 -21.0474778281 -19 -20.998046875 c 0
 -31.6669921875 -20.998046875 -40.833984375 -16.498046875 -46.5009765625 -7.498046875 c 0
 -49.6086646804 -2.56259043954 -51.1625087394 3.42540372174 -51.1625087394 10.4659356089 c 0
 -51.1625087394 16.2640920604 -50.1086646804 22.7760978991 -48.0009765625 30.001953125 c 0
 -39.333984375 59.3349609375 -25.833984375 115.501953125 -7.5009765625 198.501953125 c 0
 10.83203125 281.501953125 28.6650390625 367.001953125 45.998046875 455.001953125 c 0
 55.3310546875 499.668945312 61.8310546875 529.668945312 65.498046875 545.001953125 c 0
 69.1650390625 560.334960938 74.498046875 581.001953125 81.498046875 607.001953125 c 0
 88.498046875 633.001953125 93.3310546875 650.668945312 95.998046875 660.001953125 c 0
 100.665039062 678.001953125 108.33203125 691.501953125 118.999023438 700.501953125 c 0
 129.666015625 709.501953125 141.333007812 714.001953125 154 714.001953125 c 0
 155.650359631 714.128875256 157.249351921 714.192336321 158.796976027 714.192336321 c 0
 173.503373294 714.192336321 183.571289063 708.461883068 189 697.000976562 c 1
 251 701.66796875 313 704.66796875 375 706.000976562 c 0
 390.499290359 706.334213258 405.269460474 706.500839234 419.310525602 706.500839234 c 0
 461.436292486 706.500839234 496.999313284 705.001022345 526 702.000976562 c 0
 540 700.66796875 549.166992188 696.834960938 553.5 690.501953125 c 0
 557.833007812 684.168945312 559 675.3359375 557 664.002929688 c 0
 554.333007812 651.3359375 548.5 640.668945312 539.5 632.001953125 c 0
 530.5 623.334960938 518.333007812 619.001953125 503 619.001953125 c 0
 468.680986798 620.856915575 433.152139541 621.784417347 396.413458228 621.784417347 c 0
 327.528613575 621.784417347 254.390468645 618.523686235 176.999023438 612.001953125 c 1
 174.33203125 600.668945312 169.665039062 582.501953125 162.998046875 557.501953125 c 0
 156.331054688 532.501953125 149.831054688 507.001953125 143.498046875 481.001953125 c 0
 137.165039062 455.001953125 130.998046875 428.668945312 124.998046875 402.001953125 c 1
 153.568057843 405.430387922 184.831970798 407.144912772 218.789785741 407.144912772 c 0
 224.451000418 407.144912772 230.187087463 407.097260506 235.998046875 407.001953125 c 0
 276.665039062 406.334960938 312.998046875 404.501953125 344.998046875 401.501953125 c 0
 376.998046875 398.501953125 402.331054688 395.334960938 420.998046875 392.001953125 c 0
 434.998046875 389.334960938 444.165039062 385.001953125 448.498046875 379.001953125 c 0
 452.831054688 373.001953125 453.998046875 364.668945312 451.998046875 354.001953125 c 0
 450.665039062 348.001953125 448.83203125 342.501953125 446.499023438 337.501953125 c 0
 444.166015625 332.501953125 440.999023438 327.668945312 436.999023438 323.001953125 c 0
 432.999023438 318.334960938 428.166015625 314.834960938 422.499023438 312.501953125 c 0
 416.83203125 310.168945312 409.999023438 309.3359375 401.999023438 310.002929688 c 0
 383.999023438 313.3359375 358.33203125 316.168945312 324.999023438 318.501953125 c 0
 291.666015625 320.834960938 253.833007812 322.16796875 211.5 322.500976562 c 0
 208.68055553 322.523155403 205.892897844 322.534244823 203.13702723 322.534244823 c 0
 164.51443004 322.534244823 132.135156247 320.356163216 106 316 c 1
 70 139.333007812 50.3330078125 42 47 24 c 0
EndSplineSet
Validated: 1
EndChar

StartChar: G
Encoding: 71 71 50
Width: 506
GlyphClass: 2
Flags: HMW
HStem: -30.9971 89.9971<106.333 157.333> 643.002 80.999<393.332 398.664>
LayerCount: 2
Fore
SplineSet
429 244 m 0
 424.333007812 230 416.666015625 213.669921875 405.999023438 195.002929688 c 0
 395.33203125 176.3359375 382.499023438 156.502929688 367.499023438 135.502929688 c 0
 352.499023438 114.502929688 335.33203125 94.169921875 315.999023438 74.5029296875 c 0
 296.666015625 54.8359375 276.666015625 37.0029296875 255.999023438 21.0029296875 c 0
 235.33203125 5.0029296875 212.83203125 -7.830078125 188.499023438 -17.4970703125 c 0
 165.736554685 -26.5401203658 143.994441421 -31.0616453925 123.273483055 -31.0616453925 c 0
 121.843801818 -31.0616453925 120.418981858 -31.0401203658 118.999023438 -30.9970703125 c 0
 93.666015625 -30.9970703125 70.8330078125 -26.330078125 50.5 -16.9970703125 c 0
 30.1669921875 -7.6640625 13.6669921875 4.6689453125 1 20.001953125 c 0
 -11.6669921875 35.3349609375 -21.6669921875 53.16796875 -29 73.5009765625 c 0
 -36.3330078125 93.833984375 -40.3330078125 115.500976562 -41 138.500976562 c 0
 -41.0741464297 141.057779947 -41.1112196445 143.616646979 -41.1112196445 146.177576314 c 0
 -41.1112196445 166.653762405 -38.7411386172 187.26179107 -34.0009765625 208.000976562 c 0
 -22.66796875 257.333984375 -6.8349609375 305.333984375 13.498046875 352.000976562 c 0
 33.8310546875 398.66796875 55.998046875 440.66796875 79.998046875 478.000976562 c 0
 103.998046875 515.333984375 130.331054688 549.500976562 158.998046875 580.500976562 c 0
 187.665039062 611.500976562 216.165039062 637.500976562 244.498046875 658.500976562 c 0
 272.831054688 679.500976562 300.831054688 695.66796875 328.498046875 707.000976562 c 0
 356.165039062 718.333984375 381.665039062 724.000976562 404.998046875 724.000976562 c 0
 430.998046875 724.000976562 458.498046875 717.500976562 487.498046875 704.500976562 c 0
 516.498046875 691.500976562 534.331054688 680.333984375 540.998046875 671.000976562 c 0
 545.874398916 664.29604831 548.312574936 656.685605116 548.312574936 648.169646981 c 0
 548.312574936 638.056995424 544.874398916 626.667438617 537.998046875 614.000976562 c 0
 533.998046875 605.333984375 526.831054688 599.000976562 516.498046875 595.000976562 c 0
 506.165039062 591.000976562 496.665039062 591.000976562 487.998046875 595.000976562 c 0
 484.665039062 596.333984375 477.165039062 601.333984375 465.498046875 610.000976562 c 0
 453.831054688 618.66796875 441.6640625 626.334960938 428.997070312 633.001953125 c 0
 416.330078125 639.668945312 404.330078125 643.001953125 392.997070312 643.001953125 c 0
 373.6640625 643.001953125 351.331054688 636.168945312 325.998046875 622.501953125 c 0
 300.665039062 608.834960938 274.998046875 589.16796875 248.998046875 563.500976562 c 0
 222.998046875 537.833984375 197.998046875 508.666992188 173.998046875 476 c 0
 149.998046875 443.333007812 128.331054688 406.333007812 108.998046875 365 c 0
 89.6650390625 323.666992188 75.33203125 282 65.9990234375 240 c 0
 61.9582248168 222.221551462 59.9378255064 204.687760653 59.9378255064 187.398844998 c 0
 59.9378255064 176.162442661 60.7912326293 165.029474432 62.498046875 154 c 0
 66.8310546875 126 76.8310546875 103.166992188 92.498046875 85.5 c 0
 108.165039062 67.8330078125 127.33203125 59 149.999023438 59 c 0
 164.666015625 59 181.166015625 64.1669921875 199.499023438 74.5 c 0
 217.83203125 84.8330078125 235.165039062 98 251.498046875 114 c 0
 267.831054688 130 283.831054688 148 299.498046875 168 c 0
 315.165039062 188 328.83203125 207.333007812 340.499023438 226 c 0
 352.166015625 244.666992188 361.666015625 262 368.999023438 278 c 1
 329.666015625 276 290.666015625 272.333007812 251.999023438 267 c 0
 213.33203125 261.666992188 185.999023438 254.666992188 169.999023438 246 c 0
 164.314728342 243.157852452 159.079200061 241.736726779 154.292438596 241.736726779 c 0
 148.973965093 241.736726779 144.209493374 243.491103729 139.999023438 247 c 0
 131.999023438 253.666992188 128.666015625 262.666992188 129.999023438 274 c 0
 131.999023438 299.333007812 148.33203125 319 178.999023438 333 c 0
 198.999023438 342.333007812 238.499023438 349.5 297.499023438 354.5 c 0
 339.641880581 358.071428571 375.237284758 359.857142857 404.28488008 359.857142857 c 0
 415.903918208 359.857142857 426.47530692 359.571428571 435.999023438 359 c 0
 451.33203125 358.333007812 461.33203125 355.5 465.999023438 350.5 c 0
 470.666015625 345.5 472.666015625 337.666992188 471.999023438 327 c 0
 469.33203125 302.333007812 459.33203125 287 441.999023438 281 c 0
 441.33203125 279 439.33203125 273.666992188 435.999023438 265 c 0
 432.666015625 256.333007812 430.333007812 249.333007812 429 244 c 0
EndSplineSet
Validated: 1
EndChar

StartChar: H
Encoding: 72 72 51
Width: 506
GlyphClass: 2
Flags: HMW
HStem: 311.999 86.001<120.999 158.331>
LayerCount: 2
Fore
SplineSet
395 24 m 0
 390.333007812 10 381.66796875 -1.16796875 369.000976562 -9.5009765625 c 0
 357.272738245 -17.2164231406 345.259021706 -21.0741464297 332.959826947 -21.0741464297 c 0
 331.975372473 -21.0741464297 330.989089012 -21.0494309531 330.000976562 -21 c 0
 317.333984375 -21 308.166992188 -16.5 302.5 -7.5 c 0
 299.392311882 -2.56454356459 297.838467823 3.42345059664 297.838467823 10.4639824837 c 0
 297.838467823 16.2621389353 298.892311882 22.7741447741 301 30 c 0
 328.333007812 122.666992188 355 226.666992188 381 342 c 1
 370.333007812 341.333007812 331.166015625 336.166015625 263.499023438 326.499023438 c 0
 195.83203125 316.83203125 148.33203125 311.999023438 120.999023438 311.999023438 c 0
 120.33203125 309.999023438 119.33203125 306.499023438 117.999023438 301.499023438 c 0
 116.666015625 296.499023438 115.666015625 292.999023438 114.999023438 290.999023438 c 0
 96.33203125 224.999023438 75.6650390625 135.999023438 52.998046875 23.9990234375 c 0
 48.3310546875 9.9990234375 39.498046875 -1.16796875 26.498046875 -9.5009765625 c 0
 14.4614800347 -17.2164231406 2.56807089462 -21.0741464297 -9.18295568125 -21.0741464297 c 0
 -10.1235335731 -21.0741464297 -11.0631992552 -21.0494309531 -12.001953125 -21 c 0
 -24.001953125 -21 -33.1689453125 -16.5 -39.501953125 -7.5 c 0
 -42.9398867985 -2.61426418885 -44.6588536353 3.30290928227 -44.6588536353 10.2515204133 c 0
 -44.6588536353 16.1029260243 -43.4398867985 22.6857525532 -41.001953125 30 c 0
 -38.3349609375 39.3330078125 -34.3349609375 54.3330078125 -29.001953125 75 c 0
 -23.6689453125 95.6669921875 -17.001953125 123.333984375 -9.001953125 158.000976562 c 0
 -1.001953125 192.66796875 6.3310546875 224.000976562 12.998046875 252.000976562 c 0
 18.3310546875 274.66796875 26.498046875 307.16796875 37.498046875 349.500976562 c 0
 48.498046875 391.833984375 56.3310546875 423.166992188 60.998046875 443.5 c 2
 81.998046875 535 l 2
 87.998046875 565 91.998046875 584.166992188 93.998046875 592.5 c 0
 95.998046875 600.833007812 98.998046875 612.333007812 102.998046875 627 c 2
 111.998046875 660 l 2
 116.665039062 678 124.498046875 691.5 135.498046875 700.5 c 0
 146.498046875 709.5 158.331054688 714 170.998046875 714 c 0
 172.035590278 714.049430953 173.053910533 714.07414643 174.05300764 714.07414643 c 0
 186.535138832 714.07414643 196.016818577 710.21642314 202.498046875 702.500976562 c 0
 206.95259233 697.198153409 209.179865057 689.937766335 209.179865057 680.720067002 c 0
 209.179865057 675.45281024 208.45259233 669.546431107 206.998046875 663.000976562 c 0
 205.665039062 656.333984375 201.498046875 642.000976562 194.498046875 620.000976562 c 0
 187.498046875 598.000976562 181.998046875 577.66796875 177.998046875 559.000976562 c 0
 173.998046875 541.66796875 168.165039062 515.16796875 160.498046875 479.500976562 c 0
 152.831054688 443.833984375 146.6640625 416.666992188 141.997070312 398 c 1
 174.6640625 398 208.6640625 400 243.997070312 404 c 0
 279.330078125 408 311.330078125 412 339.997070312 416 c 0
 368.6640625 420 388.6640625 422.666992188 399.997070312 424 c 1
 400.6640625 428.666992188 401.831054688 435.5 403.498046875 444.5 c 0
 405.165039062 453.5 406.665039062 460.333007812 407.998046875 465 c 0
 417.331054688 506.333007812 423.331054688 533.666015625 425.998046875 546.999023438 c 0
 428.665039062 560.33203125 433.665039062 580.999023438 440.998046875 608.999023438 c 0
 448.331054688 636.999023438 452.998046875 653.999023438 454.998046875 659.999023438 c 0
 459.665039062 677.999023438 467.33203125 691.499023438 477.999023438 700.499023438 c 0
 488.666015625 709.499023438 500.333007812 713.999023438 513 713.999023438 c 0
 514.037543402 714.048454391 515.055863656 714.073169868 516.054960761 714.073169868 c 0
 528.537091955 714.073169868 538.018771701 710.215446578 544.5 702.5 c 0
 548.954545455 697.197176847 551.181818182 689.936789773 551.181818182 680.71909044 c 0
 551.181818182 675.451833678 550.454545455 669.545454545 549 663 c 0
 546.333007812 650.333007812 540 624.333007812 530 585 c 0
 520 545.666992188 511.5 511.166992188 504.5 481.5 c 0
 497.5 451.833007812 488 409 476 353 c 0
 466.666992188 306.333007812 452 245 432 169 c 0
 412 93 399.666992188 44.6669921875 395 24 c 0
EndSplineSet
Validated: 1
EndChar

StartChar: I
Encoding: 73 73 52
Width: 506
GlyphClass: 2
Flags: HMW
HStem: -13.998 80.001 -6.49902 77.999 612.001 89.001 625.002 82.999<133.328 159.995 151.662 159.995 151.662 275.994>
LayerCount: 2
Fore
SplineSet
366 -11 m 0x60
 350.666992188 -8.3330078125 324.821289062 -6.83203125 288.48828125 -6.4990234375 c 0x60
 281.225939126 -6.4324609146 273.983573562 -6.39917965315 266.761184558 -6.39917965315 c 0
 237.850448516 -6.39917965315 209.259806267 -6.9324609146 180.989257812 -7.9990234375 c 0
 145.65625 -9.33203125 108.323242188 -10.6650390625 68.990234375 -11.998046875 c 0
 29.6572265625 -13.3310546875 2.32421875 -13.998046875 -13.0087890625 -13.998046875 c 0
 -29.0087890625 -13.998046875 -40.17578125 -10.6650390625 -46.5087890625 -3.998046875 c 0
 -52.841796875 2.6689453125 -54.6748046875 11.3359375 -52.0078125 22.0029296875 c 0
 -50.0078125 34.0029296875 -44.3408203125 44.169921875 -35.0078125 52.5029296875 c 0
 -25.6748046875 60.8359375 -13.0078125 65.3359375 2.9921875 66.0029296875 c 0
 29.6591796875 67.3359375 75.6591796875 69.0029296875 140.9921875 71.0029296875 c 1
 173.659179688 185.002929688 203.326171875 305.669921875 229.993164062 433.002929688 c 0
 234.66015625 457.002929688 239.493164062 479.669921875 244.493164062 501.002929688 c 0
 249.493164062 522.3359375 252.993164062 537.668945312 254.993164062 547.001953125 c 0
 256.993164062 556.334960938 260.826171875 570.834960938 266.493164062 590.501953125 c 0
 272.16015625 610.168945312 275.327148438 621.668945312 275.994140625 625.001953125 c 1
 247.994140625 625.668457031 222.744140625 626.001708985 200.244140625 626.001708985 c 0
 177.744140625 626.001708985 157.994140625 625.668457031 140.994140625 625.001953125 c 0
 125.661132812 625.001953125 114.828125 628.668945312 108.495117188 636.001953125 c 0
 102.162109375 643.334960938 99.9951171875 652.66796875 101.995117188 664.000976562 c 0
 103.995117188 676.000976562 109.995117188 686.333984375 119.995117188 695.000976562 c 0
 129.995117188 703.66796875 143.328125 708.000976562 159.995117188 708.000976562 c 0x90
 212.221090663 709.556749139 260.594638725 710.334635428 305.115761375 710.334635428 c 0
 394.148690667 710.334635428 467.775142605 707.223741327 525.995117188 701.001953125 c 0
 548.690235173 698.732191994 560.037794165 688.495161368 560.037794165 670.290861247 c 0
 560.037794165 667.104925397 559.690235173 663.674963835 558.995117188 660.000976562 c 0
 557.662109375 654.000976562 555.495117188 648.16796875 552.495117188 642.500976562 c 0
 549.495117188 636.833984375 545.828125 631.333984375 541.495117188 626.000976562 c 0
 537.162109375 620.66796875 531.662109375 616.500976562 524.995117188 613.500976562 c 0
 518.328125 610.500976562 510.995117188 610.000976562 502.995117188 612.000976562 c 0
 485.662109375 615.333984375 441.329101562 619.000976562 369.99609375 623.000976562 c 1
 368.663085938 617.66796875 364.830078125 602.66796875 358.497070312 578.000976562 c 0
 352.1640625 553.333984375 347.1640625 533.666992188 343.497070312 519 c 0
 339.830078125 504.333007812 334.997070312 483.333007812 328.997070312 456 c 0
 322.997070312 428.666992188 316.997070312 401.666992188 310.997070312 375 c 0
 300.997070312 327.666992188 286.830078125 268.666992188 268.497070312 198 c 0
 250.1640625 127.333007812 239.331054688 85.3330078125 235.998046875 72 c 1
 263.331054688 72 294.331054688 71.8330078125 328.998046875 71.5 c 0
 363.665039062 71.1669921875 382.33203125 71 384.999023438 71 c 0
 399.666015625 71 408.999023438 67.5 412.999023438 60.5 c 0
 416.999023438 53.5 417.999023438 44.3330078125 415.999023438 33 c 0
 414.666015625 27 412.999023438 21.5 410.999023438 16.5 c 0
 408.999023438 11.5 405.999023438 6.5 401.999023438 1.5 c 0
 397.999023438 -3.5 392.83203125 -7.1669921875 386.499023438 -9.5 c 0
 380.166015625 -11.8330078125 373.333007812 -12.3330078125 366 -11 c 0x60
EndSplineSet
Validated: 1
EndChar

StartChar: J
Encoding: 74 74 53
Width: 506
GlyphClass: 2
Flags: HMW
HStem: -35.001 101.001<135.669 143.002> 625 82.999<118.336 144.002>
VStem: -37.9971 87.501 -24.9971 77
LayerCount: 2
Fore
SplineSet
300 215 m 0xe0
 281.333007812 155 262.834960938 106.33203125 244.501953125 68.9990234375 c 0
 226.168945312 31.666015625 208.001953125 4.9990234375 190.001953125 -11.0009765625 c 0
 172.001953125 -27.0009765625 153.001953125 -35.0009765625 133.001953125 -35.0009765625 c 0
 111.668945312 -35.0009765625 92.001953125 -31.0009765625 74.001953125 -23.0009765625 c 0
 56.001953125 -15.0009765625 40.8349609375 -4.333984375 28.501953125 8.9990234375 c 0
 16.1689453125 22.33203125 5.3359375 36.83203125 -3.9970703125 52.4990234375 c 0
 -13.330078125 68.166015625 -20.4970703125 83.8330078125 -25.4970703125 99.5 c 0
 -30.4970703125 115.166992188 -33.9970703125 129.166992188 -35.9970703125 141.5 c 0
 -37.9970703125 153.833007812 -38.6640625 163.666015625 -37.9970703125 170.999023438 c 0xe0
 -37.9970703125 176.999023438 -36.6640625 184.166015625 -33.9970703125 192.499023438 c 0
 -31.330078125 200.83203125 -28.330078125 208.665039062 -24.9970703125 215.998046875 c 0
 -21.6640625 223.331054688 -16.4970703125 229.831054688 -9.4970703125 235.498046875 c 0
 -2.4970703125 241.165039062 6.0029296875 244.665039062 16.0029296875 245.998046875 c 0
 19.5589981946 246.644669359 22.8701148071 246.967980601 25.936279525 246.967980601 c 0
 35.5165005201 246.967980601 42.7053839077 243.811661547 47.5029296875 237.499023438 c 0
 51.6522078916 232.039379503 53.7268469936 225.649522562 53.7268469936 218.329452616 c 0
 53.7268469936 214.476962449 53.1522078916 210.36681939 52.0029296875 205.999023438 c 0xd0
 51.9497102228 205.706257899 49.4539853326 191.613220231 49.4539853326 176.352057228 c 0
 49.4539853326 166.751819831 50.8037216184 155.801134089 53.50390625 143.5 c 0
 56.50390625 129.833007812 61.1708984375 117.333007812 67.50390625 106 c 0
 73.8369140625 94.6669921875 83.669921875 85.1669921875 97.0029296875 77.5 c 0
 110.3359375 69.8330078125 126.3359375 66 145.002929688 66 c 0
 167.002929688 66 193.3359375 124 224.002929688 240 c 0
 227.3359375 254.666992188 237.502929688 301.666992188 254.502929688 381 c 0
 271.502929688 460.333007812 290.002929688 541.333007812 310.002929688 624 c 1
 268.803539194 625.199976559 230.244279925 625.799859375 194.324940957 625.799859375 c 0
 170.377545521 625.799859375 147.6035626 625.533218748 126.002929688 625 c 0
 110.669921875 625 99.669921875 628.666992188 93.0029296875 636 c 0
 86.3359375 643.333007812 84.3359375 652.666015625 87.0029296875 663.999023438 c 0
 89.0029296875 675.999023438 95.169921875 686.33203125 105.502929688 694.999023438 c 0
 115.8359375 703.666015625 128.668945312 707.999023438 144.001953125 707.999023438 c 0
 196.227926589 709.554796015 244.638480672 710.332682303 289.23365155 710.332682303 c 0
 378.414661835 710.332682303 452.337332586 707.221788202 511.001953125 701 c 0
 533.69707111 698.730238868 545.044630102 688.493208243 545.044630102 670.288908124 c 0
 545.044630102 667.102972274 544.69707111 663.673010712 544.001953125 659.999023438 c 0
 542.668945312 653.999023438 540.501953125 648.166015625 537.501953125 642.499023438 c 0
 534.501953125 636.83203125 530.668945312 631.33203125 526.001953125 625.999023438 c 0
 521.334960938 620.666015625 515.66796875 616.499023438 509.000976562 613.499023438 c 0
 502.333984375 610.499023438 495.333984375 609.999023438 488.000976562 611.999023438 c 0
 467.333984375 615.33203125 434.666992188 618.33203125 390 620.999023438 c 1
 385.333007812 601.666015625 379.166015625 572.333007812 371.499023438 533 c 0
 363.83203125 493.666992188 356.83203125 457.833984375 350.499023438 425.500976562 c 0
 344.166015625 393.16796875 336.333007812 357.16796875 327 317.500976562 c 0
 317.666992188 277.833984375 308.666992188 243.666992188 300 215 c 0xe0
EndSplineSet
Validated: 1
EndChar

StartChar: K
Encoding: 75 75 54
Width: 506
GlyphClass: 2
Flags: W
HStem: -21.0751 21G<1.46846 8.12266 365.314 375.822> 694.072 20G<174.557 181.298>
LayerCount: 2
Fore
SplineSet
65 24 m 0
 60.3330078125 10 51.5 -1.1689453125 38.5 -9.501953125 c 0
 26.4634331597 -17.2173997031 14.2837086193 -21.0751229922 1.96160151458 -21.0751229922 c 0
 0.975313087005 -21.0751229922 -0.011887550354 -21.0504075156 -1 -21.0009765625 c 0
 -13.6669921875 -21.0009765625 -22.833984375 -16.5009765625 -28.5009765625 -7.5009765625 c 0
 -31.6086646804 -2.56552012704 -33.1625087394 3.42247403424 -33.1625087394 10.4630059214 c 0
 -33.1625087394 16.2611623729 -32.1086646804 22.7731682116 -30.0009765625 29.9990234375 c 0
 -21.333984375 59.33203125 -7.6669921875 115.499023438 11 198.499023438 c 0
 29.6669921875 281.499023438 47.6669921875 366.999023438 65 454.999023438 c 0
 73.6669921875 497.666015625 79.6669921875 526.499023438 83 541.499023438 c 0
 86.3330078125 556.499023438 91.8330078125 578.166015625 99.5 606.499023438 c 0
 107.166992188 634.83203125 112 652.665039062 114 659.998046875 c 0
 118.666992188 677.998046875 126.333984375 691.498046875 137.000976562 700.498046875 c 0
 147.66796875 709.498046875 159.334960938 713.998046875 172.001953125 713.998046875 c 0
 173.039496527 714.047477828 174.057816781 714.072193305 175.056913886 714.072193305 c 0
 187.53904508 714.072193305 197.020724826 710.214470016 203.501953125 702.499023438 c 0
 207.95649858 697.196200284 210.183771307 689.93581321 210.183771307 680.718113877 c 0
 210.183771307 675.450857116 209.45649858 669.544477983 208.001953125 662.999023438 c 0
 204.668945312 646.999023438 196.001953125 611.999023438 182.001953125 557.999023438 c 0
 168.001953125 503.999023438 156.668945312 459.33203125 148.001953125 423.999023438 c 1
 176.001953125 447.33203125 218.001953125 482.665039062 274.001953125 529.998046875 c 0
 330.001953125 577.331054688 374.334960938 614.831054688 407.001953125 642.498046875 c 0
 439.668945312 670.165039062 460.668945312 687.33203125 470.001953125 693.999023438 c 0
 480.668945312 702.666015625 490.3359375 708.499023438 499.002929688 711.499023438 c 0
 507.669921875 714.499023438 514.836914062 715.166015625 520.50390625 713.499023438 c 0
 526.170898438 711.83203125 531.00390625 708.33203125 535.00390625 702.999023438 c 0
 538.544921453 697.49068151 540.315441601 691.576046638 540.315441601 685.25509373 c 0
 540.315441601 670.155230705 530.211710507 652.73665463 510.00390625 632.999023438 c 0
 498.00390625 620.999023438 456.836914062 584.499023438 386.50390625 523.499023438 c 0
 316.170898438 462.499023438 254.00390625 409.33203125 200.00390625 363.999023438 c 1
 215.336914062 339.999023438 242.336914062 302.499023438 281.00390625 251.499023438 c 0
 319.670898438 200.499023438 353.170898438 155.666015625 381.50390625 116.999023438 c 0
 399.27657886 92.744069727 426.108284837 56.1259537727 426.108284837 40.0417548426 c 0
 426.108284837 28.9599967947 423.573166454 18.945986127 418.502929688 9.9990234375 c 0
 412.8359375 -0.0009765625 405.668945312 -7.66796875 397.001953125 -13.0009765625 c 0
 387.99673446 -18.598622481 379.657902214 -21.3974454403 371.985456387 -21.3974454403 c 0
 358.641626173 -21.3974454403 347.31346623 -12.9316302935 338.000976562 4 c 0
 333.333984375 12.6669921875 316.500976562 35.6669921875 287.500976562 73 c 0
 258.500976562 110.333007812 227.16796875 151.5 193.500976562 196.5 c 0
 159.833984375 241.5 135.666992188 277.333007812 121 304 c 1
 116 284 l 2
 114 272.666992188 97 186 65 24 c 0
EndSplineSet
Validated: 1
EndChar

StartChar: L
Encoding: 76 76 55
Width: 506
GlyphClass: 2
Flags: HMW
HStem: -9.00488 81.0029
LayerCount: 2
Fore
SplineSet
437 10 m 0
 393 1.3330078125 327.672851562 -5.0048828125 241.005859375 -9.0048828125 c 0
 154.338867188 -13.0048828125 91.005859375 -15.0048828125 51.005859375 -15.0048828125 c 0
 38.3388671875 -15.0048828125 29.171875 -10.5048828125 23.5048828125 -1.5048828125 c 0
 20.3971946946 3.43057362296 18.8433506356 9.41856778424 18.8433506356 16.4590996714 c 0
 18.8433506356 22.2572561229 19.8971946946 28.7692619616 22.0048828125 35.9951171875 c 0
 23.337890625 41.328125 35.6708984375 79.4951171875 59.00390625 150.495117188 c 0
 82.3369140625 221.495117188 103.336914062 289.995117188 122.00390625 355.995117188 c 0
 130.670898438 385.995117188 143.670898438 440.995117188 161.00390625 520.995117188 c 0
 178.336914062 600.995117188 187.669921875 644.328125 189.002929688 650.995117188 c 0
 193.669921875 668.995117188 201.502929688 682.662109375 212.502929688 691.995117188 c 0
 223.502929688 701.328125 235.002929688 705.995117188 247.002929688 705.995117188 c 0
 248.04047309 706.044548141 249.059710519 706.069263618 250.060641579 706.069263618 c 0
 262.565685118 706.069263618 272.213372866 702.211540328 279.002929688 694.49609375 c 0
 283.484013319 689.403926135 285.724555134 682.506634498 285.724555134 673.804441685 c 0
 285.724555134 668.266050493 284.817021131 661.996582032 283.001953125 654.99609375 c 0
 278.334960938 635.663085938 271.66796875 609.330078125 263.000976562 575.997070312 c 0
 254.333984375 542.6640625 243.333984375 500.6640625 230.000976562 449.997070312 c 0
 216.66796875 399.330078125 205.334960938 355.330078125 196.001953125 317.997070312 c 0
 188.668945312 289.997070312 176.8359375 249.330078125 160.502929688 195.997070312 c 0
 144.169921875 142.6640625 132.669921875 101.331054688 126.002929688 71.998046875 c 1
 130.526158605 71.9400284452 135.118748835 71.9110195517 139.780699736 71.9110195517 c 0
 188.71352622 71.9110195517 245.28785062 75.1069430753 309.502929688 81.498046875 c 0
 379.8359375 88.498046875 427.3359375 95.3310546875 452.002929688 101.998046875 c 0
 460.002929688 103.998046875 466.669921875 103.665039062 472.002929688 100.998046875 c 0
 477.3359375 98.3310546875 481.168945312 94.3310546875 483.501953125 88.998046875 c 0
 485.834960938 83.6650390625 487.16796875 77.83203125 487.500976562 71.4990234375 c 0
 487.833984375 65.166015625 487.666992188 59.3330078125 487 54 c 0
 484.333007812 42 479.333007812 32.3330078125 472 25 c 0
 464.666992188 17.6669921875 453 12.6669921875 437 10 c 0
EndSplineSet
Validated: 1
EndChar

StartChar: M
Encoding: 77 77 56
Width: 506
GlyphClass: 2
Flags: HMW
HStem: -9.99414 21G<-17.999 -11.999>
VStem: 151.998 97.001 368.998 89.001
LayerCount: 2
Fore
SplineSet
42 59 m 0
 38 37.6669921875 30.0009765625 20.8388671875 18.0009765625 8.505859375 c 0
 6.0009765625 -3.8271484375 -5.9990234375 -9.994140625 -17.9990234375 -9.994140625 c 0
 -32.815346955 -9.5449418962 -40.2236578638 1.78971679507 -40.2236578638 24.0098354488 c 0
 -40.2236578638 34.7832330208 -38.4821243882 48.1155665171 -34.9990234375 64.0068359375 c 0
 -32.9990234375 72.0068359375 -28.83203125 85.673828125 -22.4990234375 105.006835938 c 0
 -16.166015625 124.33984375 -7.9990234375 149.672851562 2.0009765625 181.005859375 c 0
 12.0009765625 212.338867188 20.66796875 239.671875 28.0009765625 263.004882812 c 0
 30.0009765625 271.004882812 33.66796875 283.337890625 39.0009765625 300.004882812 c 0
 53.66796875 349.337890625 65.5009765625 387.837890625 74.5009765625 415.504882812 c 0
 83.5009765625 443.171875 94.66796875 477.671875 108.000976562 519.004882812 c 0
 121.333984375 560.337890625 132.666992188 592.837890625 142 616.504882812 c 0
 151.333007812 640.171875 159.333007812 656.671875 166 666.004882812 c 0
 175.333007812 680.004882812 187.333007812 690.171875 202 696.504882812 c 0
 214.116617113 701.736673343 225.095569711 704.352568608 234.936857795 704.352568608 c 0
 237.008308564 704.352568608 239.029355966 704.236673343 241 704.004882812 c 0
 269 704.004882812 283 691.671875 283 667.004882812 c 0
 283.060659875 664.337180502 283.090989813 661.510946717 283.090989813 658.526181458 c 0
 283.090989813 628.691639126 280.060659875 583.01787291 274 521.504882812 c 0
 267.333007812 453.837890625 258.666015625 376.670898438 247.999023438 290.00390625 c 0
 237.33203125 203.336914062 230.33203125 146.00390625 226.999023438 118.00390625 c 1
 254.999023438 212.00390625 281.666015625 296.670898438 306.999023438 372.00390625 c 0
 324.999023438 427.336914062 345.33203125 483.00390625 367.999023438 539.00390625 c 0
 390.666015625 595.00390625 408.999023438 637.670898438 422.999023438 667.00390625 c 0
 427.666015625 677.00390625 434.666015625 685.170898438 443.999023438 691.50390625 c 0
 453.33203125 697.836914062 462.33203125 701.669921875 470.999023438 703.002929688 c 0
 479.666015625 704.3359375 487.999023438 704.668945312 495.999023438 704.001953125 c 2
 499.999023438 704.001953125 l 1
 512.499023438 704.001953125 l 2
 515.499023438 704.001953125 519.666015625 703.168945312 524.999023438 701.501953125 c 0
 530.33203125 699.834960938 534.499023438 697.66796875 537.499023438 695.000976562 c 0
 540.499023438 692.333984375 542.999023438 688.166992188 544.999023438 682.5 c 0
 546.999023438 676.833007812 547.666015625 670 546.999023438 662 c 0
 544.999023438 642 529.666015625 544.333007812 500.999023438 369 c 0
 472.33203125 193.666992188 457.999023438 94.6669921875 457.999023438 72 c 0
 457.33203125 32 444.665039062 6.6669921875 419.998046875 -4 c 0
 413.902989478 -6.43793367354 408.190989297 -7.6569005103 402.862046332 -7.6569005103 c 0
 396.533865574 -7.6569005103 390.745865754 -5.93793367354 385.498046875 -2.5 c 0
 375.831054688 3.8330078125 370.331054688 17.666015625 368.998046875 38.9990234375 c 0
 368.899257329 40.6535584262 368.849862556 42.5139049694 368.849862556 44.5800630672 c 0
 368.849862556 98.293364603 402.232265141 291.100010247 468.997070312 623 c 1
 428.997070312 526.333007812 397.330078125 438.333007812 373.997070312 359 c 0
 350.6640625 283 326.331054688 210.833007812 300.998046875 142.5 c 0
 275.665039062 74.1669921875 258.33203125 32.333984375 248.999023438 17.0009765625 c 0
 238.33203125 1.0009765625 218.999023438 -6.9990234375 190.999023438 -6.9990234375 c 0
 178.33203125 -7.666015625 168.665039062 -5.666015625 161.998046875 -0.9990234375 c 0
 155.331054688 3.66796875 151.998046875 10.3349609375 151.998046875 19.001953125 c 0
 151.998046875 51.001953125 156.665039062 124.501953125 165.998046875 239.501953125 c 0
 175.331054688 354.501953125 184.998046875 464.668945312 194.998046875 570.001953125 c 1
 172.498046875 498.001953125 l 2
 164.165039062 471.334960938 157.165039062 448.16796875 151.498046875 428.500976562 c 0
 145.831054688 408.833984375 137.331054688 379.666992188 125.998046875 341 c 0
 114.665039062 302.333007812 105.998046875 273 99.998046875 253 c 0
 91.998046875 225 83.3310546875 196.166992188 73.998046875 166.5 c 0
 64.6650390625 136.833007812 57.33203125 113.5 51.9990234375 96.5 c 0
 46.666015625 79.5 43.3330078125 67 42 59 c 0
EndSplineSet
Validated: 1
EndChar

StartChar: N
Encoding: 78 78 57
Width: 506
GlyphClass: 2
Flags: W
HStem: -12.0665 21G<-21.0314 -14.7501>
LayerCount: 2
Fore
SplineSet
332 -14 m 0
 320 -14.6669921875 310.826171875 -12.5029296875 304.493164062 -7.5029296875 c 0
 298.16015625 -2.5029296875 294.327148438 4.330078125 292.994140625 12.9970703125 c 0
 290.327148438 26.330078125 282.16015625 55.6630859375 268.493164062 100.99609375 c 0
 254.826171875 146.329101562 240.826171875 193.49609375 226.493164062 242.49609375 c 0
 212.16015625 291.49609375 197.827148438 346.329101562 183.494140625 406.99609375 c 0
 169.161132812 467.663085938 159.994140625 519.330078125 155.994140625 561.997070312 c 1
 142.661132812 489.330078125 128.328125 421.663085938 112.995117188 358.99609375 c 0
 97.662109375 296.329101562 81.4951171875 232.49609375 64.4951171875 167.49609375 c 0
 47.4951171875 102.49609375 37.662109375 62.99609375 34.9951171875 48.99609375 c 0
 30.9951171875 27.6630859375 23.4951171875 11.99609375 12.4951171875 1.99609375 c 0
 2.18287286314 -7.3786738176 -8.86147093099 -12.0664599028 -20.6387187978 -12.0664599028 c 0
 -21.4241801202 -12.0664599028 -22.2129013788 -12.0456087648 -23.0048828125 -12.00390625 c 0
 -35.671875 -12.00390625 -43.0048828125 -6.3369140625 -45.0048828125 4.99609375 c 0
 -45.6049150394 8.39617870748 -45.9049443385 12.2763738294 -45.9049443385 16.6366527443 c 0
 -45.9049443385 26.8098562645 -44.2717021425 39.5964482456 -41.0048828125 54.99609375 c 0
 -38.337890625 68.3291015625 -25.6708984375 119.99609375 -3.00390625 209.99609375 c 0
 19.6630859375 299.99609375 39.330078125 378.663085938 55.9970703125 445.99609375 c 0
 72.6640625 513.329101562 86.9970703125 577.99609375 98.9970703125 639.99609375 c 0
 100.997070312 653.329101562 104.997070312 664.662109375 110.997070312 673.995117188 c 0
 116.997070312 683.328125 123.997070312 690.161132812 131.997070312 694.494140625 c 0
 139.997070312 698.827148438 147.997070312 701.827148438 155.997070312 703.494140625 c 0
 163.997070312 705.161132812 171.6640625 705.328125 178.997070312 703.995117188 c 0
 206.330078125 703.995117188 220.663085938 691.662109375 221.99609375 666.995117188 c 0
 224.663085938 622.995117188 241.830078125 541.995117188 273.497070312 423.995117188 c 0
 305.1640625 305.995117188 332.997070312 210.662109375 356.997070312 137.995117188 c 1
 373.6640625 200.662109375 395.331054688 291.829101562 421.998046875 411.49609375 c 0
 448.665039062 531.163085938 463.998046875 609.99609375 467.998046875 647.99609375 c 0
 469.998046875 663.99609375 476.165039062 677.49609375 486.498046875 688.49609375 c 0
 496.831054688 699.49609375 507.998046875 704.99609375 519.998046875 704.99609375 c 0
 526.665039062 704.99609375 532.33203125 704.163085938 536.999023438 702.49609375 c 0
 541.666015625 700.829101562 545.166015625 698.829101562 547.499023438 696.49609375 c 0
 549.83203125 694.163085938 551.33203125 690.330078125 551.999023438 684.997070312 c 0
 552.666015625 679.6640625 552.833007812 674.831054688 552.5 670.498046875 c 0
 552.166992188 666.165039062 551.666992188 659.33203125 551 649.999023438 c 0
 550.333007812 639.33203125 539 585.83203125 517 489.499023438 c 0
 495 393.166015625 470.833007812 293.333007812 444.5 190 c 0
 418.166992188 86.6669921875 399.666992188 27 389 11 c 0
 379 -5.6669921875 360 -14 332 -14 c 0
EndSplineSet
Validated: 1
EndChar

StartChar: O
Encoding: 79 79 58
Width: 506
GlyphClass: 2
Flags: HMW
HStem: -24 83.998<149.663 150.667> 636.997 81.001<338.665 350.331>
LayerCount: 2
Fore
SplineSet
138 -24 m 0
 100 -23.3330078125 68.6630859375 -10.8349609375 43.99609375 13.498046875 c 0
 19.3291015625 37.8310546875 3.49609375 70.498046875 -3.50390625 111.498046875 c 0
 -6.08285361842 126.603310033 -7.37232730263 142.228842949 -7.37232730263 158.37469446 c 0
 -7.37232730263 186.053297048 -3.58285361842 215.260999178 3.99609375 245.998046875 c 0
 4.6630859375 249.331054688 5.99609375 254.998046875 7.99609375 262.998046875 c 0
 14.6630859375 292.998046875 20.330078125 316.998046875 24.9970703125 334.998046875 c 0
 29.6640625 352.998046875 36.4970703125 376.998046875 45.4970703125 406.998046875 c 0
 54.4970703125 436.998046875 64.6640625 465.498046875 75.9970703125 492.498046875 c 0
 87.330078125 519.498046875 99.9970703125 544.998046875 113.997070312 568.998046875 c 0
 139.997070312 612.331054688 175.830078125 647.998046875 221.497070312 675.998046875 c 0
 267.1640625 703.998046875 314.331054688 717.998046875 362.998046875 717.998046875 c 0
 387.665039062 717.998046875 410.33203125 712.831054688 430.999023438 702.498046875 c 0
 451.666015625 692.165039062 468.833007812 677.33203125 482.5 657.999023438 c 0
 496.166992188 638.666015625 505.5 613.999023438 510.5 583.999023438 c 0
 512.919313042 569.483145184 514.128914249 554.10873963 514.128914249 537.875917405 c 0
 514.128914249 520.560327455 512.752564741 502.267984708 510 482.999023438 c 0
 504.666992188 449.666015625 497.833984375 413.999023438 489.500976562 375.999023438 c 0
 481.16796875 337.999023438 471.16796875 299.499023438 459.500976562 260.499023438 c 0
 447.833984375 221.499023438 436.666992188 190.666015625 426 167.999023438 c 0
 411.333007812 136.666015625 395.333007812 109.666015625 378 86.9990234375 c 0
 360.666992188 64.33203125 343.166992188 45.83203125 325.5 31.4990234375 c 0
 307.833007812 17.166015625 288.666015625 5.8330078125 267.999023438 -2.5 c 0
 247.33203125 -10.8330078125 226.83203125 -16.5 206.499023438 -19.5 c 0
 186.166015625 -22.5 163.333007812 -24 138 -24 c 0
156.99609375 59.998046875 m 0
 173.663085938 59.998046875 190.330078125 62.1650390625 206.997070312 66.498046875 c 0
 223.6640625 70.8310546875 239.997070312 77.8310546875 255.997070312 87.498046875 c 0
 271.997070312 97.1650390625 287.497070312 109.998046875 302.497070312 125.998046875 c 0
 317.497070312 141.998046875 330.330078125 160.665039062 340.997070312 181.998046875 c 0
 344.997070312 190.665039062 352.1640625 210.665039062 362.497070312 241.998046875 c 0
 372.830078125 273.331054688 383.663085938 310.6640625 394.99609375 353.997070312 c 0
 406.329101562 397.330078125 415.329101562 439.997070312 421.99609375 481.997070312 c 0
 423.928649612 494.751316236 424.894927543 506.903361605 424.894927543 518.453230204 c 0
 424.894927543 546.74846271 419.095641799 571.429626174 407.497070312 592.497070312 c 0
 391.1640625 622.1640625 366.6640625 636.997070312 333.997070312 636.997070312 c 0
 300.6640625 636.997070312 269.6640625 623.830078125 240.997070312 597.497070312 c 0
 212.330078125 571.1640625 187.330078125 534.331054688 165.997070312 486.998046875 c 0
 137.330078125 423.665039062 114.663085938 348.665039062 97.99609375 261.998046875 c 0
 93.99609375 240.665039062 91.1630859375 220.998046875 89.49609375 202.998046875 c 0
 88.454290401 191.748767831 87.9335079129 180.499488787 87.9335079129 169.250209742 c 0
 87.9335079129 162.499488787 88.1210536969 155.748767831 88.49609375 148.998046875 c 0
 89.49609375 130.998046875 92.3291015625 115.498046875 96.99609375 102.498046875 c 0
 101.663085938 89.498046875 109.163085938 79.1650390625 119.49609375 71.498046875 c 0
 129.829101562 63.8310546875 142.329101562 59.998046875 156.99609375 59.998046875 c 0
EndSplineSet
Validated: 1
EndChar

StartChar: P
Encoding: 80 80 59
Width: 506
GlyphClass: 2
Flags: HMW
HStem: 230.001 82<218.998 227.998 218.998 244.664> 630.003 80.998<315.33 365.997>
LayerCount: 2
Fore
SplineSet
80 24 m 0
 77.3330078125 10 69.49609375 -0.830078125 56.49609375 -8.4970703125 c 0
 44.5365202792 -15.5504515715 32.435614702 -19.077142201 20.1941373747 -19.077142201 c 0
 19.1291865386 -19.077142201 18.0631718301 -19.0504515715 16.99609375 -18.9970703125 c 0
 3.6630859375 -18.9970703125 -6.169921875 -14.830078125 -12.5029296875 -6.4970703125 c 0
 -15.940863361 -1.97341756982 -17.6598301978 3.6800968506 -17.6598301978 10.4633167195 c 0
 -17.6598301978 16.1754468203 -16.440863361 22.6886822407 -14.0029296875 30.0029296875 c 0
 -11.3359375 40.669921875 -7.3359375 56.5029296875 -2.0029296875 77.5029296875 c 0
 3.330078125 98.5029296875 9.330078125 124.502929688 15.9970703125 155.502929688 c 0
 22.6640625 186.502929688 28.9970703125 216.502929688 34.9970703125 245.502929688 c 0
 40.9970703125 274.502929688 48.330078125 310.002929688 56.9970703125 352.002929688 c 0
 65.6640625 394.002929688 72.9970703125 429.002929688 78.9970703125 457.002929688 c 0
 88.330078125 500.3359375 101.997070312 557.668945312 119.997070312 629.001953125 c 1
 115.997070312 634.001953125 l 2
 113.330078125 642.001953125 113.663085938 650.168945312 116.99609375 658.501953125 c 0
 120.329101562 666.834960938 125.329101562 674.334960938 131.99609375 681.001953125 c 0
 138.663085938 687.668945312 145.330078125 691.668945312 151.997070312 693.001953125 c 0
 175.997070312 698.334960938 209.997070312 702.66796875 253.997070312 706.000976562 c 0
 297.997070312 709.333984375 328.330078125 711.000976562 344.997070312 711.000976562 c 0
 386.997070312 711.000976562 422.6640625 703.000976562 451.997070312 687.000976562 c 0
 481.330078125 671.000976562 501.997070312 646.833984375 513.997070312 614.500976562 c 0
 520.747038125 596.313746393 524.121935129 576.175259962 524.121935129 554.085517267 c 0
 524.121935129 536.904419021 522.080286264 518.542905453 517.997070312 499.000976562 c 0
 509.330078125 461.66796875 495.497070312 426.500976562 476.497070312 393.500976562 c 0
 457.497070312 360.500976562 435.497070312 332.000976562 410.497070312 308.000976562 c 0
 385.497070312 284.000976562 357.1640625 265.000976562 325.497070312 251.000976562 c 0
 293.830078125 237.000976562 261.330078125 230.000976562 227.997070312 230.000976562 c 0
 179.330078125 230.000976562 141.997070312 233.66796875 115.997070312 241.000976562 c 1
 110.6640625 213.000976562 105.831054688 186.16796875 101.498046875 160.500976562 c 0
 97.1650390625 134.833984375 92.83203125 108.166992188 88.4990234375 80.5 c 0
 84.166015625 52.8330078125 81.3330078125 34 80 24 c 0
325.99609375 630.002929688 m 0
 304.663085938 630.002929688 264.99609375 627.333984375 206.99609375 622.000976562 c 1
 203.663085938 608.66796875 197.330078125 584.000976562 187.997070312 548.000976562 c 0
 178.6640625 512.000976562 169.331054688 475.000976562 159.998046875 437.000976562 c 0
 150.665039062 399.000976562 141.998046875 362.000976562 133.998046875 326.000976562 c 1
 155.247825197 316.626208994 181.477253137 311.938422909 212.687135298 311.938422909 c 0
 214.768619493 311.938422909 216.872256606 311.959274047 218.998046875 312.000976562 c 0
 236.998046875 312.000976562 253.665039062 313.333984375 268.998046875 316.000976562 c 0
 284.331054688 318.66796875 297.998046875 322.334960938 309.998046875 327.001953125 c 0
 321.998046875 331.668945312 333.331054688 337.8359375 343.998046875 345.502929688 c 0
 354.665039062 353.169921875 363.665039062 360.836914062 370.998046875 368.50390625 c 0
 378.331054688 376.170898438 385.1640625 385.170898438 391.497070312 395.50390625 c 0
 397.830078125 405.836914062 402.997070312 415.169921875 406.997070312 423.502929688 c 0
 410.997070312 431.8359375 414.830078125 441.502929688 418.497070312 452.502929688 c 0
 422.1640625 463.502929688 424.997070312 472.502929688 426.997070312 479.502929688 c 0
 428.997070312 486.502929688 431.330078125 495.002929688 433.997070312 505.002929688 c 0
 436.397093748 516.203234369 437.597210938 526.743291781 437.597210938 536.623312867 c 0
 437.597210938 543.209832797 437.063851561 549.503017572 435.997070312 555.502929688 c 0
 433.330078125 570.502929688 428.163085938 582.502929688 420.49609375 591.502929688 c 0
 412.829101562 600.502929688 403.49609375 608.002929688 392.49609375 614.002929688 c 0
 381.49609375 620.002929688 370.329101562 624.169921875 358.99609375 626.502929688 c 0
 347.663085938 628.8359375 336.663085938 630.002929688 325.99609375 630.002929688 c 0
EndSplineSet
Validated: 1
EndChar

StartChar: Q
Encoding: 81 81 60
Width: 506
GlyphClass: 2
Flags: HMW
HStem: -23.9961 84.002<145.999 189.999> 637.005 80.9971<337.667 349.332>
LayerCount: 2
Fore
SplineSet
339 -206 m 0
 331.446752646 -210.443431253 324.040993059 -212.663701321 316.783299461 -212.663701321 c 0
 313.15143862 -212.663701321 309.556655794 -212.107711367 305.999023438 -210.99609375 c 0
 295.33203125 -207.663085938 286.999023438 -199.99609375 280.999023438 -187.99609375 c 0
 274.999023438 -175.99609375 265.499023438 -153.663085938 252.499023438 -120.99609375 c 0
 239.499023438 -88.3291015625 226.999023438 -54.99609375 214.999023438 -20.99609375 c 1
 201.666406078 -23.1295312614 187.267694872 -24.1962500172 171.802389929 -24.1962500172 c 0
 167.934647975 -24.1962500172 164.000195084 -24.1295312614 159.999023438 -23.99609375 c 0
 131.999023438 -23.99609375 107.666015625 -19.3291015625 86.9990234375 -9.99609375 c 0
 66.33203125 -0.6630859375 49.33203125 12.3369140625 35.9990234375 29.00390625 c 0
 22.666015625 45.6708984375 12.4990234375 65.50390625 5.4990234375 88.50390625 c 0
 -1.9103372079 112.848948371 -5.52724623787 138.785113388 -5.52724623787 166.670955613 c 0
 -5.52724623787 191.768570019 -2.68543316253 218.212561378 2.9990234375 246.002929688 c 0
 28.33203125 375.3359375 64.9990234375 481.668945312 112.999023438 565.001953125 c 0
 138.999023438 609.001953125 174.83203125 645.501953125 220.499023438 674.501953125 c 0
 266.166015625 703.501953125 313.333007812 718.001953125 362 718.001953125 c 0
 387.333007812 718.001953125 410 713.334960938 430 704.001953125 c 0
 450 694.668945312 466.833007812 681.001953125 480.5 663.001953125 c 0
 494.166992188 645.001953125 503.5 620.668945312 508.5 590.001953125 c 0
 510.919313042 575.163342291 512.128914249 559.154116338 512.128914249 541.974275265 c 0
 512.128914249 523.648498065 510.752564741 503.990731831 508 483.000976562 c 0
 502 437.000976562 490.666992188 380.833984375 474 314.500976562 c 0
 457.333007812 248.16796875 441.666015625 197.66796875 426.999023438 163.000976562 c 0
 396.999023438 91.0009765625 354.666015625 39.66796875 299.999023438 9.0009765625 c 1
 307.999023438 -10.33203125 316.666015625 -29.9990234375 325.999023438 -49.9990234375 c 0
 335.33203125 -69.9990234375 344.33203125 -88.666015625 352.999023438 -105.999023438 c 0
 361.666015625 -123.33203125 367.666015625 -134.999023438 370.999023438 -140.999023438 c 0
 373.666015625 -148.33203125 373.333007812 -156.33203125 370 -164.999023438 c 0
 366.666992188 -173.666015625 362 -181.833007812 356 -189.5 c 0
 350 -197.166992188 344.333007812 -202.666992188 339 -206 c 0
96.9990234375 262.004882812 m 0
 92.9585074464 238.975066165 90.9384668314 217.353448761 90.9384668314 197.139813217 c 0
 90.9384668314 184.000245717 91.7920255053 171.455614339 93.4990234375 159.505859375 c 0
 97.83203125 129.172851562 107.33203125 105.005859375 121.999023438 87.005859375 c 0
 136.666015625 69.005859375 155.999023438 60.005859375 179.999023438 60.005859375 c 2
 189.999023438 60.005859375 l 1
 181.999023438 90.005859375 176.666015625 113.338867188 173.999023438 130.005859375 c 0
 173.221137149 136.561817953 172.832194005 142.802926839 172.832194005 148.729186033 c 0
 172.832194005 178.358001872 182.554144961 200.116892986 201.998046875 214.005859375 c 0
 208.665039062 218.672851562 215.33203125 221.505859375 221.999023438 222.505859375 c 0
 228.666015625 223.505859375 234.499023438 221.505859375 239.499023438 216.505859375 c 0
 244.499023438 211.505859375 247.33203125 204.005859375 247.999023438 194.005859375 c 0
 251.33203125 160.672851562 259.33203125 124.33984375 271.999023438 85.0068359375 c 1
 303.33203125 104.33984375 327.999023438 135.33984375 345.999023438 178.006835938 c 0
 349.999023438 188.006835938 356.499023438 208.173828125 365.499023438 238.506835938 c 0
 374.499023438 268.83984375 384.666015625 306.672851562 395.999023438 352.005859375 c 0
 407.33203125 397.338867188 415.665039062 440.671875 420.998046875 482.004882812 c 0
 422.634410511 494.913884943 423.45259233 507.103927234 423.45259233 518.574989875 c 0
 423.45259233 549.16449025 417.634410511 574.641246448 405.998046875 595.004882812 c 0
 389.998046875 623.004882812 365.665039062 637.004882812 332.998046875 637.004882812 c 0
 298.998046875 637.004882812 267.498046875 624.004882812 238.498046875 598.004882812 c 0
 209.498046875 572.004882812 184.665039062 535.671875 163.998046875 489.004882812 c 0
 132.665039062 419.671875 110.33203125 344.004882812 96.9990234375 262.004882812 c 0
EndSplineSet
Validated: 1
EndChar

StartChar: R
Encoding: 82 82 61
Width: 506
GlyphClass: 2
Flags: W
HStem: -19.0801 21G<18.7936 25.7402 373 385.446> 694.06 20G<175.051 181.953>
VStem: 436.898 88.558<409.03 519.094>
LayerCount: 2
Fore
SplineSet
79 24 m 0
 76.3330078125 10 68.66796875 -0.8330078125 56.0009765625 -8.5 c 0
 44.3477593532 -15.553381259 32.1308667258 -19.0800718885 19.349538324 -19.0800718885 c 0
 18.2376229886 -19.0800718885 17.1214359016 -19.053381259 16.0009765625 -19 c 0
 3.333984375 -19 -6.3330078125 -14.8330078125 -13 -6.5 c 0
 -16.7040654023 -1.87032516797 -18.5560981035 3.9427937371 -18.5560981035 10.9391892417 c 0
 -18.5560981035 16.5356907578 -17.3710575898 22.8893229167 -15.0009765625 30 c 0
 -4.333984375 64.6669921875 3.8330078125 94.1669921875 9.5 118.5 c 0
 15.1669921875 142.833007812 28.333984375 202.666015625 49.0009765625 297.999023438 c 0
 51.66796875 310.666015625 58.66796875 337.833007812 70.0009765625 379.5 c 0
 81.333984375 421.166992188 90.333984375 460.666992188 97.0009765625 498 c 0
 101.66796875 520.666992188 107.16796875 551.333984375 113.500976562 590.000976562 c 0
 119.833984375 628.66796875 124.000976562 652.000976562 126.000976562 660.000976562 c 2
 127.000976562 666.000976562 l 2
 129.000976562 678.66796875 135.66796875 689.66796875 147.000976562 699.000976562 c 0
 157.040228299 709.040228299 168.555179111 714.059854168 181.546643098 714.059854168 c 0
 182.358981275 714.059854168 183.177092364 714.040228299 184.000976562 714.000976562 c 0
 196.000976562 714.000976562 205.333984375 711.333984375 212.000976562 706.000976562 c 1
 262.66796875 703.333984375 307.66796875 696.166992188 347.000976562 684.5 c 0
 386.333984375 672.833007812 418.000976562 658.333007812 442.000976562 641 c 0
 466.000976562 623.666992188 485.000976562 604 499.000976562 582 c 0
 513.000976562 560 521.333984375 538 524.000976562 516 c 0
 524.970824187 507.999733688 525.455748 499.955430353 525.455748 491.867043034 c 0
 525.455748 477.713105651 523.970824187 463.424175188 521.000976562 449 c 0
 517.000976562 432.333007812 511.333984375 417 504.000976562 403 c 0
 496.66796875 389 488.16796875 376.833007812 478.500976562 366.5 c 0
 468.833984375 356.166992188 457.166992188 347 443.5 339 c 0
 429.833007812 331 415.666015625 324.166992188 400.999023438 318.5 c 0
 386.33203125 312.833007812 369.33203125 307.833007812 349.999023438 303.5 c 0
 330.666015625 299.166992188 311.833007812 295.833984375 293.5 293.500976562 c 0
 275.166992188 291.16796875 254.333984375 289.000976562 231.000976562 287.000976562 c 1
 285.66796875 252.333984375 331.500976562 211.833984375 368.500976562 165.500976562 c 0
 369.369748404 164.413062709 435.106331711 81.5444161147 435.106331711 43.2433088676 c 0
 435.106331711 32.6953833524 432.571213328 22.9479392507 427.500976562 14.0009765625 c 0
 421.833984375 4.0009765625 414.333984375 -3.9990234375 405.000976562 -9.9990234375 c 0
 397.178862858 -15.3763237953 389.356749153 -18.0649739742 381.534635449 -18.0649739742 c 0
 373 -16.998046875 l 0
 362.333007812 -14.3310546875 354 -6.3310546875 348 7.001953125 c 0
 341.333007812 21.001953125 331.166015625 38.1689453125 317.499023438 58.501953125 c 0
 303.83203125 78.8349609375 286.999023438 101.501953125 266.999023438 126.501953125 c 0
 246.999023438 151.501953125 223.33203125 176.168945312 195.999023438 200.501953125 c 0
 168.666015625 224.834960938 141.333007812 244.334960938 114 259.001953125 c 1
 106.666992188 220.334960938 99.5 174.66796875 92.5 122.000976562 c 0
 85.5 69.333984375 81 36.6669921875 79 24 c 0
181.001953125 498 m 0
 179.668945312 490.666992188 177.172851562 480.833984375 173.505859375 468.500976562 c 0
 169.838867188 456.16796875 166.505859375 445.16796875 163.505859375 435.500976562 c 0
 160.505859375 425.833984375 156.338867188 412.500976562 151.005859375 395.500976562 c 0
 145.672851562 378.500976562 141.672851562 366.333984375 139.005859375 359.000976562 c 1
 146.243870152 357.477037974 155.658376427 356.715159777 167.249560392 356.715159777 c 0
 175.943706367 356.715159777 185.862447067 357.143791 197.005859375 358.000976562 c 0
 222.338867188 359.333984375 244.171875 360.833984375 262.504882812 362.500976562 c 0
 280.837890625 364.16796875 299.004882812 366.500976562 317.004882812 369.500976562 c 0
 335.004882812 372.500976562 350.171875 376.000976562 362.504882812 380.000976562 c 0
 374.837890625 384.000976562 386.170898438 389.000976562 396.50390625 395.000976562 c 0
 406.836914062 401.000976562 415.169921875 408.16796875 421.502929688 416.500976562 c 0
 427.8359375 424.833984375 432.3359375 434.333984375 435.002929688 445.000976562 c 0
 436.266121753 450.895975665 436.897733164 456.724456713 436.897733164 462.486419707 c 0
 436.897733164 474.970179282 433.932902935 487.141698234 428.002929688 499.000976562 c 0
 419.3359375 516.333984375 406.668945312 531.666992188 390.001953125 545 c 0
 373.334960938 558.333007812 353.834960938 570.5 331.501953125 581.5 c 0
 309.168945312 592.5 287.501953125 601.333007812 266.501953125 608 c 0
 245.501953125 614.666992188 225.334960938 620 206.001953125 624 c 1
 196.001953125 575.333007812 187.668945312 533.333007812 181.001953125 498 c 0
EndSplineSet
Validated: 1
EndChar

